{
copyright = "Copyright (c) 2015, Cadson Demak (info@cadsondemak.com)";
customParameters = (
{
name = vendorID;
value = CDK;
},
{
name = description;
value = "Copyright (c) 2015, Cadson Demak (info@cadsondemak.com)";
},
{
name = license;

glyphs = (
{
glyphname = A;
lastChange = "2015-10-26 00:07:46 +0000";
layers = (
{
layerId = "F5311820-4606-4FC3-8850-6A1C02DF84E8";
name = "Light Italic";
paths = (
{
closed = 1;
nodes = (
"149 0 LINE",
"150 6 LINE",
"134 13 OFFCURVE",
"111 17 OFFCURVE",
"72 21 CURVE",
"415 647 LINE",
"502 21 LINE",
"461 17 OFFCURVE",
"436 13 OFFCURVE",
"419 6 CURVE",
"418 0 LINE",
"597 0 LINE",
"598 6 LINE",
"578 15 OFFCURVE",
"553 20 OFFCURVE",
"527 23 CURVE",
"433 704 LINE",
"420 704 LINE",
"47 23 LINE",
"21 20 OFFCURVE",
"-6 15 OFFCURVE",
"-30 6 CURVE",
"-31 0 LINE"
);
},
{
closed = 1;
nodes = (
"487 186 LINE",
"492 208 LINE",
"157 208 LINE",
"153 186 LINE"
);
}
);
width = 643;
}
);
leftKerningGroup = A;
note = A;
rightKerningGroup = A;
unicode = 0041;
},
{
glyphname = Aacute;
lastChange = "2015-10-26 01:20:27 +0000";
layers = (
{
layerId = "F5311820-4606-4FC3-8850-6A1C02DF84E8";
name = "Light Italic";
paths = (
{
closed = 1;
nodes = (
"149 0 LINE",
"150 6 LINE",
"134 13 OFFCURVE",
"111 17 OFFCURVE",
"72 21 CURVE",
"415 647 LINE",
"502 21 LINE",
"461 17 OFFCURVE",
"436 13 OFFCURVE",
"419 6 CURVE",
"418 0 LINE",
"597 0 LINE",
"598 6 LINE",
"578 15 OFFCURVE",
"553 20 OFFCURVE",
"527 23 CURVE",
"433 704 LINE",
"420 704 LINE",
"47 23 LINE",
"21 20 OFFCURVE",
"-6 15 OFFCURVE",
"-30 6 CURVE",
"-31 0 LINE"
);
},
{
closed = 1;
nodes = (
"487 186 LINE",
"492 208 LINE",
"157 208 LINE",
"153 186 LINE"
);
},
{
closed = 1;
nodes = (
"574 859 LINE SMOOTH",
"588 866 OFFCURVE",
"594 877 OFFCURVE",
"594 885 CURVE SMOOTH",
"594 892 OFFCURVE",
"589 896 OFFCURVE",
"584 896 CURVE SMOOTH",
"574 896 OFFCURVE",
"564 891 OFFCURVE",
"556 884 CURVE",
"436 797 LINE",
"441 787 LINE"
);
}
);
width = 643;
}
);
leftKerningGroup = A;
note = Aacute;
rightKerningGroup = A;
unicode = 00C1;
},
{
glyphname = Abreve;
lastChange = "2015-10-26 01:20:27 +0000";
layers = (
{
layerId = "F5311820-4606-4FC3-8850-6A1C02DF84E8";
name = "Light Italic";
paths = (
{
closed = 1;
nodes = (
"149 0 LINE",
"150 6 LINE",
"134 13 OFFCURVE",
"111 17 OFFCURVE",
"72 21 CURVE",
"415 647 LINE",
"502 21 LINE",
"461 17 OFFCURVE",
"436 13 OFFCURVE",
"419 6 CURVE",
"418 0 LINE",
"597 0 LINE",
"598 6 LINE",
"578 15 OFFCURVE",
"553 20 OFFCURVE",
"527 23 CURVE",
"433 704 LINE",
"420 704 LINE",
"47 23 LINE",
"21 20 OFFCURVE",
"-6 15 OFFCURVE",
"-30 6 CURVE",
"-31 0 LINE"
);
},
{
closed = 1;
nodes = (
"487 186 LINE",
"492 208 LINE",
"157 208 LINE",
"153 186 LINE"
);
},
{
closed = 1;
nodes = (
"507 771 OFFCURVE",
"564 806 OFFCURVE",
"587 884 CURVE",
"562 884 LINE",
"537 805 OFFCURVE",
"483 793 OFFCURVE",
"444 793 CURVE SMOOTH",
"407 793 OFFCURVE",
"361 803 OFFCURVE",
"361 868 CURVE SMOOTH",
"361 873 OFFCURVE",
"361 878 OFFCURVE",
"362 884 CURVE",
"337 884 LINE",
"336 876 OFFCURVE",
"335 869 OFFCURVE",
"335 862 CURVE SMOOTH",
"335 799 OFFCURVE",
"378 771 OFFCURVE",
"439 771 CURVE SMOOTH"
);
}
);
width = 643;
}
);
leftKerningGroup = A;
note = Abreve;
rightKerningGroup = A;
unicode = 0102;
},
{
glyphname = Abreveacute;
lastChange = "2015-10-26 01:20:27 +0000";
layers = (
{
layerId = "F5311820-4606-4FC3-8850-6A1C02DF84E8";
name = "Light Italic";
paths = (
{
closed = 1;
nodes = (
"149 0 LINE",
"150 6 LINE",
"134 13 OFFCURVE",
"111 17 OFFCURVE",
"72 21 CURVE",
"415 647 LINE",
"502 21 LINE",
"461 17 OFFCURVE",
"436 13 OFFCURVE",
"419 6 CURVE",
"418 0 LINE",
"597 0 LINE",
"598 6 LINE",
"578 15 OFFCURVE",
"553 20 OFFCURVE",
"527 23 CURVE",
"433 704 LINE",
"420 704 LINE",
"47 23 LINE",
"21 20 OFFCURVE",
"-6 15 OFFCURVE",
"-30 6 CURVE",
"-31 0 LINE"
);
},
{
closed = 1;
nodes = (
"487 186 LINE",
"492 208 LINE",
"157 208 LINE",
"153 186 LINE"
);
},
{
closed = 1;
nodes = (
"511 781 OFFCURVE",
"567 811 OFFCURVE",
"586 874 CURVE",
"561 874 LINE",
"540 815 OFFCURVE",
"486 803 OFFCURVE",
"446 803 CURVE SMOOTH",
"407 803 OFFCURVE",
"358 815 OFFCURVE",
"361 874 CURVE",
"336 874 LINE",
"336 870 OFFCURVE",
"335 866 OFFCURVE",
"335 862 CURVE SMOOTH",
"335 807 OFFCURVE",
"379 781 OFFCURVE",
"443 781 CURVE SMOOTH"
);
},
{
closed = 1;
nodes = (
"574 956 LINE SMOOTH",
"588 963 OFFCURVE",
"594 974 OFFCURVE",
"594 982 CURVE SMOOTH",
"594 989 OFFCURVE",
"589 993 OFFCURVE",
"584 993 CURVE SMOOTH",
"574 993 OFFCURVE",
"564 988 OFFCURVE",
"556 981 CURVE",
"436 894 LINE",
"440 884 LINE"
);
}
);
width = 643;
}
);
leftKerningGroup = A;
note = Abreveacute;
rightKerningGroup = A;
unicode = 1EAE;
},
{
glyphname = Abrevedotbelow;
lastChange = "2015-10-26 01:20:27 +0000";
layers = (
{
layerId = "F5311820-4606-4FC3-8850-6A1C02DF84E8";
name = "Light Italic";
paths = (
{
closed = 1;
nodes = (
"149 0 LINE",
"150 6 LINE",
"134 13 OFFCURVE",
"111 17 OFFCURVE",
"72 21 CURVE",
"415 647 LINE",
"502 21 LINE",
"461 17 OFFCURVE",
"436 13 OFFCURVE",
"419 6 CURVE",
"418 0 LINE",
"597 0 LINE",
"598 6 LINE",
"578 15 OFFCURVE",
"553 20 OFFCURVE",
"527 23 CURVE",
"433 704 LINE",
"420 704 LINE",
"47 23 LINE",
"21 20 OFFCURVE",
"-6 15 OFFCURVE",
"-30 6 CURVE",
"-31 0 LINE"
);
},
{
closed = 1;
nodes = (
"274 -124 OFFCURVE",
"287 -113 OFFCURVE",
"292 -94 CURVE",
"293 -91 OFFCURVE",
"293 -88 OFFCURVE",
"293 -86 CURVE SMOOTH",
"293 -72 OFFCURVE",
"284 -64 OFFCURVE",
"271 -64 CURVE SMOOTH",
"255 -64 OFFCURVE",
"242 -75 OFFCURVE",
"238 -94 CURVE",
"237 -97 OFFCURVE",
"237 -100 OFFCURVE",
"237 -103 CURVE SMOOTH",
"237 -117 OFFCURVE",
"246 -124 OFFCURVE",
"258 -124 CURVE SMOOTH"
);
},
{
closed = 1;
nodes = (
"487 186 LINE",
"492 208 LINE",
"157 208 LINE",
"153 186 LINE"
);
},
{
closed = 1;
nodes = (
"507 771 OFFCURVE",
"564 806 OFFCURVE",
"587 884 CURVE",
"562 884 LINE",
"537 805 OFFCURVE",
"483 793 OFFCURVE",
"444 793 CURVE SMOOTH",
"407 793 OFFCURVE",
"361 803 OFFCURVE",
"361 868 CURVE SMOOTH",
"361 873 OFFCURVE",
"361 878 OFFCURVE",
"362 884 CURVE",
"337 884 LINE",
"336 876 OFFCURVE",
"335 869 OFFCURVE",
"335 862 CURVE SMOOTH",
"335 799 OFFCURVE",
"378 771 OFFCURVE",
"439 771 CURVE SMOOTH"
);
}
);
width = 643;
}
);
leftKerningGroup = A;
note = Abrevedotbelow;
rightKerningGroup = A;
unicode = 1EB6;
},
{
glyphname = Abrevegrave;
lastChange = "2015-10-26 01:20:27 +0000";
layers = (
{
layerId = "F5311820-4606-4FC3-8850-6A1C02DF84E8";
name = "Light Italic";
paths = (
{
closed = 1;
nodes = (
"149 0 LINE",
"150 6 LINE",
"134 13 OFFCURVE",
"111 17 OFFCURVE",
"72 21 CURVE",
"415 647 LINE",
"502 21 LINE",
"461 17 OFFCURVE",
"436 13 OFFCURVE",
"419 6 CURVE",
"418 0 LINE",
"597 0 LINE",
"598 6 LINE",
"578 15 OFFCURVE",
"553 20 OFFCURVE",
"527 23 CURVE",
"433 704 LINE",
"420 704 LINE",
"47 23 LINE",
"21 20 OFFCURVE",
"-6 15 OFFCURVE",
"-30 6 CURVE",
"-31 0 LINE"
);
},
{
closed = 1;
nodes = (
"487 186 LINE",
"492 208 LINE",
"157 208 LINE",
"153 186 LINE"
);
},
{
closed = 1;
nodes = (
"512 781 OFFCURVE",
"568 811 OFFCURVE",
"587 874 CURVE",
"562 874 LINE",
"541 815 OFFCURVE",
"487 803 OFFCURVE",
"447 803 CURVE SMOOTH",
"408 803 OFFCURVE",
"359 815 OFFCURVE",
"362 874 CURVE",
"337 874 LINE",
"337 870 OFFCURVE",
"336 866 OFFCURVE",
"336 862 CURVE SMOOTH",
"336 807 OFFCURVE",
"380 781 OFFCURVE",
"444 781 CURVE SMOOTH"
);
},
{
closed = 1;
nodes = (
"482 894 LINE",
"396 981 LINE",
"392 988 OFFCURVE",
"384 993 OFFCURVE",
"374 993 CURVE SMOOTH",
"367 993 OFFCURVE",
"357 986 OFFCURVE",
"357 974 CURVE SMOOTH",
"357 968 OFFCURVE",
"361 961 OFFCURVE",
"369 956 CURVE",
"472 884 LINE"
);
}
);
width = 643;
}
);
leftKerningGroup = A;
note = Abrevegrave;
rightKerningGroup = A;
unicode = 1EB0;
},
{
glyphname = Abrevehookabove;
lastChange = "2015-10-26 01:20:27 +0000";
layers = (
{
layerId = "F5311820-4606-4FC3-8850-6A1C02DF84E8";
name = "Light Italic";
paths = (
{
closed = 1;
nodes = (
"149 0 LINE",
"150 6 LINE",
"134 13 OFFCURVE",
"111 17 OFFCURVE",
"72 21 CURVE",
"415 647 LINE",
"502 21 LINE",
"461 17 OFFCURVE",
"436 13 OFFCURVE",
"419 6 CURVE",
"418 0 LINE",
"597 0 LINE",
"598 6 LINE",
"578 15 OFFCURVE",
"553 20 OFFCURVE",
"527 23 CURVE",
"433 704 LINE",
"420 704 LINE",
"47 23 LINE",
"21 20 OFFCURVE",
"-6 15 OFFCURVE",
"-30 6 CURVE",
"-31 0 LINE"
);
},
{
closed = 1;
nodes = (
"487 186 LINE",
"492 208 LINE",
"157 208 LINE",
"153 186 LINE"
);
},
{
closed = 1;
nodes = (
"511 781 OFFCURVE",
"567 811 OFFCURVE",
"586 874 CURVE",
"561 874 LINE",
"540 815 OFFCURVE",
"486 803 OFFCURVE",
"446 803 CURVE SMOOTH",
"407 803 OFFCURVE",
"358 815 OFFCURVE",
"361 874 CURVE",
"336 874 LINE",
"336 870 OFFCURVE",
"335 866 OFFCURVE",
"335 862 CURVE SMOOTH",
"335 807 OFFCURVE",
"379 781 OFFCURVE",
"443 781 CURVE SMOOTH"
);
},
{
closed = 1;
nodes = (
"463 860 LINE",
"482 908 LINE",
"523 913 OFFCURVE",
"544 931 OFFCURVE",
"551 964 CURVE SMOOTH",
"552 969 OFFCURVE",
"553 974 OFFCURVE",
"553 978 CURVE SMOOTH",
"553 1007 OFFCURVE",
"529 1018 OFFCURVE",
"502 1018 CURVE SMOOTH",
"482 1018 OFFCURVE",
"461 1012 OFFCURVE",
"446 1005 CURVE",
"448 988 LINE",
"465 997 OFFCURVE",
"480 1000 OFFCURVE",
"492 1000 CURVE SMOOTH",
"522 1000 OFFCURVE",
"533 986 OFFCURVE",
"529 965 CURVE",
"524 944 OFFCURVE",
"508 923 OFFCURVE",
"466 923 CURVE SMOOTH",
"457 923 LINE",
"448 860 LINE"
);
}
);
width = 643;
}
);
leftKerningGroup = A;
note = Abrevehookabove;
rightKerningGroup = A;
unicode = 1EB2;
},
{
glyphname = Abrevetilde;
lastChange = "2015-10-26 01:20:27 +0000";
layers = (
{
layerId = "F5311820-4606-4FC3-8850-6A1C02DF84E8";
name = "Light Italic";
paths = (
{
closed = 1;
nodes = (
"149 0 LINE",
"150 6 LINE",
"134 13 OFFCURVE",
"111 17 OFFCURVE",
"72 21 CURVE",
"415 647 LINE",
"502 21 LINE",
"461 17 OFFCURVE",
"436 13 OFFCURVE",
"419 6 CURVE",
"418 0 LINE",
"597 0 LINE",
"598 6 LINE",
"578 15 OFFCURVE",
"553 20 OFFCURVE",
"527 23 CURVE",
"433 704 LINE",
"420 704 LINE",
"47 23 LINE",
"21 20 OFFCURVE",
"-6 15 OFFCURVE",
"-30 6 CURVE",
"-31 0 LINE"
);
},
{
closed = 1;
nodes = (
"487 186 LINE",
"492 208 LINE",
"157 208 LINE",
"153 186 LINE"
);
},
{
closed = 1;
nodes = (
"511 781 OFFCURVE",
"567 811 OFFCURVE",
"586 874 CURVE",
"561 874 LINE",
"540 815 OFFCURVE",
"486 803 OFFCURVE",
"446 803 CURVE SMOOTH",
"407 803 OFFCURVE",
"358 815 OFFCURVE",
"361 874 CURVE",
"336 874 LINE",
"336 870 OFFCURVE",
"335 866 OFFCURVE",
"335 862 CURVE SMOOTH",
"335 807 OFFCURVE",
"379 781 OFFCURVE",
"443 781 CURVE SMOOTH"
);
},
{
closed = 1;
nodes = (
"351 937 LINE",
"369 975 OFFCURVE",
"393 999 OFFCURVE",
"422 999 CURVE SMOOTH",
"465 999 OFFCURVE",
"495 939 OFFCURVE",
"536 939 CURVE SMOOTH",
"574 939 OFFCURVE",
"606 973 OFFCURVE",
"625 1029 CURVE",
"614 1029 LINE",
"598 989 OFFCURVE",
"576 963 OFFCURVE",
"543 963 CURVE SMOOTH",
"504 963 OFFCURVE",
"470 1022 OFFCURVE",
"429 1022 CURVE SMOOTH",
"395 1022 OFFCURVE",
"361 998 OFFCURVE",
"341 937 CURVE"
);
}
);
width = 643;
}
);
leftKerningGroup = A;
note = Abrevetilde;
rightKerningGroup = A;
unicode = 1EB4;
},
{
glyphname = Acaron;
lastChange = "2015-10-25 23:53:09 +0000";
layers = (
{
layerId = "F5311820-4606-4FC3-8850-6A1C02DF84E8";
name = "Light Italic";
paths = (
{
closed = 1;
nodes = (
"149 0 LINE",
"150 6 LINE",
"134 13 OFFCURVE",
"111 17 OFFCURVE",
"72 21 CURVE",
"415 647 LINE",
"502 21 LINE",
"461 17 OFFCURVE",
"436 13 OFFCURVE",
"419 6 CURVE",
"418 0 LINE",
"597 0 LINE",
"598 6 LINE",
"578 15 OFFCURVE",
"553 20 OFFCURVE",
"527 23 CURVE",
"433 704 LINE",
"420 704 LINE",
"47 23 LINE",
"21 20 OFFCURVE",
"-6 15 OFFCURVE",
"-30 6 CURVE",
"-31 0 LINE"
);
},
{
closed = 1;
nodes = (
"487 186 LINE",
"492 208 LINE",
"157 208 LINE",
"153 186 LINE"
);
},
{
closed = 1;
nodes = (
"449 787 LINE",
"492 833 OFFCURVE",
"533 864 OFFCURVE",
"573 890 CURVE",
"564 908 LINE",
"526 884 OFFCURVE",
"487 854 OFFCURVE",
"452 819 CURVE",
"446 819 LINE",
"425 854 OFFCURVE",
"397 884 OFFCURVE",
"371 908 CURVE",
"354 890 LINE",
"383 864 OFFCURVE",
"413 833 OFFCURVE",
"436 787 CURVE"
);
}
);
width = 643;
}
);
leftKerningGroup = A;
note = Acaron;
rightKerningGroup = A;
unicode = 01CD;
},
{
glyphname = Acircumflex;
lastChange = "2015-10-25 23:53:11 +0000";
layers = (
{
layerId = "F5311820-4606-4FC3-8850-6A1C02DF84E8";
name = "Light Italic";
paths = (
{
closed = 1;
nodes = (
"149 0 LINE",
"150 6 LINE",
"134 13 OFFCURVE",
"111 17 OFFCURVE",
"72 21 CURVE",
"415 647 LINE",
"502 21 LINE",
"461 17 OFFCURVE",
"436 13 OFFCURVE",
"419 6 CURVE",
"418 0 LINE",
"597 0 LINE",
"598 6 LINE",
"578 15 OFFCURVE",
"553 20 OFFCURVE",
"527 23 CURVE",
"433 704 LINE",
"420 704 LINE",
"47 23 LINE",
"21 20 OFFCURVE",
"-6 15 OFFCURVE",
"-30 6 CURVE",
"-31 0 LINE"
);
},
{
closed = 1;
nodes = (
"487 186 LINE",
"492 208 LINE",
"157 208 LINE",
"153 186 LINE"
);
},
{
closed = 1;
nodes = (
"381 801 OFFCURVE",
"420 831 OFFCURVE",
"456 866 CURVE",
"462 866 LINE",
"482 831 OFFCURVE",
"510 801 OFFCURVE",
"538 777 CURVE",
"554 795 LINE",
"524 821 OFFCURVE",
"495 852 OFFCURVE",
"471 898 CURVE",
"458 898 LINE",
"417 852 OFFCURVE",
"374 821 OFFCURVE",
"335 795 CURVE",
"344 777 LINE"
);
}
);
width = 643;
}
);
leftKerningGroup = A;
note = Acircumflex;
rightKerningGroup = A;
unicode = 00C2;
},
{
glyphname = Acircumflexacute;
lastChange = "2015-10-26 01:20:27 +0000";
layers = (
{
layerId = "F5311820-4606-4FC3-8850-6A1C02DF84E8";
name = "Light Italic";
paths = (
{
closed = 1;
nodes = (
"149 0 LINE",
"150 6 LINE",
"134 13 OFFCURVE",
"111 17 OFFCURVE",
"72 21 CURVE",
"415 647 LINE",
"502 21 LINE",
"461 17 OFFCURVE",
"436 13 OFFCURVE",
"419 6 CURVE",
"418 0 LINE",
"597 0 LINE",
"598 6 LINE",
"578 15 OFFCURVE",
"553 20 OFFCURVE",
"527 23 CURVE",
"433 704 LINE",
"420 704 LINE",
"47 23 LINE",
"21 20 OFFCURVE",
"-6 15 OFFCURVE",
"-30 6 CURVE",
"-31 0 LINE"
);
},
{
closed = 1;
nodes = (
"487 186 LINE",
"492 208 LINE",
"157 208 LINE",
"153 186 LINE"
);
},
{
closed = 1;
nodes = (
"382 801 OFFCURVE",
"421 831 OFFCURVE",
"457 866 CURVE",
"463 866 LINE",
"483 831 OFFCURVE",
"511 801 OFFCURVE",
"539 777 CURVE",
"555 795 LINE",
"525 821 OFFCURVE",
"496 852 OFFCURVE",
"472 898 CURVE",
"459 898 LINE",
"418 852 OFFCURVE",
"375 821 OFFCURVE",
"336 795 CURVE",
"345 777 LINE"
);
},
{
closed = 1;
nodes = (
"687 951 LINE SMOOTH",
"700 958 OFFCURVE",
"708 968 OFFCURVE",
"708 976 CURVE SMOOTH",
"708 984 OFFCURVE",
"703 988 OFFCURVE",
"697 988 CURVE SMOOTH",
"687 988 OFFCURVE",
"678 983 OFFCURVE",
"669 976 CURVE",
"550 889 LINE",
"554 879 LINE"
);
}
);
width = 643;
}
);
leftKerningGroup = A;
note = Acircumflexacute;
rightKerningGroup = A;
unicode = 1EA4;
},
{
glyphname = Acircumflexdotbelow;
lastChange = "2015-10-26 01:20:27 +0000";
layers = (
{
layerId = "F5311820-4606-4FC3-8850-6A1C02DF84E8";
name = "Light Italic";
paths = (
{
closed = 1;
nodes = (
"149 0 LINE",
"150 6 LINE",
"134 13 OFFCURVE",
"111 17 OFFCURVE",
"72 21 CURVE",
"415 647 LINE",
"502 21 LINE",
"461 17 OFFCURVE",
"436 13 OFFCURVE",
"419 6 CURVE",
"418 0 LINE",
"597 0 LINE",
"598 6 LINE",
"578 15 OFFCURVE",
"553 20 OFFCURVE",
"527 23 CURVE",
"433 704 LINE",
"420 704 LINE",
"47 23 LINE",
"21 20 OFFCURVE",
"-6 15 OFFCURVE",
"-30 6 CURVE",
"-31 0 LINE"
);
},
{
closed = 1;
nodes = (
"273 -124 OFFCURVE",
"286 -113 OFFCURVE",
"291 -94 CURVE",
"292 -91 OFFCURVE",
"292 -88 OFFCURVE",
"292 -86 CURVE SMOOTH",
"292 -72 OFFCURVE",
"283 -64 OFFCURVE",
"270 -64 CURVE SMOOTH",
"254 -64 OFFCURVE",
"241 -75 OFFCURVE",
"237 -94 CURVE",
"236 -97 OFFCURVE",
"236 -100 OFFCURVE",
"236 -103 CURVE SMOOTH",
"236 -117 OFFCURVE",
"245 -124 OFFCURVE",
"257 -124 CURVE SMOOTH"
);
},
{
closed = 1;
nodes = (
"487 186 LINE",
"492 208 LINE",
"157 208 LINE",
"153 186 LINE"
);
},
{
closed = 1;
nodes = (
"381 801 OFFCURVE",
"420 831 OFFCURVE",
"456 866 CURVE",
"462 866 LINE",
"482 831 OFFCURVE",
"510 801 OFFCURVE",
"538 777 CURVE",
"554 795 LINE",
"524 821 OFFCURVE",
"495 852 OFFCURVE",
"471 898 CURVE",
"458 898 LINE",
"417 852 OFFCURVE",
"374 821 OFFCURVE",
"335 795 CURVE",
"344 777 LINE"
);
}
);
width = 643;
}
);
leftKerningGroup = A;
note = Acircumflexdotbelow;
rightKerningGroup = A;
unicode = 1EAC;
},
{
glyphname = Acircumflexgrave;
lastChange = "2015-10-26 01:20:27 +0000";
layers = (
{
layerId = "F5311820-4606-4FC3-8850-6A1C02DF84E8";
name = "Light Italic";
paths = (
{
closed = 1;
nodes = (
"149 0 LINE",
"150 6 LINE",
"134 13 OFFCURVE",
"111 17 OFFCURVE",
"72 21 CURVE",
"415 647 LINE",
"502 21 LINE",
"461 17 OFFCURVE",
"436 13 OFFCURVE",
"419 6 CURVE",
"418 0 LINE",
"597 0 LINE",
"598 6 LINE",
"578 15 OFFCURVE",
"553 20 OFFCURVE",
"527 23 CURVE",
"433 704 LINE",
"420 704 LINE",
"47 23 LINE",
"21 20 OFFCURVE",
"-6 15 OFFCURVE",
"-30 6 CURVE",
"-31 0 LINE"
);
},
{
closed = 1;
nodes = (
"487 186 LINE",
"492 208 LINE",
"157 208 LINE",
"153 186 LINE"
);
},
{
closed = 1;
nodes = (
"391 889 LINE",
"305 976 LINE",
"300 983 OFFCURVE",
"293 988 OFFCURVE",
"283 988 CURVE SMOOTH",
"275 988 OFFCURVE",
"266 981 OFFCURVE",
"266 969 CURVE SMOOTH",
"266 963 OFFCURVE",
"270 956 OFFCURVE",
"277 951 CURVE",
"381 879 LINE"
);
},
{
closed = 1;
nodes = (
"382 801 OFFCURVE",
"421 831 OFFCURVE",
"457 866 CURVE",
"463 866 LINE",
"483 831 OFFCURVE",
"511 801 OFFCURVE",
"539 777 CURVE",
"555 795 LINE",
"525 821 OFFCURVE",
"496 852 OFFCURVE",
"472 898 CURVE",
"459 898 LINE",
"418 852 OFFCURVE",
"375 821 OFFCURVE",
"336 795 CURVE",
"345 777 LINE"
);
}
);
width = 643;
}
);
leftKerningGroup = A;
note = Acircumflexgrave;
rightKerningGroup = A;
unicode = 1EA6;
},
{
glyphname = Acircumflexhookabove;
lastChange = "2015-10-26 01:20:27 +0000";
layers = (
{
layerId = "F5311820-4606-4FC3-8850-6A1C02DF84E8";
name = "Light Italic";
paths = (
{
closed = 1;
nodes = (
"149 0 LINE",
"150 6 LINE",
"134 13 OFFCURVE",
"111 17 OFFCURVE",
"72 21 CURVE",
"415 647 LINE",
"502 21 LINE",
"461 17 OFFCURVE",
"436 13 OFFCURVE",
"419 6 CURVE",
"418 0 LINE",
"597 0 LINE",
"598 6 LINE",
"578 15 OFFCURVE",
"553 20 OFFCURVE",
"527 23 CURVE",
"433 704 LINE",
"420 704 LINE",
"47 23 LINE",
"21 20 OFFCURVE",
"-6 15 OFFCURVE",
"-30 6 CURVE",
"-31 0 LINE"
);
},
{
closed = 1;
nodes = (
"487 186 LINE",
"492 208 LINE",
"157 208 LINE",
"153 186 LINE"
);
},
{
closed = 1;
nodes = (
"382 801 OFFCURVE",
"421 831 OFFCURVE",
"457 866 CURVE",
"463 866 LINE",
"483 831 OFFCURVE",
"511 801 OFFCURVE",
"539 777 CURVE",
"555 795 LINE",
"525 821 OFFCURVE",
"496 852 OFFCURVE",
"472 898 CURVE",
"459 898 LINE",
"418 852 OFFCURVE",
"375 821 OFFCURVE",
"336 795 CURVE",
"345 777 LINE"
);
},
{
closed = 1;
nodes = (
"560 855 LINE",
"578 903 LINE",
"619 908 OFFCURVE",
"640 926 OFFCURVE",
"647 959 CURVE SMOOTH",
"648 964 OFFCURVE",
"649 969 OFFCURVE",
"649 973 CURVE SMOOTH",
"649 1002 OFFCURVE",
"625 1013 OFFCURVE",
"598 1013 CURVE SMOOTH",
"578 1013 OFFCURVE",
"558 1007 OFFCURVE",
"543 1000 CURVE",
"545 983 LINE",
"562 992 OFFCURVE",
"576 995 OFFCURVE",
"588 995 CURVE SMOOTH",
"618 995 OFFCURVE",
"629 981 OFFCURVE",
"625 960 CURVE",
"620 939 OFFCURVE",
"604 918 OFFCURVE",
"563 918 CURVE SMOOTH",
"554 918 LINE",
"545 855 LINE"
);
}
);
width = 643;
}
);
leftKerningGroup = A;
note = Acircumflexhookabove;
rightKerningGroup = A;
unicode = 1EA8;
},
{
glyphname = Acircumflextilde;
lastChange = "2015-10-25 23:53:10 +0000";
layers = (
{
layerId = "F5311820-4606-4FC3-8850-6A1C02DF84E8";
name = "Light Italic";
paths = (
{
closed = 1;
nodes = (
"149 0 LINE",
"150 6 LINE",
"134 13 OFFCURVE",
"111 17 OFFCURVE",
"72 21 CURVE",
"415 647 LINE",
"502 21 LINE",
"461 17 OFFCURVE",
"436 13 OFFCURVE",
"419 6 CURVE",
"418 0 LINE",
"597 0 LINE",
"598 6 LINE",
"578 15 OFFCURVE",
"553 20 OFFCURVE",
"527 23 CURVE",
"433 704 LINE",
"420 704 LINE",
"47 23 LINE",
"21 20 OFFCURVE",
"-6 15 OFFCURVE",
"-30 6 CURVE",
"-31 0 LINE"
);
},
{
closed = 1;
nodes = (
"487 186 LINE",
"492 208 LINE",
"157 208 LINE",
"153 186 LINE"
);
},
{
closed = 1;
nodes = (
"382 801 OFFCURVE",
"421 831 OFFCURVE",
"457 866 CURVE",
"463 866 LINE",
"483 831 OFFCURVE",
"511 801 OFFCURVE",
"539 777 CURVE",
"555 795 LINE",
"525 821 OFFCURVE",
"496 852 OFFCURVE",
"472 898 CURVE",
"459 898 LINE",
"418 852 OFFCURVE",
"375 821 OFFCURVE",
"336 795 CURVE",
"345 777 LINE"
);
},
{
closed = 1;
nodes = (
"354 932 LINE",
"372 970 OFFCURVE",
"396 994 OFFCURVE",
"425 994 CURVE SMOOTH",
"468 994 OFFCURVE",
"498 934 OFFCURVE",
"539 934 CURVE SMOOTH",
"576 934 OFFCURVE",
"608 968 OFFCURVE",
"628 1024 CURVE",
"617 1024 LINE",
"600 984 OFFCURVE",
"578 958 OFFCURVE",
"546 958 CURVE SMOOTH",
"507 958 OFFCURVE",
"473 1017 OFFCURVE",
"432 1017 CURVE SMOOTH",
"397 1017 OFFCURVE",
"364 993 OFFCURVE",
"344 932 CURVE"
);
}
);
width = 643;
}
);
leftKerningGroup = A;
note = Acircumflextilde;
rightKerningGroup = A;
unicode = 1EAA;
},
{
glyphname = Adieresis;
lastChange = "2015-10-26 01:20:27 +0000";
layers = (
{
layerId = "F5311820-4606-4FC3-8850-6A1C02DF84E8";
name = "Light Italic";
paths = (
{
closed = 1;
nodes = (
"149 0 LINE",
"150 6 LINE",
"134 13 OFFCURVE",
"111 17 OFFCURVE",
"72 21 CURVE",
"415 647 LINE",
"502 21 LINE",
"461 17 OFFCURVE",
"436 13 OFFCURVE",
"419 6 CURVE",
"418 0 LINE",
"597 0 LINE",
"598 6 LINE",
"578 15 OFFCURVE",
"553 20 OFFCURVE",
"527 23 CURVE",
"433 704 LINE",
"420 704 LINE",
"47 23 LINE",
"21 20 OFFCURVE",
"-6 15 OFFCURVE",
"-30 6 CURVE",
"-31 0 LINE"
);
},
{
closed = 1;
nodes = (
"487 186 LINE",
"492 208 LINE",
"157 208 LINE",
"153 186 LINE"
);
},
{
closed = 1;
nodes = (
"363 785 OFFCURVE",
"380 799 OFFCURVE",
"380 823 CURVE SMOOTH",
"380 837 OFFCURVE",
"371 845 OFFCURVE",
"358 845 CURVE SMOOTH",
"343 845 OFFCURVE",
"329 834 OFFCURVE",
"325 815 CURVE",
"323 796 OFFCURVE",
"330 785 OFFCURVE",
"346 785 CURVE SMOOTH"
);
},
{
closed = 1;
nodes = (
"555 785 OFFCURVE",
"572 799 OFFCURVE",
"572 823 CURVE SMOOTH",
"572 837 OFFCURVE",
"563 845 OFFCURVE",
"550 845 CURVE SMOOTH",
"533 845 OFFCURVE",
"516 831 OFFCURVE",
"516 808 CURVE SMOOTH",
"516 793 OFFCURVE",
"524 785 OFFCURVE",
"538 785 CURVE SMOOTH"
);
}
);
width = 643;
}
);
leftKerningGroup = A;
note = Adieresis;
rightKerningGroup = A;
unicode = 00C4;
},
{
glyphname = Adotbelow;
lastChange = "2015-10-26 01:20:27 +0000";
layers = (
{
layerId = "F5311820-4606-4FC3-8850-6A1C02DF84E8";
name = "Light Italic";
paths = (
{
closed = 1;
nodes = (
"149 0 LINE",
"150 6 LINE",
"134 13 OFFCURVE",
"111 17 OFFCURVE",
"72 21 CURVE",
"415 647 LINE",
"502 21 LINE",
"461 17 OFFCURVE",
"436 13 OFFCURVE",
"419 6 CURVE",
"418 0 LINE",
"597 0 LINE",
"598 6 LINE",
"578 15 OFFCURVE",
"553 20 OFFCURVE",
"527 23 CURVE",
"433 704 LINE",
"420 704 LINE",
"47 23 LINE",
"21 20 OFFCURVE",
"-6 15 OFFCURVE",
"-30 6 CURVE",
"-31 0 LINE"
);
},
{
closed = 1;
nodes = (
"274 -124 OFFCURVE",
"287 -113 OFFCURVE",
"292 -94 CURVE",
"293 -91 OFFCURVE",
"293 -88 OFFCURVE",
"293 -86 CURVE SMOOTH",
"293 -72 OFFCURVE",
"284 -64 OFFCURVE",
"271 -64 CURVE SMOOTH",
"255 -64 OFFCURVE",
"242 -75 OFFCURVE",
"238 -94 CURVE",
"237 -97 OFFCURVE",
"237 -100 OFFCURVE",
"237 -103 CURVE SMOOTH",
"237 -117 OFFCURVE",
"246 -124 OFFCURVE",
"258 -124 CURVE SMOOTH"
);
},
{
closed = 1;
nodes = (
"487 186 LINE",
"492 208 LINE",
"157 208 LINE",
"153 186 LINE"
);
}
);
width = 643;
}
);
leftKerningGroup = A;
note = Adotbelow;
rightKerningGroup = A;
unicode = 1EA0;
},
{
glyphname = Agrave;
lastChange = "2015-10-26 01:20:27 +0000";
layers = (
{
layerId = "F5311820-4606-4FC3-8850-6A1C02DF84E8";
name = "Light Italic";
paths = (
{
closed = 1;
nodes = (
"149 0 LINE",
"150 6 LINE",
"134 13 OFFCURVE",
"111 17 OFFCURVE",
"72 21 CURVE",
"415 647 LINE",
"502 21 LINE",
"461 17 OFFCURVE",
"436 13 OFFCURVE",
"419 6 CURVE",
"418 0 LINE",
"597 0 LINE",
"598 6 LINE",
"578 15 OFFCURVE",
"553 20 OFFCURVE",
"527 23 CURVE",
"433 704 LINE",
"420 704 LINE",
"47 23 LINE",
"21 20 OFFCURVE",
"-6 15 OFFCURVE",
"-30 6 CURVE",
"-31 0 LINE"
);
},
{
closed = 1;
nodes = (
"487 186 LINE",
"492 208 LINE",
"157 208 LINE",
"153 186 LINE"
);
},
{
closed = 1;
nodes = (
"466 797 LINE",
"380 884 LINE",
"375 891 OFFCURVE",
"368 896 OFFCURVE",
"358 896 CURVE SMOOTH",
"350 896 OFFCURVE",
"341 889 OFFCURVE",
"341 877 CURVE SMOOTH",
"341 871 OFFCURVE",
"345 864 OFFCURVE",
"352 859 CURVE",
"457 787 LINE"
);
}
);
width = 643;
}
);
leftKerningGroup = A;
note = Agrave;
rightKerningGroup = A;
unicode = 00C0;
},
{
glyphname = Ahookabove;
lastChange = "2015-10-26 01:20:27 +0000";
layers = (
{
layerId = "F5311820-4606-4FC3-8850-6A1C02DF84E8";
name = "Light Italic";
paths = (
{
closed = 1;
nodes = (
"149 0 LINE",
"150 6 LINE",
"134 13 OFFCURVE",
"111 17 OFFCURVE",
"72 21 CURVE",
"415 647 LINE",
"502 21 LINE",
"461 17 OFFCURVE",
"436 13 OFFCURVE",
"419 6 CURVE",
"418 0 LINE",
"597 0 LINE",
"598 6 LINE",
"578 15 OFFCURVE",
"553 20 OFFCURVE",
"527 23 CURVE",
"433 704 LINE",
"420 704 LINE",
"47 23 LINE",
"21 20 OFFCURVE",
"-6 15 OFFCURVE",
"-30 6 CURVE",
"-31 0 LINE"
);
},
{
closed = 1;
nodes = (
"487 186 LINE",
"492 208 LINE",
"157 208 LINE",
"153 186 LINE"
);
},
{
closed = 1;
nodes = (
"450 777 LINE",
"472 836 LINE",
"521 841 OFFCURVE",
"548 868 OFFCURVE",
"556 903 CURVE SMOOTH",
"557 908 OFFCURVE",
"557 913 OFFCURVE",
"557 917 CURVE SMOOTH",
"557 952 OFFCURVE",
"531 969 OFFCURVE",
"497 969 CURVE SMOOTH",
"471 969 OFFCURVE",
"445 961 OFFCURVE",
"428 953 CURVE",
"431 932 LINE",
"451 943 OFFCURVE",
"471 948 OFFCURVE",
"487 948 CURVE SMOOTH",
"517 948 OFFCURVE",
"532 934 OFFCURVE",
"532 914 CURVE SMOOTH",
"532 887 OFFCURVE",
"512 853 OFFCURVE",
"456 853 CURVE SMOOTH",
"445 853 LINE",
"435 777 LINE"
);
}
);
width = 643;
}
);
leftKerningGroup = A;
note = Ahookabove;
rightKerningGroup = A;
unicode = 1EA2;
},
{
glyphname = Amacron;
lastChange = "2015-10-25 23:53:09 +0000";
layers = (
{
layerId = "F5311820-4606-4FC3-8850-6A1C02DF84E8";
name = "Light Italic";
paths = (
{
closed = 1;
nodes = (
"149 0 LINE",
"150 6 LINE",
"134 13 OFFCURVE",
"111 17 OFFCURVE",
"72 21 CURVE",
"415 647 LINE",
"502 21 LINE",
"461 17 OFFCURVE",
"436 13 OFFCURVE",
"419 6 CURVE",
"418 0 LINE",
"597 0 LINE",
"598 6 LINE",
"578 15 OFFCURVE",
"553 20 OFFCURVE",
"527 23 CURVE",
"433 704 LINE",
"420 704 LINE",
"47 23 LINE",
"21 20 OFFCURVE",
"-6 15 OFFCURVE",
"-30 6 CURVE",
"-31 0 LINE"
);
},
{
closed = 1;
nodes = (
"487 186 LINE",
"492 208 LINE",
"157 208 LINE",
"153 186 LINE"
);
},
{
closed = 1;
nodes = (
"575 785 LINE",
"580 807 LINE",
"316 807 LINE",
"311 785 LINE"
);
}
);
width = 643;
}
);
leftKerningGroup = A;
note = Amacron;
rightKerningGroup = A;
unicode = 0100;
},
{
glyphname = Aogonek;
lastChange = "2015-10-26 01:20:27 +0000";
layers = (
{
layerId = "F5311820-4606-4FC3-8850-6A1C02DF84E8";
name = "Light Italic";
paths = (
{
closed = 1;
nodes = (
"149 0 LINE",
"150 6 LINE",
"134 13 OFFCURVE",
"111 17 OFFCURVE",
"72 21 CURVE",
"415 647 LINE",
"502 21 LINE",
"461 17 OFFCURVE",
"436 13 OFFCURVE",
"419 6 CURVE",
"418 0 LINE",
"597 0 LINE",
"598 6 LINE",
"578 15 OFFCURVE",
"553 20 OFFCURVE",
"527 23 CURVE",
"433 704 LINE",
"420 704 LINE",
"47 23 LINE",
"21 20 OFFCURVE",
"-6 15 OFFCURVE",
"-30 6 CURVE",
"-31 0 LINE"
);
},
{
closed = 1;
nodes = (
"558 -168 OFFCURVE",
"571 -165 OFFCURVE",
"593 -159 CURVE",
"597 -141 LINE",
"584 -145 OFFCURVE",
"569 -147 OFFCURVE",
"556 -147 CURVE SMOOTH",
"529 -147 OFFCURVE",
"506 -138 OFFCURVE",
"506 -110 CURVE SMOOTH",
"506 -66 OFFCURVE",
"548 -22 OFFCURVE",
"597 0 CURVE",
"572 0 LINE",
"526 -20 OFFCURVE",
"492 -54 OFFCURVE",
"484 -98 CURVE SMOOTH",
"483 -103 OFFCURVE",
"482 -108 OFFCURVE",
"482 -113 CURVE SMOOTH",
"482 -140 OFFCURVE",
"498 -168 OFFCURVE",
"540 -168 CURVE SMOOTH"
);
},
{
closed = 1;
nodes = (
"487 186 LINE",
"492 208 LINE",
"157 208 LINE",
"153 186 LINE"
);
}
);
width = 643;
}
);
leftKerningGroup = A;
note = Aogonek;
rightKerningGroup = A;
unicode = 0104;
},
{
glyphname = Aring;
lastChange = "2015-10-26 01:20:27 +0000";
layers = (
{
layerId = "F5311820-4606-4FC3-8850-6A1C02DF84E8";
name = "Light Italic";
paths = (
{
closed = 1;
nodes = (
"149 0 LINE",
"150 6 LINE",
"134 13 OFFCURVE",
"111 17 OFFCURVE",
"72 21 CURVE",
"415 647 LINE",
"502 21 LINE",
"461 17 OFFCURVE",
"436 13 OFFCURVE",
"419 6 CURVE",
"418 0 LINE",
"597 0 LINE",
"598 6 LINE",
"578 15 OFFCURVE",
"553 20 OFFCURVE",
"527 23 CURVE",
"433 704 LINE",
"420 704 LINE",
"47 23 LINE",
"21 20 OFFCURVE",
"-6 15 OFFCURVE",
"-30 6 CURVE",
"-31 0 LINE"
);
},
{
closed = 1;
nodes = (
"487 186 LINE",
"492 208 LINE",
"157 208 LINE",
"153 186 LINE"
);
},
{
closed = 1;
nodes = (
"479 734 OFFCURVE",
"523 772 OFFCURVE",
"523 825 CURVE SMOOTH",
"523 859 OFFCURVE",
"498 882 OFFCURVE",
"462 882 CURVE SMOOTH",
"415 882 OFFCURVE",
"371 844 OFFCURVE",
"371 791 CURVE SMOOTH",
"371 757 OFFCURVE",
"396 734 OFFCURVE",
"432 734 CURVE SMOOTH"
);
},
{
closed = 1;
nodes = (
"409 753 OFFCURVE",
"392 768 OFFCURVE",
"392 793 CURVE SMOOTH",
"392 836 OFFCURVE",
"421 863 OFFCURVE",
"458 863 CURVE SMOOTH",
"485 863 OFFCURVE",
"503 848 OFFCURVE",
"503 822 CURVE SMOOTH",
"503 818 OFFCURVE",
"502 813 OFFCURVE",
"501 808 CURVE SMOOTH",
"493 774 OFFCURVE",
"468 753 OFFCURVE",
"436 753 CURVE SMOOTH"
);
}
);
width = 643;
}
);
leftKerningGroup = A;
note = Aring;
rightKerningGroup = A;
unicode = 00C5;
},
{
glyphname = Aringacute;
lastChange = "2015-10-26 01:20:27 +0000";
layers = (
{
layerId = "F5311820-4606-4FC3-8850-6A1C02DF84E8";
name = "Light Italic";
paths = (
{
closed = 1;
nodes = (
"149 0 LINE",
"150 6 LINE",
"134 13 OFFCURVE",
"111 17 OFFCURVE",
"72 21 CURVE",
"415 647 LINE",
"502 21 LINE",
"461 17 OFFCURVE",
"436 13 OFFCURVE",
"419 6 CURVE",
"418 0 LINE",
"597 0 LINE",
"598 6 LINE",
"578 15 OFFCURVE",
"553 20 OFFCURVE",
"527 23 CURVE",
"433 704 LINE",
"420 704 LINE",
"47 23 LINE",
"21 20 OFFCURVE",
"-6 15 OFFCURVE",
"-30 6 CURVE",
"-31 0 LINE"
);
},
{
closed = 1;
nodes = (
"487 186 LINE",
"492 208 LINE",
"157 208 LINE",
"153 186 LINE"
);
},
{
closed = 1;
nodes = (
"478 730 OFFCURVE",
"522 768 OFFCURVE",
"522 821 CURVE SMOOTH",
"522 855 OFFCURVE",
"497 878 OFFCURVE",
"461 878 CURVE SMOOTH",
"414 878 OFFCURVE",
"370 840 OFFCURVE",
"370 787 CURVE SMOOTH",
"370 753 OFFCURVE",
"395 730 OFFCURVE",
"431 730 CURVE SMOOTH"
);
},
{
closed = 1;
nodes = (
"408 749 OFFCURVE",
"391 764 OFFCURVE",
"391 789 CURVE SMOOTH",
"391 832 OFFCURVE",
"420 859 OFFCURVE",
"457 859 CURVE SMOOTH",
"484 859 OFFCURVE",
"502 844 OFFCURVE",
"502 818 CURVE SMOOTH",
"502 814 OFFCURVE",
"501 809 OFFCURVE",
"500 804 CURVE SMOOTH",
"492 770 OFFCURVE",
"467 749 OFFCURVE",
"435 749 CURVE SMOOTH"
);
},
{
closed = 1;
nodes = (
"595 981 LINE SMOOTH",
"609 988 OFFCURVE",
"615 999 OFFCURVE",
"615 1008 CURVE SMOOTH",
"615 1014 OFFCURVE",
"611 1018 OFFCURVE",
"605 1018 CURVE SMOOTH",
"595 1018 OFFCURVE",
"586 1013 OFFCURVE",
"577 1006 CURVE",
"457 919 LINE",
"462 909 LINE"
);
}
);
width = 643;
}
);
leftKerningGroup = A;
note = Aringacute;
rightKerningGroup = A;
unicode = 01FA;
},
{
glyphname = Atilde;
lastChange = "2015-10-25 23:53:09 +0000";
layers = (
{
layerId = "F5311820-4606-4FC3-8850-6A1C02DF84E8";
name = "Light Italic";
paths = (
{
closed = 1;
nodes = (
"149 0 LINE",
"150 6 LINE",
"134 13 OFFCURVE",
"111 17 OFFCURVE",
"72 21 CURVE",
"415 647 LINE",
"502 21 LINE",
"461 17 OFFCURVE",
"436 13 OFFCURVE",
"419 6 CURVE",
"418 0 LINE",
"597 0 LINE",
"598 6 LINE",
"578 15 OFFCURVE",
"553 20 OFFCURVE",
"527 23 CURVE",
"433 704 LINE",
"420 704 LINE",
"47 23 LINE",
"21 20 OFFCURVE",
"-6 15 OFFCURVE",
"-30 6 CURVE",
"-31 0 LINE"
);
},
{
closed = 1;
nodes = (
"487 186 LINE",
"492 208 LINE",
"157 208 LINE",
"153 186 LINE"
);
},
{
closed = 1;
nodes = (
"321 786 LINE",
"338 824 OFFCURVE",
"362 848 OFFCURVE",
"392 848 CURVE SMOOTH",
"434 848 OFFCURVE",
"465 788 OFFCURVE",
"505 788 CURVE SMOOTH",
"543 788 OFFCURVE",
"575 822 OFFCURVE",
"595 878 CURVE",
"585 878 LINE",
"567 838 OFFCURVE",
"545 812 OFFCURVE",
"513 812 CURVE SMOOTH",
"473 812 OFFCURVE",
"440 871 OFFCURVE",
"398 871 CURVE SMOOTH",
"364 871 OFFCURVE",
"330 847 OFFCURVE",
"310 786 CURVE"
);
}
);
width = 643;
}
);
leftKerningGroup = A;
note = Atilde;
rightKerningGroup = A;
unicode = 00C3;
},
{
glyphname = AE;
lastChange = "2015-10-26 01:20:27 +0000";
layers = (
{
layerId = "F5311820-4606-4FC3-8850-6A1C02DF84E8";
name = "Light Italic";
paths = (
{
closed = 1;
nodes = (
"149 0 LINE",
"150 6 LINE",
"134 13 OFFCURVE",
"111 17 OFFCURVE",
"72 21 CURVE",
"202 186 LINE",
"505 186 LINE",
"471 21 LINE",
"429 17 OFFCURVE",
"408 12 OFFCURVE",
"391 6 CURVE",
"390 0 LINE",
"822 0 LINE",
"854 114 LINE",
"846 114 LINE",
"834 96 OFFCURVE",
"809 45 OFFCURVE",
"803 22 CURVE",
"498 22 LINE",
"565 349 LINE",
"800 349 LINE",
"799 337 OFFCURVE",
"797 317 OFFCURVE",
"797 297 CURVE SMOOTH",
"797 287 OFFCURVE",
"798 277 OFFCURVE",
"799 269 CURVE",
"806 269 LINE",
"843 451 LINE",
"835 451 LINE",
"824 430 OFFCURVE",
"809 389 OFFCURVE",
"804 371 CURVE",
"569 371 LINE",
"633 678 LINE",
"937 678 LINE",
"935 660 OFFCURVE",
"931 627 OFFCURVE",
"931 603 CURVE SMOOTH",
"931 596 OFFCURVE",
"931 590 OFFCURVE",
"932 586 CURVE",
"941 586 LINE",
"964 700 LINE",
"527 700 LINE",
"526 695 LINE",
"538 688 OFFCURVE",
"552 687 OFFCURVE",
"567 683 CURVE",
"41 23 LINE",
"15 20 OFFCURVE",
"-6 15 OFFCURVE",
"-30 6 CURVE",
"-31 0 LINE"
);
},
{
closed = 1;
nodes = (
"590 678 LINE",
"606 678 LINE",
"510 208 LINE",
"220 208 LINE"
);
}
);
width = 924;
}
);
leftKerningGroup = A;
note = AE;
unicode = 00C6;
},
{
glyphname = AEacute;
lastChange = "2015-10-26 01:20:27 +0000";
layers = (
{
layerId = "F5311820-4606-4FC3-8850-6A1C02DF84E8";
name = "Light Italic";
paths = (
{
closed = 1;
nodes = (
"149 0 LINE",
"150 6 LINE",
"134 13 OFFCURVE",
"111 17 OFFCURVE",
"72 21 CURVE",
"202 186 LINE",
"505 186 LINE",
"471 21 LINE",
"429 17 OFFCURVE",
"408 12 OFFCURVE",
"391 6 CURVE",
"390 0 LINE",
"822 0 LINE",
"854 114 LINE",
"846 114 LINE",
"834 96 OFFCURVE",
"809 45 OFFCURVE",
"803 22 CURVE",
"498 22 LINE",
"565 349 LINE",
"800 349 LINE",
"799 337 OFFCURVE",
"797 317 OFFCURVE",
"797 297 CURVE SMOOTH",
"797 287 OFFCURVE",
"798 277 OFFCURVE",
"799 269 CURVE",
"806 269 LINE",
"843 451 LINE",
"835 451 LINE",
"824 430 OFFCURVE",
"809 389 OFFCURVE",
"804 371 CURVE",
"569 371 LINE",
"633 678 LINE",
"937 678 LINE",
"935 660 OFFCURVE",
"931 627 OFFCURVE",
"931 603 CURVE SMOOTH",
"931 596 OFFCURVE",
"931 590 OFFCURVE",
"932 586 CURVE",
"941 586 LINE",
"964 700 LINE",
"527 700 LINE",
"526 695 LINE",
"538 688 OFFCURVE",
"552 687 OFFCURVE",
"567 683 CURVE",
"41 23 LINE",
"15 20 OFFCURVE",
"-6 15 OFFCURVE",
"-30 6 CURVE",
"-31 0 LINE"
);
},
{
closed = 1;
nodes = (
"590 678 LINE",
"606 678 LINE",
"510 208 LINE",
"220 208 LINE"
);
},
{
closed = 1;
nodes = (
"879 859 LINE SMOOTH",
"892 866 OFFCURVE",
"900 876 OFFCURVE",
"900 884 CURVE SMOOTH",
"900 892 OFFCURVE",
"895 896 OFFCURVE",
"889 896 CURVE SMOOTH",
"879 896 OFFCURVE",
"870 891 OFFCURVE",
"861 884 CURVE",
"741 797 LINE",
"746 787 LINE"
);
}
);
width = 924;
}
);
leftKerningGroup = A;
note = AEacute;
unicode = 01FC;
},
{
glyphname = B;
lastChange = "2015-10-25 23:53:09 +0000";
layers = (
{
layerId = "F5311820-4606-4FC3-8850-6A1C02DF84E8";
name = "Light Italic";
paths = (
{
closed = 1;
nodes = (
"276 0 LINE SMOOTH",
"415 0 OFFCURVE",
"484 67 OFFCURVE",
"509 188 CURVE SMOOTH",
"512 204 OFFCURVE",
"515 221 OFFCURVE",
"515 238 CURVE SMOOTH",
"515 300 OFFCURVE",
"487 357 OFFCURVE",
"390 370 CURVE",
"391 373 LINE",
"487 387 OFFCURVE",
"537 469 OFFCURVE",
"550 534 CURVE SMOOTH",
"554 553 OFFCURVE",
"556 570 OFFCURVE",
"556 585 CURVE SMOOTH",
"556 664 OFFCURVE",
"505 700 OFFCURVE",
"389 700 CURVE SMOOTH",
"152 700 LINE",
"151 694 LINE",
"172 686 OFFCURVE",
"199 682 OFFCURVE",
"227 678 CURVE",
"92 21 LINE",
"49 17 OFFCURVE",
"28 13 OFFCURVE",
"11 7 CURVE",
"10 0 LINE"
);
},
{
closed = 1;
nodes = (
"188 358 LINE",
"338 358 LINE SMOOTH",
"436 358 OFFCURVE",
"489 313 OFFCURVE",
"489 233 CURVE SMOOTH",
"489 219 OFFCURVE",
"487 204 OFFCURVE",
"484 188 CURVE SMOOTH",
"462 78 OFFCURVE",
"399 22 OFFCURVE",
"281 22 CURVE SMOOTH",
"119 22 LINE"
);
},
{
closed = 1;
nodes = (
"253 678 LINE",
"386 678 LINE SMOOTH",
"486 678 OFFCURVE",
"530 648 OFFCURVE",
"530 580 CURVE SMOOTH",
"530 567 OFFCURVE",
"528 552 OFFCURVE",
"525 536 CURVE SMOOTH",
"506 442 OFFCURVE",
"437 380 OFFCURVE",
"321 380 CURVE SMOOTH",
"192 380 LINE"
);
}
);
width = 545;
}
);
note = B;
unicode = 0042;
},
{
glyphname = C;
lastChange = "2015-10-25 23:53:10 +0000";
layers = (
{
layerId = "F5311820-4606-4FC3-8850-6A1C02DF84E8";
name = "Light Italic";
paths = (
{
closed = 1;
nodes = (
"363 -10 OFFCURVE",
"429 11 OFFCURVE",
"475 47 CURVE",
"473 59 LINE",
"419 29 OFFCURVE",
"348 12 OFFCURVE",
"308 12 CURVE SMOOTH",
"154 12 OFFCURVE",
"99 102 OFFCURVE",
"99 227 CURVE SMOOTH",
"99 265 OFFCURVE",
"105 307 OFFCURVE",
"113 350 CURVE SMOOTH",
"151 536 OFFCURVE",
"251 688 OFFCURVE",
"446 688 CURVE SMOOTH",
"506 688 OFFCURVE",
"552 664 OFFCURVE",
"569 645 CURVE",
"567 617 OFFCURVE",
"564 594 OFFCURVE",
"564 570 CURVE SMOOTH",
"564 563 OFFCURVE",
"564 557 OFFCURVE",
"564 553 CURVE",
"573 553 LINE",
"599 651 LINE",
"567 687 OFFCURVE",
"512 710 OFFCURVE",
"443 710 CURVE SMOOTH",
"261 710 OFFCURVE",
"132 573 OFFCURVE",
"86 350 CURVE SMOOTH",
"77 305 OFFCURVE",
"72 263 OFFCURVE",
"72 225 CURVE SMOOTH",
"72 77 OFFCURVE",
"145 -10 OFFCURVE",
"294 -10 CURVE SMOOTH"
);
}
);
width = 552;
}
);
leftKerningGroup = C;
note = C;
unicode = 0043;
},
{
glyphname = Cacute;
lastChange = "2015-10-26 01:20:27 +0000";
layers = (
{
layerId = "F5311820-4606-4FC3-8850-6A1C02DF84E8";
name = "Light Italic";
paths = (
{
closed = 1;
nodes = (
"363 -10 OFFCURVE",
"429 11 OFFCURVE",
"475 47 CURVE",
"473 59 LINE",
"419 29 OFFCURVE",
"348 12 OFFCURVE",
"308 12 CURVE SMOOTH",
"154 12 OFFCURVE",
"99 102 OFFCURVE",
"99 227 CURVE SMOOTH",
"99 265 OFFCURVE",
"105 307 OFFCURVE",
"113 350 CURVE SMOOTH",
"151 536 OFFCURVE",
"251 688 OFFCURVE",
"446 688 CURVE SMOOTH",
"506 688 OFFCURVE",
"552 664 OFFCURVE",
"569 645 CURVE",
"567 617 OFFCURVE",
"564 594 OFFCURVE",
"564 570 CURVE SMOOTH",
"564 563 OFFCURVE",
"564 557 OFFCURVE",
"564 553 CURVE",
"573 553 LINE",
"599 651 LINE",
"567 687 OFFCURVE",
"512 710 OFFCURVE",
"443 710 CURVE SMOOTH",
"261 710 OFFCURVE",
"132 573 OFFCURVE",
"86 350 CURVE SMOOTH",
"77 305 OFFCURVE",
"72 263 OFFCURVE",
"72 225 CURVE SMOOTH",
"72 77 OFFCURVE",
"145 -10 OFFCURVE",
"294 -10 CURVE SMOOTH"
);
},
{
closed = 1;
nodes = (
"530 859 LINE SMOOTH",
"543 866 OFFCURVE",
"550 877 OFFCURVE",
"550 885 CURVE SMOOTH",
"550 892 OFFCURVE",
"545 896 OFFCURVE",
"540 896 CURVE SMOOTH",
"530 896 OFFCURVE",
"520 891 OFFCURVE",
"512 884 CURVE",
"392 797 LINE",
"396 787 LINE"
);
}
);
width = 552;
}
);
leftKerningGroup = C;
note = Cacute;
unicode = 0106;
},
{
glyphname = Ccaron;
lastChange = "2015-10-25 23:53:10 +0000";
layers = (
{
layerId = "F5311820-4606-4FC3-8850-6A1C02DF84E8";
name = "Light Italic";
paths = (
{
closed = 1;
nodes = (
"363 -10 OFFCURVE",
"429 11 OFFCURVE",
"475 47 CURVE",
"473 59 LINE",
"419 29 OFFCURVE",
"348 12 OFFCURVE",
"308 12 CURVE SMOOTH",
"154 12 OFFCURVE",
"99 102 OFFCURVE",
"99 227 CURVE SMOOTH",
"99 265 OFFCURVE",
"105 307 OFFCURVE",
"113 350 CURVE SMOOTH",
"151 536 OFFCURVE",
"251 688 OFFCURVE",
"446 688 CURVE SMOOTH",
"506 688 OFFCURVE",
"552 664 OFFCURVE",
"569 645 CURVE",
"567 617 OFFCURVE",
"564 594 OFFCURVE",
"564 570 CURVE SMOOTH",
"564 563 OFFCURVE",
"564 557 OFFCURVE",
"564 553 CURVE",
"573 553 LINE",
"599 651 LINE",
"567 687 OFFCURVE",
"512 710 OFFCURVE",
"443 710 CURVE SMOOTH",
"261 710 OFFCURVE",
"132 573 OFFCURVE",
"86 350 CURVE SMOOTH",
"77 305 OFFCURVE",
"72 263 OFFCURVE",
"72 225 CURVE SMOOTH",
"72 77 OFFCURVE",
"145 -10 OFFCURVE",
"294 -10 CURVE SMOOTH"
);
},
{
closed = 1;
nodes = (
"471 787 LINE",
"514 833 OFFCURVE",
"555 864 OFFCURVE",
"595 890 CURVE",
"587 908 LINE",
"548 884 OFFCURVE",
"509 854 OFFCURVE",
"474 819 CURVE",
"468 819 LINE",
"447 854 OFFCURVE",
"420 884 OFFCURVE",
"393 908 CURVE",
"376 890 LINE",
"405 864 OFFCURVE",
"435 833 OFFCURVE",
"458 787 CURVE"
);
}
);
width = 552;
}
);
leftKerningGroup = C;
note = Ccaron;
unicode = 010C;
},
{
glyphname = Ccedilla;
lastChange = "2015-10-26 01:20:27 +0000";
layers = (
{
layerId = "F5311820-4606-4FC3-8850-6A1C02DF84E8";
name = "Light Italic";
paths = (
{
closed = 1;
nodes = (
"363 -10 OFFCURVE",
"429 11 OFFCURVE",
"475 47 CURVE",
"473 59 LINE",
"419 29 OFFCURVE",
"348 12 OFFCURVE",
"308 12 CURVE SMOOTH",
"154 12 OFFCURVE",
"99 102 OFFCURVE",
"99 227 CURVE SMOOTH",
"99 265 OFFCURVE",
"105 307 OFFCURVE",
"113 350 CURVE SMOOTH",
"151 536 OFFCURVE",
"251 688 OFFCURVE",
"446 688 CURVE SMOOTH",
"506 688 OFFCURVE",
"552 664 OFFCURVE",
"569 645 CURVE",
"567 617 OFFCURVE",
"564 594 OFFCURVE",
"564 570 CURVE SMOOTH",
"564 563 OFFCURVE",
"564 557 OFFCURVE",
"564 553 CURVE",
"573 553 LINE",
"599 651 LINE",
"567 687 OFFCURVE",
"512 710 OFFCURVE",
"443 710 CURVE SMOOTH",
"261 710 OFFCURVE",
"132 573 OFFCURVE",
"86 350 CURVE SMOOTH",
"77 305 OFFCURVE",
"72 263 OFFCURVE",
"72 225 CURVE SMOOTH",
"72 77 OFFCURVE",
"145 -10 OFFCURVE",
"294 -10 CURVE SMOOTH"
);
},
{
closed = 1;
nodes = (
"285 -186 OFFCURVE",
"329 -164 OFFCURVE",
"338 -118 CURVE SMOOTH",
"339 -114 OFFCURVE",
"339 -110 OFFCURVE",
"339 -107 CURVE SMOOTH",
"339 -79 OFFCURVE",
"313 -67 OFFCURVE",
"283 -67 CURVE SMOOTH",
"275 -67 OFFCURVE",
"267 -67 OFFCURVE",
"259 -69 CURVE",
"302 0 LINE",
"279 0 LINE",
"234 -66 LINE",
"249 -89 LINE",
"255 -88 OFFCURVE",
"264 -87 OFFCURVE",
"273 -87 CURVE SMOOTH",
"295 -87 OFFCURVE",
"319 -95 OFFCURVE",
"315 -117 CURVE",
"307 -151 OFFCURVE",
"279 -166 OFFCURVE",
"240 -166 CURVE SMOOTH",
"227 -166 OFFCURVE",
"210 -165 OFFCURVE",
"195 -162 CURVE",
"182 -180 LINE",
"199 -184 OFFCURVE",
"217 -186 OFFCURVE",
"233 -186 CURVE SMOOTH"
);
}
);
width = 552;
}
);
leftKerningGroup = C;
note = Ccedilla;
unicode = 00C7;
},
{
glyphname = Ccircumflex;
lastChange = "2015-10-25 23:53:11 +0000";
layers = (
{
layerId = "F5311820-4606-4FC3-8850-6A1C02DF84E8";
name = "Light Italic";
paths = (
{
closed = 1;
nodes = (
"363 -10 OFFCURVE",
"429 11 OFFCURVE",
"475 47 CURVE",
"473 59 LINE",
"419 29 OFFCURVE",
"348 12 OFFCURVE",
"308 12 CURVE SMOOTH",
"154 12 OFFCURVE",
"99 102 OFFCURVE",
"99 227 CURVE SMOOTH",
"99 265 OFFCURVE",
"105 307 OFFCURVE",
"113 350 CURVE SMOOTH",
"151 536 OFFCURVE",
"251 688 OFFCURVE",
"446 688 CURVE SMOOTH",
"506 688 OFFCURVE",
"552 664 OFFCURVE",
"569 645 CURVE",
"567 617 OFFCURVE",
"564 594 OFFCURVE",
"564 570 CURVE SMOOTH",
"564 563 OFFCURVE",
"564 557 OFFCURVE",
"564 553 CURVE",
"573 553 LINE",
"599 651 LINE",
"567 687 OFFCURVE",
"512 710 OFFCURVE",
"443 710 CURVE SMOOTH",
"261 710 OFFCURVE",
"132 573 OFFCURVE",
"86 350 CURVE SMOOTH",
"77 305 OFFCURVE",
"72 263 OFFCURVE",
"72 225 CURVE SMOOTH",
"72 77 OFFCURVE",
"145 -10 OFFCURVE",
"294 -10 CURVE SMOOTH"
);
},
{
closed = 1;
nodes = (
"399 801 OFFCURVE",
"439 831 OFFCURVE",
"474 866 CURVE",
"480 866 LINE",
"500 831 OFFCURVE",
"528 801 OFFCURVE",
"556 777 CURVE",
"572 795 LINE",
"542 821 OFFCURVE",
"514 852 OFFCURVE",
"490 898 CURVE",
"476 898 LINE",
"435 852 OFFCURVE",
"393 821 OFFCURVE",
"353 795 CURVE",
"362 777 LINE"
);
}
);
width = 552;
}
);
leftKerningGroup = C;
note = Ccircumflex;
unicode = 0108;
},
{
glyphname = Cdotaccent;
lastChange = "2015-11-28 06:34:22 +0000";
layers = (
{
layerId = "F5311820-4606-4FC3-8850-6A1C02DF84E8";
name = "Light Italic";
paths = (
{
closed = 1;
nodes = (
"363 -10 OFFCURVE",
"429 11 OFFCURVE",
"475 47 CURVE",
"473 59 LINE",
"419 29 OFFCURVE",
"348 12 OFFCURVE",
"308 12 CURVE SMOOTH",
"154 12 OFFCURVE",
"99 102 OFFCURVE",
"99 227 CURVE SMOOTH",
"99 265 OFFCURVE",
"105 307 OFFCURVE",
"113 350 CURVE SMOOTH",
"151 536 OFFCURVE",
"251 688 OFFCURVE",
"446 688 CURVE SMOOTH",
"506 688 OFFCURVE",
"552 664 OFFCURVE",
"569 645 CURVE",
"567 617 OFFCURVE",
"564 594 OFFCURVE",
"564 570 CURVE SMOOTH",
"564 563 OFFCURVE",
"564 557 OFFCURVE",
"564 553 CURVE",
"573 553 LINE",
"599 651 LINE",
"567 687 OFFCURVE",
"512 710 OFFCURVE",
"443 710 CURVE SMOOTH",
"261 710 OFFCURVE",
"132 573 OFFCURVE",
"86 350 CURVE SMOOTH",
"77 305 OFFCURVE",
"72 263 OFFCURVE",
"72 225 CURVE SMOOTH",
"72 77 OFFCURVE",
"145 -10 OFFCURVE",
"294 -10 CURVE SMOOTH"
);
},
{
closed = 1;
nodes = (
"489 785 OFFCURVE",
"506 799 OFFCURVE",
"506 823 CURVE SMOOTH",
"506 837 OFFCURVE",
"497 845 OFFCURVE",
"484 845 CURVE SMOOTH",
"466 845 OFFCURVE",
"450 831 OFFCURVE",
"450 806 CURVE SMOOTH",
"450 793 OFFCURVE",
"458 785 OFFCURVE",
"471 785 CURVE SMOOTH"
);
}
);
width = 552;
}
);
leftKerningGroup = C;
note = Cdotaccent;
unicode = 010A;
},
{
glyphname = D;
lastChange = "2015-10-25 23:53:09 +0000";
layers = (
{
layerId = "F5311820-4606-4FC3-8850-6A1C02DF84E8";
name = "Light Italic";
paths = (
{
closed = 1;
nodes = (
"268 0 LINE SMOOTH",
"448 0 OFFCURVE",
"546 127 OFFCURVE",
"592 350 CURVE SMOOTH",
"603 402 OFFCURVE",
"609 450 OFFCURVE",
"609 491 CURVE SMOOTH",
"609 626 OFFCURVE",
"549 700 OFFCURVE",
"411 700 CURVE SMOOTH",
"152 700 LINE",
"151 695 LINE",
"172 687 OFFCURVE",
"198 682 OFFCURVE",
"226 678 CURVE",
"91 21 LINE",
"49 17 OFFCURVE",
"28 12 OFFCURVE",
"11 6 CURVE",
"10 0 LINE"
);
},
{
closed = 1;
nodes = (
"252 678 LINE",
"406 678 LINE SMOOTH",
"534 678 OFFCURVE",
"582 606 OFFCURVE",
"582 489 CURVE SMOOTH",
"582 448 OFFCURVE",
"576 401 OFFCURVE",
"565 350 CURVE SMOOTH",
"525 154 OFFCURVE",
"444 22 OFFCURVE",
"270 22 CURVE SMOOTH",
"118 22 LINE"
);
}
);
width = 598;
}
);
note = D;
rightKerningGroup = D;
unicode = 0044;
},
{
glyphname = Eth;
lastChange = "2015-11-27 06:13:04 +0000";
layers = (
{
layerId = "F5311820-4606-4FC3-8850-6A1C02DF84E8";
name = "Light Italic";
paths = (
{
closed = 1;
nodes = (
"268 0 LINE SMOOTH",
"448 0 OFFCURVE",
"546 127 OFFCURVE",
"592 350 CURVE SMOOTH",
"603 402 OFFCURVE",
"608 449 OFFCURVE",
"608 491 CURVE SMOOTH",
"608 626 OFFCURVE",
"549 700 OFFCURVE",
"411 700 CURVE SMOOTH",
"152 700 LINE",
"151 695 LINE",
"172 687 OFFCURVE",
"198 682 OFFCURVE",
"226 678 CURVE",
"91 21 LINE",
"49 17 OFFCURVE",
"28 12 OFFCURVE",
"11 6 CURVE",
"10 0 LINE"
);
},
{
closed = 1;
nodes = (
"252 678 LINE",
"406 678 LINE SMOOTH",
"534 678 OFFCURVE",
"582 606 OFFCURVE",
"582 490 CURVE SMOOTH",
"582 448 OFFCURVE",
"576 401 OFFCURVE",
"565 350 CURVE SMOOTH",
"525 154 OFFCURVE",
"444 22 OFFCURVE",
"270 22 CURVE SMOOTH",
"118 22 LINE"
);
},
{
closed = 1;
nodes = (
"364 322 LINE",
"369 344 LINE",
"80 344 LINE",
"75 322 LINE"
);
}
);
width = 598;
}
);
note = Eth;
rightKerningGroup = D;
unicode = 00D0;
},
{
glyphname = Dcaron;
lastChange = "2015-10-25 23:53:09 +0000";
layers = (
{
layerId = "F5311820-4606-4FC3-8850-6A1C02DF84E8";
name = "Light Italic";
paths = (
{
closed = 1;
nodes = (
"268 0 LINE SMOOTH",
"448 0 OFFCURVE",
"546 127 OFFCURVE",
"592 350 CURVE SMOOTH",
"603 402 OFFCURVE",
"609 450 OFFCURVE",
"609 491 CURVE SMOOTH",
"609 626 OFFCURVE",
"549 700 OFFCURVE",
"411 700 CURVE SMOOTH",
"152 700 LINE",
"151 695 LINE",
"172 687 OFFCURVE",
"198 682 OFFCURVE",
"226 678 CURVE",
"91 21 LINE",
"49 17 OFFCURVE",
"28 12 OFFCURVE",
"11 6 CURVE",
"10 0 LINE"
);
},
{
closed = 1;
nodes = (
"252 678 LINE",
"406 678 LINE SMOOTH",
"534 678 OFFCURVE",
"582 606 OFFCURVE",
"582 489 CURVE SMOOTH",
"582 448 OFFCURVE",
"576 401 OFFCURVE",
"565 350 CURVE SMOOTH",
"525 154 OFFCURVE",
"444 22 OFFCURVE",
"270 22 CURVE SMOOTH",
"118 22 LINE"
);
},
{
closed = 1;
nodes = (
"437 787 LINE",
"479 833 OFFCURVE",
"520 864 OFFCURVE",
"561 890 CURVE",
"552 908 LINE",
"514 884 OFFCURVE",
"474 854 OFFCURVE",
"440 819 CURVE",
"434 819 LINE",
"413 854 OFFCURVE",
"385 884 OFFCURVE",
"358 908 CURVE",
"342 890 LINE",
"371 864 OFFCURVE",
"400 833 OFFCURVE",
"423 787 CURVE"
);
}
);
width = 598;
}
);
note = Dcaron;
rightKerningGroup = D;
unicode = 010E;
},
{
glyphname = Dcroat;
lastChange = "2015-11-27 06:13:08 +0000";
layers = (
{
layerId = "F5311820-4606-4FC3-8850-6A1C02DF84E8";
name = "Light Italic";
paths = (
{
closed = 1;
nodes = (
"268 0 LINE SMOOTH",
"448 0 OFFCURVE",
"546 127 OFFCURVE",
"592 350 CURVE SMOOTH",
"603 402 OFFCURVE",
"608 449 OFFCURVE",
"608 491 CURVE SMOOTH",
"608 626 OFFCURVE",
"549 700 OFFCURVE",
"411 700 CURVE SMOOTH",
"152 700 LINE",
"151 695 LINE",
"172 687 OFFCURVE",
"198 682 OFFCURVE",
"226 678 CURVE",
"91 21 LINE",
"49 17 OFFCURVE",
"28 12 OFFCURVE",
"11 6 CURVE",
"10 0 LINE"
);
},
{
closed = 1;
nodes = (
"252 678 LINE",
"406 678 LINE SMOOTH",
"534 678 OFFCURVE",
"582 606 OFFCURVE",
"582 490 CURVE SMOOTH",
"582 448 OFFCURVE",
"576 401 OFFCURVE",
"565 350 CURVE SMOOTH",
"525 154 OFFCURVE",
"444 22 OFFCURVE",
"270 22 CURVE SMOOTH",
"118 22 LINE"
);
},
{
closed = 1;
nodes = (
"364 322 LINE",
"369 344 LINE",
"80 344 LINE",
"75 322 LINE"
);
}
);
width = 598;
}
);
note = Dcroat;
rightKerningGroup = D;
unicode = 0110;
},
{
glyphname = Ddotbelow;
lastChange = "2015-11-27 06:13:11 +0000";
layers = (
{
layerId = "F5311820-4606-4FC3-8850-6A1C02DF84E8";
name = "Light Italic";
paths = (
{
closed = 1;
nodes = (
"268 0 LINE SMOOTH",
"448 0 OFFCURVE",
"546 127 OFFCURVE",
"592 350 CURVE SMOOTH",
"603 402 OFFCURVE",
"609 450 OFFCURVE",
"609 491 CURVE SMOOTH",
"609 626 OFFCURVE",
"549 700 OFFCURVE",
"411 700 CURVE SMOOTH",
"152 700 LINE",
"151 695 LINE",
"172 687 OFFCURVE",
"198 682 OFFCURVE",
"226 678 CURVE",
"91 21 LINE",
"49 17 OFFCURVE",
"28 12 OFFCURVE",
"11 6 CURVE",
"10 0 LINE"
);
},
{
closed = 1;
nodes = (
"252 678 LINE",
"406 678 LINE SMOOTH",
"534 678 OFFCURVE",
"582 606 OFFCURVE",
"582 489 CURVE SMOOTH",
"582 448 OFFCURVE",
"576 401 OFFCURVE",
"565 350 CURVE SMOOTH",
"525 154 OFFCURVE",
"444 22 OFFCURVE",
"270 22 CURVE SMOOTH",
"118 22 LINE"
);
},
{
closed = 1;
nodes = (
"237 -124 OFFCURVE",
"251 -113 OFFCURVE",
"255 -94 CURVE",
"256 -91 OFFCURVE",
"256 -88 OFFCURVE",
"256 -86 CURVE SMOOTH",
"256 -72 OFFCURVE",
"247 -64 OFFCURVE",
"234 -64 CURVE SMOOTH",
"219 -64 OFFCURVE",
"205 -75 OFFCURVE",
"202 -94 CURVE",
"201 -98 OFFCURVE",
"201 -101 OFFCURVE",
"201 -104 CURVE SMOOTH",
"201 -117 OFFCURVE",
"209 -124 OFFCURVE",
"222 -124 CURVE SMOOTH"
);
}
);
width = 598;
}
);
note = Ddotbelow;
rightKerningGroup = D;
unicode = 1E0C;
},
{
glyphname = Dlinebelow;
lastChange = "2015-11-27 06:13:14 +0000";
layers = (
{
layerId = "F5311820-4606-4FC3-8850-6A1C02DF84E8";
name = "Light Italic";
paths = (
{
closed = 1;
nodes = (
"268 0 LINE SMOOTH",
"448 0 OFFCURVE",
"546 127 OFFCURVE",
"592 350 CURVE SMOOTH",
"603 402 OFFCURVE",
"609 450 OFFCURVE",
"609 491 CURVE SMOOTH",
"609 626 OFFCURVE",
"549 700 OFFCURVE",
"411 700 CURVE SMOOTH",
"152 700 LINE",
"151 695 LINE",
"172 687 OFFCURVE",
"198 682 OFFCURVE",
"226 678 CURVE",
"91 21 LINE",
"49 17 OFFCURVE",
"28 12 OFFCURVE",
"11 6 CURVE",
"10 0 LINE"
);
},
{
closed = 1;
nodes = (
"252 678 LINE",
"406 678 LINE SMOOTH",
"534 678 OFFCURVE",
"582 606 OFFCURVE",
"582 489 CURVE SMOOTH",
"582 448 OFFCURVE",
"576 401 OFFCURVE",
"565 350 CURVE SMOOTH",
"525 154 OFFCURVE",
"444 22 OFFCURVE",
"270 22 CURVE SMOOTH",
"118 22 LINE"
);
},
{
closed = 1;
nodes = (
"336 -98 LINE",
"340 -76 LINE",
"76 -76 LINE",
"72 -98 LINE"
);
}
);
width = 598;
}
);
note = Dlinebelow;
rightKerningGroup = D;
unicode = 1E0E;
},
{
glyphname = E;
lastChange = "2015-10-26 01:20:27 +0000";
layers = (
{
layerId = "F5311820-4606-4FC3-8850-6A1C02DF84E8";
name = "Light Italic";
paths = (
{
closed = 1;
nodes = (
"442 0 LINE",
"474 114 LINE",
"466 114 LINE",
"454 96 OFFCURVE",
"429 45 OFFCURVE",
"422 22 CURVE",
"118 22 LINE",
"185 349 LINE",
"420 349 LINE",
"419 337 OFFCURVE",
"417 317 OFFCURVE",
"417 297 CURVE SMOOTH",
"417 287 OFFCURVE",
"418 277 OFFCURVE",
"419 269 CURVE",
"426 269 LINE",
"463 451 LINE",
"455 451 LINE",
"444 430 OFFCURVE",
"429 389 OFFCURVE",
"423 371 CURVE",
"189 371 LINE",
"252 678 LINE",
"557 678 LINE",
"555 660 OFFCURVE",
"551 627 OFFCURVE",
"551 603 CURVE SMOOTH",
"551 596 OFFCURVE",
"551 590 OFFCURVE",
"552 586 CURVE",
"561 586 LINE",
"584 700 LINE",
"152 700 LINE",
"151 695 LINE",
"172 687 OFFCURVE",
"199 682 OFFCURVE",
"226 678 CURVE",
"91 21 LINE",
"49 17 OFFCURVE",
"28 12 OFFCURVE",
"11 6 CURVE",
"10 0 LINE"
);
}
);
width = 543;
}
);
note = E;
unicode = 0045;
},
{
glyphname = Eacute;
lastChange = "2015-10-26 01:20:27 +0000";
layers = (
{
layerId = "F5311820-4606-4FC3-8850-6A1C02DF84E8";
name = "Light Italic";
paths = (
{
closed = 1;
nodes = (
"442 0 LINE",
"474 114 LINE",
"466 114 LINE",
"454 96 OFFCURVE",
"429 45 OFFCURVE",
"422 22 CURVE",
"118 22 LINE",
"185 349 LINE",
"420 349 LINE",
"419 337 OFFCURVE",
"417 317 OFFCURVE",
"417 297 CURVE SMOOTH",
"417 287 OFFCURVE",
"418 277 OFFCURVE",
"419 269 CURVE",
"426 269 LINE",
"463 451 LINE",
"455 451 LINE",
"444 430 OFFCURVE",
"429 389 OFFCURVE",
"423 371 CURVE",
"189 371 LINE",
"252 678 LINE",
"557 678 LINE",
"555 660 OFFCURVE",
"551 627 OFFCURVE",
"551 603 CURVE SMOOTH",
"551 596 OFFCURVE",
"551 590 OFFCURVE",
"552 586 CURVE",
"561 586 LINE",
"584 700 LINE",
"152 700 LINE",
"151 695 LINE",
"172 687 OFFCURVE",
"199 682 OFFCURVE",
"226 678 CURVE",
"91 21 LINE",
"49 17 OFFCURVE",
"28 12 OFFCURVE",
"11 6 CURVE",
"10 0 LINE"
);
},
{
closed = 1;
nodes = (
"463 859 LINE SMOOTH",
"476 866 OFFCURVE",
"483 877 OFFCURVE",
"483 885 CURVE SMOOTH",
"483 892 OFFCURVE",
"478 896 OFFCURVE",
"472 896 CURVE SMOOTH",
"463 896 OFFCURVE",
"453 891 OFFCURVE",
"444 884 CURVE",
"324 797 LINE",
"329 787 LINE"
);
}
);
width = 543;
}
);
note = Eacute;
unicode = 00C9;
},
{
glyphname = Ebreve;
lastChange = "2015-10-26 01:20:27 +0000";
layers = (
{
layerId = "F5311820-4606-4FC3-8850-6A1C02DF84E8";
name = "Light Italic";
paths = (
{
closed = 1;
nodes = (
"442 0 LINE",
"474 114 LINE",
"466 114 LINE",
"454 96 OFFCURVE",
"429 45 OFFCURVE",
"422 22 CURVE",
"118 22 LINE",
"185 349 LINE",
"420 349 LINE",
"419 337 OFFCURVE",
"417 317 OFFCURVE",
"417 297 CURVE SMOOTH",
"417 287 OFFCURVE",
"418 277 OFFCURVE",
"419 269 CURVE",
"426 269 LINE",
"463 451 LINE",
"455 451 LINE",
"444 430 OFFCURVE",
"429 389 OFFCURVE",
"423 371 CURVE",
"189 371 LINE",
"252 678 LINE",
"557 678 LINE",
"555 660 OFFCURVE",
"551 627 OFFCURVE",
"551 603 CURVE SMOOTH",
"551 596 OFFCURVE",
"551 590 OFFCURVE",
"552 586 CURVE",
"561 586 LINE",
"584 700 LINE",
"152 700 LINE",
"151 695 LINE",
"172 687 OFFCURVE",
"199 682 OFFCURVE",
"226 678 CURVE",
"91 21 LINE",
"49 17 OFFCURVE",
"28 12 OFFCURVE",
"11 6 CURVE",
"10 0 LINE"
);
},
{
closed = 1;
nodes = (
"483 773 OFFCURVE",
"540 808 OFFCURVE",
"563 886 CURVE",
"538 886 LINE",
"513 807 OFFCURVE",
"459 795 OFFCURVE",
"420 795 CURVE SMOOTH",
"383 795 OFFCURVE",
"337 805 OFFCURVE",
"337 870 CURVE SMOOTH",
"337 875 OFFCURVE",
"337 880 OFFCURVE",
"338 886 CURVE",
"313 886 LINE",
"312 878 OFFCURVE",
"311 871 OFFCURVE",
"311 864 CURVE SMOOTH",
"311 801 OFFCURVE",
"354 773 OFFCURVE",
"415 773 CURVE SMOOTH"
);
}
);
width = 543;
}
);
note = Ebreve;
unicode = 0114;
},
{
glyphname = Ecaron;
lastChange = "2015-10-26 01:20:27 +0000";
layers = (
{
layerId = "F5311820-4606-4FC3-8850-6A1C02DF84E8";
name = "Light Italic";
paths = (
{
closed = 1;
nodes = (
"442 0 LINE",
"474 114 LINE",
"466 114 LINE",
"454 96 OFFCURVE",
"429 45 OFFCURVE",
"422 22 CURVE",
"118 22 LINE",
"185 349 LINE",
"420 349 LINE",
"419 337 OFFCURVE",
"417 317 OFFCURVE",
"417 297 CURVE SMOOTH",
"417 287 OFFCURVE",
"418 277 OFFCURVE",
"419 269 CURVE",
"426 269 LINE",
"463 451 LINE",
"455 451 LINE",
"444 430 OFFCURVE",
"429 389 OFFCURVE",
"423 371 CURVE",
"189 371 LINE",
"252 678 LINE",
"557 678 LINE",
"555 660 OFFCURVE",
"551 627 OFFCURVE",
"551 603 CURVE SMOOTH",
"551 596 OFFCURVE",
"551 590 OFFCURVE",
"552 586 CURVE",
"561 586 LINE",
"584 700 LINE",
"152 700 LINE",
"151 695 LINE",
"172 687 OFFCURVE",
"199 682 OFFCURVE",
"226 678 CURVE",
"91 21 LINE",
"49 17 OFFCURVE",
"28 12 OFFCURVE",
"11 6 CURVE",
"10 0 LINE"
);
},
{
closed = 1;
nodes = (
"423 787 LINE",
"466 833 OFFCURVE",
"507 864 OFFCURVE",
"547 890 CURVE",
"539 908 LINE",
"500 884 OFFCURVE",
"461 854 OFFCURVE",
"426 819 CURVE",
"420 819 LINE",
"399 854 OFFCURVE",
"372 884 OFFCURVE",
"345 908 CURVE",
"328 890 LINE",
"357 864 OFFCURVE",
"387 833 OFFCURVE",
"410 787 CURVE"
);
}
);
width = 543;
}
);
note = Ecaron;
unicode = 011A;
},
{
glyphname = Ecircumflex;
lastChange = "2015-10-26 01:20:27 +0000";
layers = (
{
layerId = "F5311820-4606-4FC3-8850-6A1C02DF84E8";
name = "Light Italic";
paths = (
{
closed = 1;
nodes = (
"442 0 LINE",
"474 114 LINE",
"466 114 LINE",
"454 96 OFFCURVE",
"429 45 OFFCURVE",
"422 22 CURVE",
"118 22 LINE",
"185 349 LINE",
"420 349 LINE",
"419 337 OFFCURVE",
"417 317 OFFCURVE",
"417 297 CURVE SMOOTH",
"417 287 OFFCURVE",
"418 277 OFFCURVE",
"419 269 CURVE",
"426 269 LINE",
"463 451 LINE",
"455 451 LINE",
"444 430 OFFCURVE",
"429 389 OFFCURVE",
"423 371 CURVE",
"189 371 LINE",
"252 678 LINE",
"557 678 LINE",
"555 660 OFFCURVE",
"551 627 OFFCURVE",
"551 603 CURVE SMOOTH",
"551 596 OFFCURVE",
"551 590 OFFCURVE",
"552 586 CURVE",
"561 586 LINE",
"584 700 LINE",
"152 700 LINE",
"151 695 LINE",
"172 687 OFFCURVE",
"199 682 OFFCURVE",
"226 678 CURVE",
"91 21 LINE",
"49 17 OFFCURVE",
"28 12 OFFCURVE",
"11 6 CURVE",
"10 0 LINE"
);
},
{
closed = 1;
nodes = (
"361 801 OFFCURVE",
"400 831 OFFCURVE",
"436 866 CURVE",
"442 866 LINE",
"462 831 OFFCURVE",
"490 801 OFFCURVE",
"517 777 CURVE",
"534 795 LINE",
"504 821 OFFCURVE",
"475 852 OFFCURVE",
"451 898 CURVE",
"438 898 LINE",
"396 852 OFFCURVE",
"354 821 OFFCURVE",
"315 795 CURVE",
"324 777 LINE"
);
}
);
width = 543;
}
);
note = Ecircumflex;
unicode = 00CA;
},
{
glyphname = Ecircumflexacute;
lastChange = "2015-10-26 01:20:27 +0000";
layers = (
{
layerId = "F5311820-4606-4FC3-8850-6A1C02DF84E8";
name = "Light Italic";
paths = (
{
closed = 1;
nodes = (
"442 0 LINE",
"474 114 LINE",
"466 114 LINE",
"454 96 OFFCURVE",
"429 45 OFFCURVE",
"422 22 CURVE",
"118 22 LINE",
"185 349 LINE",
"420 349 LINE",
"419 337 OFFCURVE",
"417 317 OFFCURVE",
"417 297 CURVE SMOOTH",
"417 287 OFFCURVE",
"418 277 OFFCURVE",
"419 269 CURVE",
"426 269 LINE",
"463 451 LINE",
"455 451 LINE",
"444 430 OFFCURVE",
"429 389 OFFCURVE",
"423 371 CURVE",
"189 371 LINE",
"252 678 LINE",
"557 678 LINE",
"555 660 OFFCURVE",
"551 627 OFFCURVE",
"551 603 CURVE SMOOTH",
"551 596 OFFCURVE",
"551 590 OFFCURVE",
"552 586 CURVE",
"561 586 LINE",
"584 700 LINE",
"152 700 LINE",
"151 695 LINE",
"172 687 OFFCURVE",
"199 682 OFFCURVE",
"226 678 CURVE",
"91 21 LINE",
"49 17 OFFCURVE",
"28 12 OFFCURVE",
"11 6 CURVE",
"10 0 LINE"
);
},
{
closed = 1;
nodes = (
"368 801 OFFCURVE",
"407 831 OFFCURVE",
"443 866 CURVE",
"448 866 LINE",
"468 831 OFFCURVE",
"496 801 OFFCURVE",
"524 777 CURVE",
"540 795 LINE",
"511 821 OFFCURVE",
"482 852 OFFCURVE",
"458 898 CURVE",
"444 898 LINE",
"403 852 OFFCURVE",
"361 821 OFFCURVE",
"322 795 CURVE",
"330 777 LINE"
);
},
{
closed = 1;
nodes = (
"673 951 LINE SMOOTH",
"686 958 OFFCURVE",
"693 969 OFFCURVE",
"693 977 CURVE SMOOTH",
"693 984 OFFCURVE",
"688 988 OFFCURVE",
"683 988 CURVE SMOOTH",
"673 988 OFFCURVE",
"663 983 OFFCURVE",
"655 976 CURVE",
"536 889 LINE",
"540 879 LINE"
);
}
);
width = 543;
}
);
note = Ecircumflexacute;
unicode = 1EBE;
},
{
glyphname = Ecircumflexdotbelow;
lastChange = "2015-10-26 01:20:27 +0000";
layers = (
{
layerId = "F5311820-4606-4FC3-8850-6A1C02DF84E8";
name = "Light Italic";
paths = (
{
closed = 1;
nodes = (
"442 0 LINE",
"474 114 LINE",
"466 114 LINE",
"454 96 OFFCURVE",
"429 45 OFFCURVE",
"422 22 CURVE",
"118 22 LINE",
"185 349 LINE",
"420 349 LINE",
"419 337 OFFCURVE",
"417 317 OFFCURVE",
"417 297 CURVE SMOOTH",
"417 287 OFFCURVE",
"418 277 OFFCURVE",
"419 269 CURVE",
"426 269 LINE",
"463 451 LINE",
"455 451 LINE",
"444 430 OFFCURVE",
"429 389 OFFCURVE",
"423 371 CURVE",
"189 371 LINE",
"252 678 LINE",
"557 678 LINE",
"555 660 OFFCURVE",
"551 627 OFFCURVE",
"551 603 CURVE SMOOTH",
"551 596 OFFCURVE",
"551 590 OFFCURVE",
"552 586 CURVE",
"561 586 LINE",
"584 700 LINE",
"152 700 LINE",
"151 695 LINE",
"172 687 OFFCURVE",
"199 682 OFFCURVE",
"226 678 CURVE",
"91 21 LINE",
"49 17 OFFCURVE",
"28 12 OFFCURVE",
"11 6 CURVE",
"10 0 LINE"
);
},
{
closed = 1;
nodes = (
"259 -124 OFFCURVE",
"273 -113 OFFCURVE",
"277 -94 CURVE",
"278 -91 OFFCURVE",
"278 -88 OFFCURVE",
"278 -86 CURVE SMOOTH",
"278 -72 OFFCURVE",
"269 -64 OFFCURVE",
"256 -64 CURVE SMOOTH",
"241 -64 OFFCURVE",
"228 -75 OFFCURVE",
"224 -94 CURVE",
"223 -98 OFFCURVE",
"223 -101 OFFCURVE",
"223 -104 CURVE SMOOTH",
"223 -117 OFFCURVE",
"231 -124 OFFCURVE",
"244 -124 CURVE SMOOTH"
);
},
{
closed = 1;
nodes = (
"367 801 OFFCURVE",
"406 831 OFFCURVE",
"442 866 CURVE",
"447 866 LINE",
"468 831 OFFCURVE",
"495 801 OFFCURVE",
"523 777 CURVE",
"540 795 LINE",
"510 821 OFFCURVE",
"481 852 OFFCURVE",
"457 898 CURVE",
"444 898 LINE",
"402 852 OFFCURVE",
"360 821 OFFCURVE",
"321 795 CURVE",
"329 777 LINE"
);
}
);
width = 543;
}
);
note = Ecircumflexdotbelow;
unicode = 1EC6;
},
{
glyphname = Ecircumflexgrave;
lastChange = "2015-10-26 01:20:27 +0000";
layers = (
{
layerId = "F5311820-4606-4FC3-8850-6A1C02DF84E8";
name = "Light Italic";
paths = (
{
closed = 1;
nodes = (
"442 0 LINE",
"474 114 LINE",
"466 114 LINE",
"454 96 OFFCURVE",
"429 45 OFFCURVE",
"422 22 CURVE",
"118 22 LINE",
"185 349 LINE",
"420 349 LINE",
"419 337 OFFCURVE",
"417 317 OFFCURVE",
"417 297 CURVE SMOOTH",
"417 287 OFFCURVE",
"418 277 OFFCURVE",
"419 269 CURVE",
"426 269 LINE",
"463 451 LINE",
"455 451 LINE",
"444 430 OFFCURVE",
"429 389 OFFCURVE",
"423 371 CURVE",
"189 371 LINE",
"252 678 LINE",
"557 678 LINE",
"555 660 OFFCURVE",
"551 627 OFFCURVE",
"551 603 CURVE SMOOTH",
"551 596 OFFCURVE",
"551 590 OFFCURVE",
"552 586 CURVE",
"561 586 LINE",
"584 700 LINE",
"152 700 LINE",
"151 695 LINE",
"172 687 OFFCURVE",
"199 682 OFFCURVE",
"226 678 CURVE",
"91 21 LINE",
"49 17 OFFCURVE",
"28 12 OFFCURVE",
"11 6 CURVE",
"10 0 LINE"
);
},
{
closed = 1;
nodes = (
"376 889 LINE",
"291 976 LINE",
"286 983 OFFCURVE",
"278 988 OFFCURVE",
"269 988 CURVE SMOOTH",
"261 988 OFFCURVE",
"252 982 OFFCURVE",
"252 970 CURVE SMOOTH",
"252 963 OFFCURVE",
"254 956 OFFCURVE",
"263 951 CURVE",
"367 879 LINE"
);
},
{
closed = 1;
nodes = (
"368 801 OFFCURVE",
"407 831 OFFCURVE",
"443 866 CURVE",
"448 866 LINE",
"468 831 OFFCURVE",
"496 801 OFFCURVE",
"524 777 CURVE",
"540 795 LINE",
"511 821 OFFCURVE",
"482 852 OFFCURVE",
"458 898 CURVE",
"444 898 LINE",
"403 852 OFFCURVE",
"361 821 OFFCURVE",
"322 795 CURVE",
"330 777 LINE"
);
}
);
width = 543;
}
);
note = Ecircumflexgrave;
unicode = 1EC0;
},
{
glyphname = Ecircumflexhookabove;
lastChange = "2015-10-26 01:20:27 +0000";
layers = (
{
layerId = "F5311820-4606-4FC3-8850-6A1C02DF84E8";
name = "Light Italic";
paths = (
{
closed = 1;
nodes = (
"442 0 LINE",
"474 114 LINE",
"466 114 LINE",
"454 96 OFFCURVE",
"429 45 OFFCURVE",
"422 22 CURVE",
"118 22 LINE",
"185 349 LINE",
"420 349 LINE",
"419 337 OFFCURVE",
"417 317 OFFCURVE",
"417 297 CURVE SMOOTH",
"417 287 OFFCURVE",
"418 277 OFFCURVE",
"419 269 CURVE",
"426 269 LINE",
"463 451 LINE",
"455 451 LINE",
"444 430 OFFCURVE",
"429 389 OFFCURVE",
"423 371 CURVE",
"189 371 LINE",
"252 678 LINE",
"557 678 LINE",
"555 660 OFFCURVE",
"551 627 OFFCURVE",
"551 603 CURVE SMOOTH",
"551 596 OFFCURVE",
"551 590 OFFCURVE",
"552 586 CURVE",
"561 586 LINE",
"584 700 LINE",
"152 700 LINE",
"151 695 LINE",
"172 687 OFFCURVE",
"199 682 OFFCURVE",
"226 678 CURVE",
"91 21 LINE",
"49 17 OFFCURVE",
"28 12 OFFCURVE",
"11 6 CURVE",
"10 0 LINE"
);
},
{
closed = 1;
nodes = (
"368 801 OFFCURVE",
"407 831 OFFCURVE",
"443 866 CURVE",
"448 866 LINE",
"468 831 OFFCURVE",
"496 801 OFFCURVE",
"524 777 CURVE",
"540 795 LINE",
"511 821 OFFCURVE",
"482 852 OFFCURVE",
"458 898 CURVE",
"444 898 LINE",
"403 852 OFFCURVE",
"361 821 OFFCURVE",
"322 795 CURVE",
"330 777 LINE"
);
},
{
closed = 1;
nodes = (
"545 855 LINE",
"564 903 LINE",
"605 908 OFFCURVE",
"626 926 OFFCURVE",
"633 959 CURVE SMOOTH",
"634 964 OFFCURVE",
"634 968 OFFCURVE",
"634 972 CURVE SMOOTH",
"634 1001 OFFCURVE",
"610 1013 OFFCURVE",
"584 1013 CURVE SMOOTH",
"564 1013 OFFCURVE",
"543 1007 OFFCURVE",
"529 1000 CURVE",
"531 983 LINE",
"547 992 OFFCURVE",
"562 995 OFFCURVE",
"574 995 CURVE SMOOTH",
"604 995 OFFCURVE",
"614 981 OFFCURVE",
"611 960 CURVE",
"606 939 OFFCURVE",
"589 918 OFFCURVE",
"548 918 CURVE SMOOTH",
"540 918 LINE",
"531 855 LINE"
);
}
);
width = 543;
}
);
note = Ecircumflexhookabove;
unicode = 1EC2;
},
{
glyphname = Ecircumflextilde;
lastChange = "2015-10-26 01:20:27 +0000";
layers = (
{
layerId = "F5311820-4606-4FC3-8850-6A1C02DF84E8";
name = "Light Italic";
paths = (
{
closed = 1;
nodes = (
"442 0 LINE",
"474 114 LINE",
"466 114 LINE",
"454 96 OFFCURVE",
"429 45 OFFCURVE",
"422 22 CURVE",
"118 22 LINE",
"185 349 LINE",
"420 349 LINE",
"419 337 OFFCURVE",
"417 317 OFFCURVE",
"417 297 CURVE SMOOTH",
"417 287 OFFCURVE",
"418 277 OFFCURVE",
"419 269 CURVE",
"426 269 LINE",
"463 451 LINE",
"455 451 LINE",
"444 430 OFFCURVE",
"429 389 OFFCURVE",
"423 371 CURVE",
"189 371 LINE",
"252 678 LINE",
"557 678 LINE",
"555 660 OFFCURVE",
"551 627 OFFCURVE",
"551 603 CURVE SMOOTH",
"551 596 OFFCURVE",
"551 590 OFFCURVE",
"552 586 CURVE",
"561 586 LINE",
"584 700 LINE",
"152 700 LINE",
"151 695 LINE",
"172 687 OFFCURVE",
"199 682 OFFCURVE",
"226 678 CURVE",
"91 21 LINE",
"49 17 OFFCURVE",
"28 12 OFFCURVE",
"11 6 CURVE",
"10 0 LINE"
);
},
{
closed = 1;
nodes = (
"368 801 OFFCURVE",
"407 831 OFFCURVE",
"443 866 CURVE",
"448 866 LINE",
"468 831 OFFCURVE",
"496 801 OFFCURVE",
"524 777 CURVE",
"540 795 LINE",
"511 821 OFFCURVE",
"482 852 OFFCURVE",
"458 898 CURVE",
"444 898 LINE",
"403 852 OFFCURVE",
"361 821 OFFCURVE",
"322 795 CURVE",
"330 777 LINE"
);
},
{
closed = 1;
nodes = (
"340 932 LINE",
"357 970 OFFCURVE",
"381 994 OFFCURVE",
"411 994 CURVE SMOOTH",
"453 994 OFFCURVE",
"484 934 OFFCURVE",
"524 934 CURVE SMOOTH",
"562 934 OFFCURVE",
"593 968 OFFCURVE",
"613 1024 CURVE",
"603 1024 LINE",
"586 984 OFFCURVE",
"564 958 OFFCURVE",
"532 958 CURVE SMOOTH",
"492 958 OFFCURVE",
"459 1017 OFFCURVE",
"418 1017 CURVE SMOOTH",
"383 1017 OFFCURVE",
"349 993 OFFCURVE",
"329 932 CURVE"
);
}
);
width = 543;
}
);
note = Ecircumflextilde;
unicode = 1EC4;
},
{
glyphname = Edieresis;
lastChange = "2015-10-26 01:20:27 +0000";
layers = (
{
layerId = "F5311820-4606-4FC3-8850-6A1C02DF84E8";
name = "Light Italic";
paths = (
{
closed = 1;
nodes = (
"442 0 LINE",
"474 114 LINE",
"466 114 LINE",
"454 96 OFFCURVE",
"429 45 OFFCURVE",
"422 22 CURVE",
"118 22 LINE",
"185 349 LINE",
"420 349 LINE",
"419 337 OFFCURVE",
"417 317 OFFCURVE",
"417 297 CURVE SMOOTH",
"417 287 OFFCURVE",
"418 277 OFFCURVE",
"419 269 CURVE",
"426 269 LINE",
"463 451 LINE",
"455 451 LINE",
"444 430 OFFCURVE",
"429 389 OFFCURVE",
"423 371 CURVE",
"189 371 LINE",
"252 678 LINE",
"557 678 LINE",
"555 660 OFFCURVE",
"551 627 OFFCURVE",
"551 603 CURVE SMOOTH",
"551 596 OFFCURVE",
"551 590 OFFCURVE",
"552 586 CURVE",
"561 586 LINE",
"584 700 LINE",
"152 700 LINE",
"151 695 LINE",
"172 687 OFFCURVE",
"199 682 OFFCURVE",
"226 678 CURVE",
"91 21 LINE",
"49 17 OFFCURVE",
"28 12 OFFCURVE",
"11 6 CURVE",
"10 0 LINE"
);
},
{
closed = 1;
nodes = (
"336 785 OFFCURVE",
"353 799 OFFCURVE",
"353 823 CURVE SMOOTH",
"353 837 OFFCURVE",
"344 845 OFFCURVE",
"331 845 CURVE SMOOTH",
"316 845 OFFCURVE",
"302 834 OFFCURVE",
"299 815 CURVE",
"299 812 OFFCURVE",
"298 809 OFFCURVE",
"298 807 CURVE SMOOTH",
"298 793 OFFCURVE",
"305 785 OFFCURVE",
"319 785 CURVE SMOOTH"
);
},
{
closed = 1;
nodes = (
"528 785 OFFCURVE",
"545 799 OFFCURVE",
"545 823 CURVE SMOOTH",
"545 837 OFFCURVE",
"536 845 OFFCURVE",
"523 845 CURVE SMOOTH",
"506 845 OFFCURVE",
"490 830 OFFCURVE",
"490 806 CURVE SMOOTH",
"490 793 OFFCURVE",
"498 785 OFFCURVE",
"511 785 CURVE SMOOTH"
);
}
);
width = 543;
}
);
note = Edieresis;
unicode = 00CB;
},
{
glyphname = Edotaccent;
lastChange = "2015-10-26 01:20:27 +0000";
layers = (
{
layerId = "F5311820-4606-4FC3-8850-6A1C02DF84E8";
name = "Light Italic";
paths = (
{
closed = 1;
nodes = (
"442 0 LINE",
"474 114 LINE",
"466 114 LINE",
"454 96 OFFCURVE",
"429 45 OFFCURVE",
"422 22 CURVE",
"118 22 LINE",
"185 349 LINE",
"420 349 LINE",
"419 337 OFFCURVE",
"417 317 OFFCURVE",
"417 297 CURVE SMOOTH",
"417 287 OFFCURVE",
"418 277 OFFCURVE",
"419 269 CURVE",
"426 269 LINE",
"463 451 LINE",
"455 451 LINE",
"444 430 OFFCURVE",
"429 389 OFFCURVE",
"423 371 CURVE",
"189 371 LINE",
"252 678 LINE",
"557 678 LINE",
"555 660 OFFCURVE",
"551 627 OFFCURVE",
"551 603 CURVE SMOOTH",
"551 596 OFFCURVE",
"551 590 OFFCURVE",
"552 586 CURVE",
"561 586 LINE",
"584 700 LINE",
"152 700 LINE",
"151 695 LINE",
"172 687 OFFCURVE",
"199 682 OFFCURVE",
"226 678 CURVE",
"91 21 LINE",
"49 17 OFFCURVE",
"28 12 OFFCURVE",
"11 6 CURVE",
"10 0 LINE"
);
},
{
closed = 1;
nodes = (
"439 785 OFFCURVE",
"456 799 OFFCURVE",
"456 823 CURVE SMOOTH",
"456 837 OFFCURVE",
"447 845 OFFCURVE",
"434 845 CURVE SMOOTH",
"417 845 OFFCURVE",
"400 831 OFFCURVE",
"400 806 CURVE SMOOTH",
"400 793 OFFCURVE",
"408 785 OFFCURVE",
"421 785 CURVE SMOOTH"
);
}
);
width = 543;
}
);
note = Edotaccent;
unicode = 0116;
},
{
glyphname = Edotbelow;
lastChange = "2015-10-26 01:20:27 +0000";
layers = (
{
layerId = "F5311820-4606-4FC3-8850-6A1C02DF84E8";
name = "Light Italic";
paths = (
{
closed = 1;
nodes = (
"442 0 LINE",
"474 114 LINE",
"466 114 LINE",
"454 96 OFFCURVE",
"429 45 OFFCURVE",
"422 22 CURVE",
"118 22 LINE",
"185 349 LINE",
"420 349 LINE",
"419 337 OFFCURVE",
"417 317 OFFCURVE",
"417 297 CURVE SMOOTH",
"417 287 OFFCURVE",
"418 277 OFFCURVE",
"419 269 CURVE",
"426 269 LINE",
"463 451 LINE",
"455 451 LINE",
"444 430 OFFCURVE",
"429 389 OFFCURVE",
"423 371 CURVE",
"189 371 LINE",
"252 678 LINE",
"557 678 LINE",
"555 660 OFFCURVE",
"551 627 OFFCURVE",
"551 603 CURVE SMOOTH",
"551 596 OFFCURVE",
"551 590 OFFCURVE",
"552 586 CURVE",
"561 586 LINE",
"584 700 LINE",
"152 700 LINE",
"151 695 LINE",
"172 687 OFFCURVE",
"199 682 OFFCURVE",
"226 678 CURVE",
"91 21 LINE",
"49 17 OFFCURVE",
"28 12 OFFCURVE",
"11 6 CURVE",
"10 0 LINE"
);
},
{
closed = 1;
nodes = (
"236 -124 OFFCURVE",
"250 -113 OFFCURVE",
"254 -94 CURVE",
"255 -91 OFFCURVE",
"255 -88 OFFCURVE",
"255 -86 CURVE SMOOTH",
"255 -72 OFFCURVE",
"246 -64 OFFCURVE",
"233 -64 CURVE SMOOTH",
"218 -64 OFFCURVE",
"204 -75 OFFCURVE",
"201 -94 CURVE",
"200 -98 OFFCURVE",
"200 -101 OFFCURVE",
"200 -104 CURVE SMOOTH",
"200 -117 OFFCURVE",
"208 -124 OFFCURVE",
"221 -124 CURVE SMOOTH"
);
}
);
width = 543;
}
);
note = Edotbelow;
unicode = 1EB8;
},
{
glyphname = Egrave;
lastChange = "2015-10-26 01:20:27 +0000";
layers = (
{
layerId = "F5311820-4606-4FC3-8850-6A1C02DF84E8";
name = "Light Italic";
paths = (
{
closed = 1;
nodes = (
"442 0 LINE",
"474 114 LINE",
"466 114 LINE",
"454 96 OFFCURVE",
"429 45 OFFCURVE",
"422 22 CURVE",
"118 22 LINE",
"185 349 LINE",
"420 349 LINE",
"419 337 OFFCURVE",
"417 317 OFFCURVE",
"417 297 CURVE SMOOTH",
"417 287 OFFCURVE",
"418 277 OFFCURVE",
"419 269 CURVE",
"426 269 LINE",
"463 451 LINE",
"455 451 LINE",
"444 430 OFFCURVE",
"429 389 OFFCURVE",
"423 371 CURVE",
"189 371 LINE",
"252 678 LINE",
"557 678 LINE",
"555 660 OFFCURVE",
"551 627 OFFCURVE",
"551 603 CURVE SMOOTH",
"551 596 OFFCURVE",
"551 590 OFFCURVE",
"552 586 CURVE",
"561 586 LINE",
"584 700 LINE",
"152 700 LINE",
"151 695 LINE",
"172 687 OFFCURVE",
"199 682 OFFCURVE",
"226 678 CURVE",
"91 21 LINE",
"49 17 OFFCURVE",
"28 12 OFFCURVE",
"11 6 CURVE",
"10 0 LINE"
);
},
{
closed = 1;
nodes = (
"493 797 LINE",
"408 884 LINE",
"403 891 OFFCURVE",
"396 896 OFFCURVE",
"386 896 CURVE SMOOTH",
"378 896 OFFCURVE",
"369 889 OFFCURVE",
"369 877 CURVE SMOOTH",
"369 871 OFFCURVE",
"373 864 OFFCURVE",
"380 859 CURVE",
"485 787 LINE"
);
}
);
width = 543;
}
);
note = Egrave;
unicode = 00C8;
},
{
glyphname = Ehookabove;
lastChange = "2015-10-26 01:20:27 +0000";
layers = (
{
layerId = "F5311820-4606-4FC3-8850-6A1C02DF84E8";
name = "Light Italic";
paths = (
{
closed = 1;
nodes = (
"442 0 LINE",
"474 114 LINE",
"466 114 LINE",
"454 96 OFFCURVE",
"429 45 OFFCURVE",
"422 22 CURVE",
"118 22 LINE",
"185 349 LINE",
"420 349 LINE",
"419 337 OFFCURVE",
"417 317 OFFCURVE",
"417 297 CURVE SMOOTH",
"417 287 OFFCURVE",
"418 277 OFFCURVE",
"419 269 CURVE",
"426 269 LINE",
"463 451 LINE",
"455 451 LINE",
"444 430 OFFCURVE",
"429 389 OFFCURVE",
"423 371 CURVE",
"189 371 LINE",
"252 678 LINE",
"557 678 LINE",
"555 660 OFFCURVE",
"551 627 OFFCURVE",
"551 603 CURVE SMOOTH",
"551 596 OFFCURVE",
"551 590 OFFCURVE",
"552 586 CURVE",
"561 586 LINE",
"584 700 LINE",
"152 700 LINE",
"151 695 LINE",
"172 687 OFFCURVE",
"199 682 OFFCURVE",
"226 678 CURVE",
"91 21 LINE",
"49 17 OFFCURVE",
"28 12 OFFCURVE",
"11 6 CURVE",
"10 0 LINE"
);
},
{
closed = 1;
nodes = (
"424 777 LINE",
"446 836 LINE",
"495 841 OFFCURVE",
"522 868 OFFCURVE",
"530 903 CURVE SMOOTH",
"531 908 OFFCURVE",
"532 914 OFFCURVE",
"532 918 CURVE SMOOTH",
"532 952 OFFCURVE",
"505 969 OFFCURVE",
"471 969 CURVE SMOOTH",
"445 969 OFFCURVE",
"420 961 OFFCURVE",
"402 953 CURVE",
"405 932 LINE",
"425 943 OFFCURVE",
"445 948 OFFCURVE",
"461 948 CURVE SMOOTH",
"491 948 OFFCURVE",
"506 934 OFFCURVE",
"506 914 CURVE SMOOTH",
"506 887 OFFCURVE",
"486 853 OFFCURVE",
"430 853 CURVE SMOOTH",
"420 853 LINE",
"409 777 LINE"
);
}
);
width = 543;
}
);
note = Ehookabove;
unicode = 1EBA;
},
{
glyphname = Emacron;
lastChange = "2015-10-26 01:20:27 +0000";
layers = (
{
layerId = "F5311820-4606-4FC3-8850-6A1C02DF84E8";
name = "Light Italic";
paths = (
{
closed = 1;
nodes = (
"442 0 LINE",
"474 114 LINE",
"466 114 LINE",
"454 96 OFFCURVE",
"429 45 OFFCURVE",
"422 22 CURVE",
"118 22 LINE",
"185 349 LINE",
"420 349 LINE",
"419 337 OFFCURVE",
"417 317 OFFCURVE",
"417 297 CURVE SMOOTH",
"417 287 OFFCURVE",
"418 277 OFFCURVE",
"419 269 CURVE",
"426 269 LINE",
"463 451 LINE",
"455 451 LINE",
"444 430 OFFCURVE",
"429 389 OFFCURVE",
"423 371 CURVE",
"189 371 LINE",
"252 678 LINE",
"557 678 LINE",
"555 660 OFFCURVE",
"551 627 OFFCURVE",
"551 603 CURVE SMOOTH",
"551 596 OFFCURVE",
"551 590 OFFCURVE",
"552 586 CURVE",
"561 586 LINE",
"584 700 LINE",
"152 700 LINE",
"151 695 LINE",
"172 687 OFFCURVE",
"199 682 OFFCURVE",
"226 678 CURVE",
"91 21 LINE",
"49 17 OFFCURVE",
"28 12 OFFCURVE",
"11 6 CURVE",
"10 0 LINE"
);
},
{
closed = 1;
nodes = (
"547 785 LINE",
"552 807 LINE",
"288 807 LINE",
"283 785 LINE"
);
}
);
width = 543;
}
);
note = Emacron;
unicode = 0112;
},
{
glyphname = Eogonek;
lastChange = "2015-10-26 01:20:27 +0000";
layers = (
{
layerId = "F5311820-4606-4FC3-8850-6A1C02DF84E8";
name = "Light Italic";
paths = (
{
closed = 1;
nodes = (
"442 0 LINE",
"474 114 LINE",
"466 114 LINE",
"454 96 OFFCURVE",
"429 45 OFFCURVE",
"422 22 CURVE",
"118 22 LINE",
"185 349 LINE",
"420 349 LINE",
"419 337 OFFCURVE",
"417 317 OFFCURVE",
"417 297 CURVE SMOOTH",
"417 287 OFFCURVE",
"418 277 OFFCURVE",
"419 269 CURVE",
"426 269 LINE",
"463 451 LINE",
"455 451 LINE",
"444 430 OFFCURVE",
"429 389 OFFCURVE",
"423 371 CURVE",
"189 371 LINE",
"252 678 LINE",
"557 678 LINE",
"555 660 OFFCURVE",
"551 627 OFFCURVE",
"551 603 CURVE SMOOTH",
"551 596 OFFCURVE",
"551 590 OFFCURVE",
"552 586 CURVE",
"561 586 LINE",
"584 700 LINE",
"152 700 LINE",
"151 695 LINE",
"172 687 OFFCURVE",
"199 682 OFFCURVE",
"226 678 CURVE",
"91 21 LINE",
"49 17 OFFCURVE",
"28 12 OFFCURVE",
"11 6 CURVE",
"10 0 LINE"
);
},
{
closed = 1;
nodes = (
"383 -168 OFFCURVE",
"396 -165 OFFCURVE",
"419 -159 CURVE",
"422 -141 LINE",
"409 -145 OFFCURVE",
"395 -147 OFFCURVE",
"381 -147 CURVE SMOOTH",
"354 -147 OFFCURVE",
"331 -138 OFFCURVE",
"331 -110 CURVE SMOOTH",
"331 -66 OFFCURVE",
"373 -22 OFFCURVE",
"422 0 CURVE",
"397 0 LINE",
"351 -20 OFFCURVE",
"318 -54 OFFCURVE",
"309 -98 CURVE SMOOTH",
"308 -103 OFFCURVE",
"307 -108 OFFCURVE",
"307 -113 CURVE SMOOTH",
"307 -140 OFFCURVE",
"323 -168 OFFCURVE",
"365 -168 CURVE SMOOTH"
);
}
);
width = 543;
}
);
note = Eogonek;
unicode = 0118;
},
{
glyphname = Etilde;
lastChange = "2015-10-26 01:20:27 +0000";
layers = (
{
layerId = "F5311820-4606-4FC3-8850-6A1C02DF84E8";
name = "Light Italic";
paths = (
{
closed = 1;
nodes = (
"442 0 LINE",
"474 114 LINE",
"466 114 LINE",
"454 96 OFFCURVE",
"429 45 OFFCURVE",
"422 22 CURVE",
"118 22 LINE",
"185 349 LINE",
"420 349 LINE",
"419 337 OFFCURVE",
"417 317 OFFCURVE",
"417 297 CURVE SMOOTH",
"417 287 OFFCURVE",
"418 277 OFFCURVE",
"419 269 CURVE",
"426 269 LINE",
"463 451 LINE",
"455 451 LINE",
"444 430 OFFCURVE",
"429 389 OFFCURVE",
"423 371 CURVE",
"189 371 LINE",
"252 678 LINE",
"557 678 LINE",
"555 660 OFFCURVE",
"551 627 OFFCURVE",
"551 603 CURVE SMOOTH",
"551 596 OFFCURVE",
"551 590 OFFCURVE",
"552 586 CURVE",
"561 586 LINE",
"584 700 LINE",
"152 700 LINE",
"151 695 LINE",
"172 687 OFFCURVE",
"199 682 OFFCURVE",
"226 678 CURVE",
"91 21 LINE",
"49 17 OFFCURVE",
"28 12 OFFCURVE",
"11 6 CURVE",
"10 0 LINE"
);
},
{
closed = 1;
nodes = (
"292 785 LINE",
"309 823 OFFCURVE",
"333 847 OFFCURVE",
"363 847 CURVE SMOOTH",
"405 847 OFFCURVE",
"436 787 OFFCURVE",
"476 787 CURVE SMOOTH",
"515 787 OFFCURVE",
"546 821 OFFCURVE",
"566 877 CURVE",
"556 877 LINE",
"539 837 OFFCURVE",
"516 811 OFFCURVE",
"484 811 CURVE SMOOTH",
"444 811 OFFCURVE",
"411 870 OFFCURVE",
"370 870 CURVE SMOOTH",
"335 870 OFFCURVE",
"301 846 OFFCURVE",
"281 785 CURVE"
);
}
);
width = 543;
}
);
note = Etilde;
unicode = 1EBC;
},
{
glyphname = F;
lastChange = "2015-10-26 01:20:27 +0000";
layers = (
{
layerId = "F5311820-4606-4FC3-8850-6A1C02DF84E8";
name = "Light Italic";
paths = (
{
closed = 1;
nodes = (
"192 0 LINE",
"193 5 LINE",
"172 13 OFFCURVE",
"145 18 OFFCURVE",
"118 22 CURVE",
"252 678 LINE",
"557 678 LINE",
"555 660 OFFCURVE",
"551 627 OFFCURVE",
"551 603 CURVE SMOOTH",
"551 596 OFFCURVE",
"551 590 OFFCURVE",
"552 586 CURVE",
"561 586 LINE",
"584 700 LINE",
"152 700 LINE",
"151 695 LINE",
"172 687 OFFCURVE",
"199 682 OFFCURVE",
"226 678 CURVE",
"91 21 LINE",
"49 17 OFFCURVE",
"28 12 OFFCURVE",
"11 6 CURVE",
"10 0 LINE"
);
},
{
closed = 1;
nodes = (
"426 269 LINE",
"463 451 LINE",
"455 451 LINE",
"444 430 OFFCURVE",
"429 389 OFFCURVE",
"423 371 CURVE",
"185 371 LINE SMOOTH",
"185 371 OFFCURVE",
"181 349 OFFCURVE",
"181 349 CURVE",
"420 349 LINE",
"419 337 OFFCURVE",
"417 317 OFFCURVE",
"417 297 CURVE SMOOTH",
"417 287 OFFCURVE",
"418 277 OFFCURVE",
"419 269 CURVE"
);
}
);
width = 507;
}
);
note = F;
unicode = 0046;
},
{
glyphname = G;
lastChange = "2015-10-25 23:58:36 +0000";
layers = (
{
layerId = "F5311820-4606-4FC3-8850-6A1C02DF84E8";
name = "Light Italic";
paths = (
{
closed = 1;
nodes = (
"348 -10 OFFCURVE",
"432 10 OFFCURVE",
"488 51 CURVE",
"542 316 LINE",
"582 320 OFFCURVE",
"598 326 OFFCURVE",
"613 332 CURVE",
"614 338 LINE",
"444 338 LINE",
"444 333 LINE",
"465 326 OFFCURVE",
"492 320 OFFCURVE",
"518 316 CURVE",
"465 55 LINE",
"410 25 OFFCURVE",
"332 12 OFFCURVE",
"293 12 CURVE SMOOTH",
"138 12 OFFCURVE",
"84 102 OFFCURVE",
"84 227 CURVE SMOOTH",
"84 265 OFFCURVE",
"89 307 OFFCURVE",
"98 350 CURVE SMOOTH",
"135 536 OFFCURVE",
"242 688 OFFCURVE",
"438 688 CURVE SMOOTH",
"497 688 OFFCURVE",
"576 664 OFFCURVE",
"593 645 CURVE",
"593 644 OFFCURVE",
"593 642 OFFCURVE",
"593 641 CURVE",
"591 622 OFFCURVE",
"588 591 OFFCURVE",
"588 570 CURVE SMOOTH",
"588 563 OFFCURVE",
"588 557 OFFCURVE",
"588 553 CURVE",
"597 553 LINE",
"623 651 LINE",
"591 687 OFFCURVE",
"503 710 OFFCURVE",
"434 710 CURVE SMOOTH",
"252 710 OFFCURVE",
"116 573 OFFCURVE",
"71 350 CURVE SMOOTH",
"61 305 OFFCURVE",
"58 263 OFFCURVE",
"58 225 CURVE SMOOTH",
"58 77 OFFCURVE",
"130 -10 OFFCURVE",
"278 -10 CURVE SMOOTH"
);
}
);
width = 596;
}
);
leftKerningGroup = G;
note = G;
unicode = 0047;
},
{
glyphname = Gbreve;
lastChange = "2015-10-26 01:20:27 +0000";
layers = (
{
layerId = "F5311820-4606-4FC3-8850-6A1C02DF84E8";
name = "Light Italic";
paths = (
{
closed = 1;
nodes = (
"348 -10 OFFCURVE",
"432 10 OFFCURVE",
"488 51 CURVE",
"542 316 LINE",
"582 320 OFFCURVE",
"598 326 OFFCURVE",
"613 332 CURVE",
"614 338 LINE",
"444 338 LINE",
"444 333 LINE",
"465 326 OFFCURVE",
"492 320 OFFCURVE",
"518 316 CURVE",
"465 55 LINE",
"410 25 OFFCURVE",
"332 12 OFFCURVE",
"293 12 CURVE SMOOTH",
"138 12 OFFCURVE",
"84 102 OFFCURVE",
"84 227 CURVE SMOOTH",
"84 265 OFFCURVE",
"89 307 OFFCURVE",
"98 350 CURVE SMOOTH",
"135 536 OFFCURVE",
"242 688 OFFCURVE",
"438 688 CURVE SMOOTH",
"497 688 OFFCURVE",
"576 664 OFFCURVE",
"593 645 CURVE",
"593 644 OFFCURVE",
"593 642 OFFCURVE",
"593 641 CURVE",
"591 622 OFFCURVE",
"588 591 OFFCURVE",
"588 570 CURVE SMOOTH",
"588 563 OFFCURVE",
"588 557 OFFCURVE",
"588 553 CURVE",
"597 553 LINE",
"623 651 LINE",
"591 687 OFFCURVE",
"503 710 OFFCURVE",
"434 710 CURVE SMOOTH",
"252 710 OFFCURVE",
"116 573 OFFCURVE",
"71 350 CURVE SMOOTH",
"61 305 OFFCURVE",
"58 263 OFFCURVE",
"58 225 CURVE SMOOTH",
"58 77 OFFCURVE",
"130 -10 OFFCURVE",
"278 -10 CURVE SMOOTH"
);
},
{
closed = 1;
nodes = (
"513 773 OFFCURVE",
"570 808 OFFCURVE",
"592 886 CURVE",
"567 886 LINE",
"542 807 OFFCURVE",
"489 795 OFFCURVE",
"449 795 CURVE SMOOTH",
"413 795 OFFCURVE",
"367 805 OFFCURVE",
"367 870 CURVE SMOOTH",
"367 875 OFFCURVE",
"367 880 OFFCURVE",
"368 886 CURVE",
"343 886 LINE",
"342 878 OFFCURVE",
"341 870 OFFCURVE",
"341 863 CURVE SMOOTH",
"341 801 OFFCURVE",
"383 773 OFFCURVE",
"444 773 CURVE SMOOTH"
);
}
);
width = 596;
}
);
leftKerningGroup = G;
note = Gbreve;
unicode = 011E;
},
{
glyphname = Gcaron;
lastChange = "2015-10-25 23:53:08 +0000";
layers = (
{
layerId = "F5311820-4606-4FC3-8850-6A1C02DF84E8";
name = "Light Italic";
paths = (
{
closed = 1;
nodes = (
"348 -10 OFFCURVE",
"432 10 OFFCURVE",
"488 51 CURVE",
"542 316 LINE",
"582 320 OFFCURVE",
"598 326 OFFCURVE",
"613 332 CURVE",
"614 338 LINE",
"444 338 LINE",
"444 333 LINE",
"465 326 OFFCURVE",
"492 320 OFFCURVE",
"518 316 CURVE",
"465 55 LINE",
"410 25 OFFCURVE",
"332 12 OFFCURVE",
"293 12 CURVE SMOOTH",
"138 12 OFFCURVE",
"84 102 OFFCURVE",
"84 227 CURVE SMOOTH",
"84 265 OFFCURVE",
"89 307 OFFCURVE",
"98 350 CURVE SMOOTH",
"135 536 OFFCURVE",
"242 688 OFFCURVE",
"438 688 CURVE SMOOTH",
"497 688 OFFCURVE",
"576 664 OFFCURVE",
"593 645 CURVE",
"593 644 OFFCURVE",
"593 642 OFFCURVE",
"593 641 CURVE",
"591 622 OFFCURVE",
"588 591 OFFCURVE",
"588 570 CURVE SMOOTH",
"588 563 OFFCURVE",
"588 557 OFFCURVE",
"588 553 CURVE",
"597 553 LINE",
"623 651 LINE",
"591 687 OFFCURVE",
"503 710 OFFCURVE",
"434 710 CURVE SMOOTH",
"252 710 OFFCURVE",
"116 573 OFFCURVE",
"71 350 CURVE SMOOTH",
"61 305 OFFCURVE",
"58 263 OFFCURVE",
"58 225 CURVE SMOOTH",
"58 77 OFFCURVE",
"130 -10 OFFCURVE",
"278 -10 CURVE SMOOTH"
);
},
{
closed = 1;
nodes = (
"453 806 LINE",
"495 852 OFFCURVE",
"537 883 OFFCURVE",
"577 909 CURVE",
"568 927 LINE",
"530 903 OFFCURVE",
"491 873 OFFCURVE",
"456 838 CURVE",
"450 838 LINE",
"429 873 OFFCURVE",
"401 903 OFFCURVE",
"374 927 CURVE",
"358 909 LINE",
"387 883 OFFCURVE",
"417 852 OFFCURVE",
"440 806 CURVE"
);
}
);
width = 596;
}
);
leftKerningGroup = G;
note = Gcaron;
unicode = 01E6;
},
{
glyphname = Gcircumflex;
lastChange = "2015-10-25 23:53:09 +0000";
layers = (
{
layerId = "F5311820-4606-4FC3-8850-6A1C02DF84E8";
name = "Light Italic";
paths = (
{
closed = 1;
nodes = (
"348 -10 OFFCURVE",
"432 10 OFFCURVE",
"488 51 CURVE",
"542 316 LINE",
"582 320 OFFCURVE",
"598 326 OFFCURVE",
"613 332 CURVE",
"614 338 LINE",
"444 338 LINE",
"444 333 LINE",
"465 326 OFFCURVE",
"492 320 OFFCURVE",
"518 316 CURVE",
"465 55 LINE",
"410 25 OFFCURVE",
"332 12 OFFCURVE",
"293 12 CURVE SMOOTH",
"138 12 OFFCURVE",
"84 102 OFFCURVE",
"84 227 CURVE SMOOTH",
"84 265 OFFCURVE",
"89 307 OFFCURVE",
"98 350 CURVE SMOOTH",
"135 536 OFFCURVE",
"242 688 OFFCURVE",
"438 688 CURVE SMOOTH",
"497 688 OFFCURVE",
"576 664 OFFCURVE",
"593 645 CURVE",
"593 644 OFFCURVE",
"593 642 OFFCURVE",
"593 641 CURVE",
"591 622 OFFCURVE",
"588 591 OFFCURVE",
"588 570 CURVE SMOOTH",
"588 563 OFFCURVE",
"588 557 OFFCURVE",
"588 553 CURVE",
"597 553 LINE",
"623 651 LINE",
"591 687 OFFCURVE",
"503 710 OFFCURVE",
"434 710 CURVE SMOOTH",
"252 710 OFFCURVE",
"116 573 OFFCURVE",
"71 350 CURVE SMOOTH",
"61 305 OFFCURVE",
"58 263 OFFCURVE",
"58 225 CURVE SMOOTH",
"58 77 OFFCURVE",
"130 -10 OFFCURVE",
"278 -10 CURVE SMOOTH"
);
},
{
closed = 1;
nodes = (
"401 801 OFFCURVE",
"441 831 OFFCURVE",
"476 866 CURVE",
"482 866 LINE",
"502 831 OFFCURVE",
"530 801 OFFCURVE",
"558 777 CURVE",
"574 795 LINE",
"544 821 OFFCURVE",
"516 852 OFFCURVE",
"492 898 CURVE",
"478 898 LINE",
"437 852 OFFCURVE",
"395 821 OFFCURVE",
"355 795 CURVE",
"364 777 LINE"
);
}
);
width = 596;
}
);
leftKerningGroup = G;
note = Gcircumflex;
unicode = 011C;
},
{
glyphname = Gcommaaccent;
lastChange = "2015-10-26 01:20:27 +0000";
layers = (
{
layerId = "F5311820-4606-4FC3-8850-6A1C02DF84E8";
name = "Light Italic";
paths = (
{
closed = 1;
nodes = (
"348 -10 OFFCURVE",
"432 10 OFFCURVE",
"488 51 CURVE",
"542 316 LINE",
"582 320 OFFCURVE",
"598 326 OFFCURVE",
"613 332 CURVE",
"614 338 LINE",
"444 338 LINE",
"444 333 LINE",
"465 326 OFFCURVE",
"492 320 OFFCURVE",
"518 316 CURVE",
"465 55 LINE",
"410 25 OFFCURVE",
"332 12 OFFCURVE",
"293 12 CURVE SMOOTH",
"138 12 OFFCURVE",
"84 102 OFFCURVE",
"84 227 CURVE SMOOTH",
"84 265 OFFCURVE",
"89 307 OFFCURVE",
"98 350 CURVE SMOOTH",
"135 536 OFFCURVE",
"242 688 OFFCURVE",
"438 688 CURVE SMOOTH",
"497 688 OFFCURVE",
"576 664 OFFCURVE",
"593 645 CURVE",
"593 644 OFFCURVE",
"593 642 OFFCURVE",
"593 641 CURVE",
"591 622 OFFCURVE",
"588 591 OFFCURVE",
"588 570 CURVE SMOOTH",
"588 563 OFFCURVE",
"588 557 OFFCURVE",
"588 553 CURVE",
"597 553 LINE",
"623 651 LINE",
"591 687 OFFCURVE",
"503 710 OFFCURVE",
"434 710 CURVE SMOOTH",
"252 710 OFFCURVE",
"116 573 OFFCURVE",
"71 350 CURVE SMOOTH",
"61 305 OFFCURVE",
"58 263 OFFCURVE",
"58 225 CURVE SMOOTH",
"58 77 OFFCURVE",
"130 -10 OFFCURVE",
"278 -10 CURVE SMOOTH"
);
},
{
closed = 1;
nodes = (
"261 -206 OFFCURVE",
"289 -145 OFFCURVE",
"296 -111 CURVE SMOOTH",
"297 -103 OFFCURVE",
"298 -96 OFFCURVE",
"298 -90 CURVE SMOOTH",
"298 -69 OFFCURVE",
"290 -56 OFFCURVE",
"267 -56 CURVE SMOOTH",
"251 -56 OFFCURVE",
"233 -65 OFFCURVE",
"228 -88 CURVE SMOOTH",
"225 -104 OFFCURVE",
"232 -118 OFFCURVE",
"247 -118 CURVE SMOOTH",
"252 -118 OFFCURVE",
"261 -118 OFFCURVE",
"268 -114 CURVE",
"266 -124 LINE SMOOTH",
"259 -158 OFFCURVE",
"240 -196 OFFCURVE",
"215 -222 CURVE",
"228 -235 LINE"
);
}
);
width = 596;
}
);
leftKerningGroup = G;
note = Gcommaaccent;
unicode = 0122;
},
{
glyphname = Gdotaccent;
lastChange = "2015-10-26 01:20:27 +0000";
layers = (
{
layerId = "F5311820-4606-4FC3-8850-6A1C02DF84E8";
name = "Light Italic";
paths = (
{
closed = 1;
nodes = (
"348 -10 OFFCURVE",
"432 10 OFFCURVE",
"488 51 CURVE",
"542 316 LINE",
"582 320 OFFCURVE",
"598 326 OFFCURVE",
"613 332 CURVE",
"614 338 LINE",
"444 338 LINE",
"444 333 LINE",
"465 326 OFFCURVE",
"492 320 OFFCURVE",
"518 316 CURVE",
"465 55 LINE",
"410 25 OFFCURVE",
"332 12 OFFCURVE",
"293 12 CURVE SMOOTH",
"138 12 OFFCURVE",
"84 102 OFFCURVE",
"84 227 CURVE SMOOTH",
"84 265 OFFCURVE",
"89 307 OFFCURVE",
"98 350 CURVE SMOOTH",
"135 536 OFFCURVE",
"242 688 OFFCURVE",
"438 688 CURVE SMOOTH",
"497 688 OFFCURVE",
"576 664 OFFCURVE",
"593 645 CURVE",
"593 644 OFFCURVE",
"593 642 OFFCURVE",
"593 641 CURVE",
"591 622 OFFCURVE",
"588 591 OFFCURVE",
"588 570 CURVE SMOOTH",
"588 563 OFFCURVE",
"588 557 OFFCURVE",
"588 553 CURVE",
"597 553 LINE",
"623 651 LINE",
"591 687 OFFCURVE",
"503 710 OFFCURVE",
"434 710 CURVE SMOOTH",
"252 710 OFFCURVE",
"116 573 OFFCURVE",
"71 350 CURVE SMOOTH",
"61 305 OFFCURVE",
"58 263 OFFCURVE",
"58 225 CURVE SMOOTH",
"58 77 OFFCURVE",
"130 -10 OFFCURVE",
"278 -10 CURVE SMOOTH"
);
},
{
closed = 1;
nodes = (
"469 785 OFFCURVE",
"486 799 OFFCURVE",
"486 823 CURVE SMOOTH",
"486 837 OFFCURVE",
"477 845 OFFCURVE",
"464 845 CURVE SMOOTH",
"446 845 OFFCURVE",
"430 831 OFFCURVE",
"430 806 CURVE SMOOTH",
"430 793 OFFCURVE",
"438 785 OFFCURVE",
"451 785 CURVE SMOOTH"
);
}
);
width = 596;
}
);
leftKerningGroup = G;
note = Gdotaccent;
unicode = 0120;
},
{
glyphname = Gmacron;
lastChange = "2015-10-25 23:53:09 +0000";
layers = (
{
layerId = "F5311820-4606-4FC3-8850-6A1C02DF84E8";
name = "Light Italic";
paths = (
{
closed = 1;
nodes = (
"348 -10 OFFCURVE",
"432 10 OFFCURVE",
"488 51 CURVE",
"542 316 LINE",
"582 320 OFFCURVE",
"598 326 OFFCURVE",
"613 332 CURVE",
"614 338 LINE",
"444 338 LINE",
"444 333 LINE",
"465 326 OFFCURVE",
"492 320 OFFCURVE",
"518 316 CURVE",
"465 55 LINE",
"410 25 OFFCURVE",
"332 12 OFFCURVE",
"293 12 CURVE SMOOTH",
"138 12 OFFCURVE",
"84 102 OFFCURVE",
"84 227 CURVE SMOOTH",
"84 265 OFFCURVE",
"89 307 OFFCURVE",
"98 350 CURVE SMOOTH",
"135 536 OFFCURVE",
"242 688 OFFCURVE",
"438 688 CURVE SMOOTH",
"497 688 OFFCURVE",
"576 664 OFFCURVE",
"593 645 CURVE",
"593 644 OFFCURVE",
"593 642 OFFCURVE",
"593 641 CURVE",
"591 622 OFFCURVE",
"588 591 OFFCURVE",
"588 570 CURVE SMOOTH",
"588 563 OFFCURVE",
"588 557 OFFCURVE",
"588 553 CURVE",
"597 553 LINE",
"623 651 LINE",
"591 687 OFFCURVE",
"503 710 OFFCURVE",
"434 710 CURVE SMOOTH",
"252 710 OFFCURVE",
"116 573 OFFCURVE",
"71 350 CURVE SMOOTH",
"61 305 OFFCURVE",
"58 263 OFFCURVE",
"58 225 CURVE SMOOTH",
"58 77 OFFCURVE",
"130 -10 OFFCURVE",
"278 -10 CURVE SMOOTH"
);
},
{
closed = 1;
nodes = (
"591 785 LINE",
"596 807 LINE",
"332 807 LINE",
"327 785 LINE"
);
}
);
width = 596;
}
);
leftKerningGroup = G;
note = Gmacron;
unicode = 1E20;
},
{
glyphname = H;
lastChange = "2015-10-25 23:53:10 +0000";
layers = (
{
layerId = "F5311820-4606-4FC3-8850-6A1C02DF84E8";
name = "Light Italic";
paths = (
{
closed = 1;
nodes = (
"639 0 LINE",
"640 5 LINE",
"619 13 OFFCURVE",
"591 18 OFFCURVE",
"565 22 CURVE",
"700 679 LINE",
"742 683 OFFCURVE",
"763 688 OFFCURVE",
"780 694 CURVE",
"781 700 LINE",
"601 700 LINE",
"600 695 LINE",
"621 687 OFFCURVE",
"646 682 OFFCURVE",
"673 678 CURVE",
"539 21 LINE",
"496 17 OFFCURVE",
"477 12 OFFCURVE",
"460 6 CURVE",
"459 0 LINE"
);
},
{
closed = 1;
nodes = (
"190 0 LINE",
"191 5 LINE",
"170 13 OFFCURVE",
"144 18 OFFCURVE",
"118 22 CURVE",
"252 679 LINE",
"295 683 OFFCURVE",
"314 688 OFFCURVE",
"331 694 CURVE",
"332 700 LINE",
"152 700 LINE",
"151 695 LINE",
"172 687 OFFCURVE",
"199 682 OFFCURVE",
"226 678 CURVE",
"91 21 LINE",
"49 17 OFFCURVE",
"28 12 OFFCURVE",
"11 6 CURVE",
"10 0 LINE"
);
},
{
closed = 1;
nodes = (
"618 345 LINE",
"623 367 LINE",
"177 367 LINE",
"172 345 LINE"
);
}
);
width = 726;
}
);
note = H;
unicode = 0048;
},
{
glyphname = Hbar;
lastChange = "2015-10-25 23:53:09 +0000";
layers = (
{
layerId = "F5311820-4606-4FC3-8850-6A1C02DF84E8";
name = "Light Italic";
paths = (
{
closed = 1;
nodes = (
"639 0 LINE",
"640 5 LINE",
"619 13 OFFCURVE",
"591 18 OFFCURVE",
"565 22 CURVE",
"700 679 LINE",
"742 683 OFFCURVE",
"763 688 OFFCURVE",
"780 694 CURVE",
"781 700 LINE",
"601 700 LINE",
"600 695 LINE",
"621 687 OFFCURVE",
"646 682 OFFCURVE",
"673 678 CURVE",
"539 21 LINE",
"496 17 OFFCURVE",
"477 12 OFFCURVE",
"460 6 CURVE",
"459 0 LINE"
);
},
{
closed = 1;
nodes = (
"190 0 LINE",
"191 5 LINE",
"170 13 OFFCURVE",
"144 18 OFFCURVE",
"118 22 CURVE",
"252 679 LINE",
"295 683 OFFCURVE",
"314 688 OFFCURVE",
"331 694 CURVE",
"332 700 LINE",
"152 700 LINE",
"151 695 LINE",
"172 687 OFFCURVE",
"199 682 OFFCURVE",
"226 678 CURVE",
"91 21 LINE",
"49 17 OFFCURVE",
"28 12 OFFCURVE",
"11 6 CURVE",
"10 0 LINE"
);
},
{
closed = 1;
nodes = (
"618 345 LINE",
"623 367 LINE",
"177 367 LINE",
"172 345 LINE"
);
},
{
closed = 1;
nodes = (
"725 515 LINE",
"730 537 LINE",
"138 537 LINE",
"133 515 LINE"
);
}
);
width = 726;
}
);
note = Hbar;
unicode = 0126;
},
{
glyphname = Hbrevebelow;
lastChange = "2015-10-26 01:20:27 +0000";
layers = (
{
layerId = "F5311820-4606-4FC3-8850-6A1C02DF84E8";
name = "Light Italic";
paths = (
{
closed = 1;
nodes = (
"639 0 LINE",
"640 5 LINE",
"619 13 OFFCURVE",
"591 18 OFFCURVE",
"565 22 CURVE",
"700 679 LINE",
"742 683 OFFCURVE",
"763 688 OFFCURVE",
"780 694 CURVE",
"781 700 LINE",
"601 700 LINE",
"600 695 LINE",
"621 687 OFFCURVE",
"646 682 OFFCURVE",
"673 678 CURVE",
"539 21 LINE",
"496 17 OFFCURVE",
"477 12 OFFCURVE",
"460 6 CURVE",
"459 0 LINE"
);
},
{
closed = 1;
nodes = (
"359 -163 OFFCURVE",
"417 -128 OFFCURVE",
"439 -50 CURVE",
"414 -50 LINE",
"389 -129 OFFCURVE",
"335 -141 OFFCURVE",
"297 -141 CURVE SMOOTH",
"260 -141 OFFCURVE",
"214 -131 OFFCURVE",
"214 -66 CURVE SMOOTH",
"214 -61 OFFCURVE",
"214 -56 OFFCURVE",
"215 -50 CURVE",
"190 -50 LINE",
"189 -57 OFFCURVE",
"189 -64 OFFCURVE",
"189 -71 CURVE SMOOTH",
"189 -134 OFFCURVE",
"230 -163 OFFCURVE",
"292 -163 CURVE SMOOTH"
);
},
{
closed = 1;
nodes = (
"190 0 LINE",
"191 5 LINE",
"170 13 OFFCURVE",
"144 18 OFFCURVE",
"118 22 CURVE",
"252 679 LINE",
"295 683 OFFCURVE",
"314 688 OFFCURVE",
"331 694 CURVE",
"332 700 LINE",
"152 700 LINE",
"151 695 LINE",
"172 687 OFFCURVE",
"199 682 OFFCURVE",
"226 678 CURVE",
"91 21 LINE",
"49 17 OFFCURVE",
"28 12 OFFCURVE",
"11 6 CURVE",
"10 0 LINE"
);
},
{
closed = 1;
nodes = (
"618 345 LINE",
"623 367 LINE",
"177 367 LINE",
"172 345 LINE"
);
}
);
width = 726;
}
);
note = Hbrevebelow;
unicode = 1E2A;
},
{
glyphname = Hcircumflex;
lastChange = "2015-10-25 23:53:08 +0000";
layers = (
{
layerId = "F5311820-4606-4FC3-8850-6A1C02DF84E8";
name = "Light Italic";
paths = (
{
closed = 1;
nodes = (
"639 0 LINE",
"640 5 LINE",
"619 13 OFFCURVE",
"591 18 OFFCURVE",
"565 22 CURVE",
"700 679 LINE",
"742 683 OFFCURVE",
"763 688 OFFCURVE",
"780 694 CURVE",
"781 700 LINE",
"601 700 LINE",
"600 695 LINE",
"621 687 OFFCURVE",
"646 682 OFFCURVE",
"673 678 CURVE",
"539 21 LINE",
"496 17 OFFCURVE",
"477 12 OFFCURVE",
"460 6 CURVE",
"459 0 LINE"
);
},
{
closed = 1;
nodes = (
"190 0 LINE",
"191 5 LINE",
"170 13 OFFCURVE",
"144 18 OFFCURVE",
"118 22 CURVE",
"252 679 LINE",
"295 683 OFFCURVE",
"314 688 OFFCURVE",
"331 694 CURVE",
"332 700 LINE",
"152 700 LINE",
"151 695 LINE",
"172 687 OFFCURVE",
"199 682 OFFCURVE",
"226 678 CURVE",
"91 21 LINE",
"49 17 OFFCURVE",
"28 12 OFFCURVE",
"11 6 CURVE",
"10 0 LINE"
);
},
{
closed = 1;
nodes = (
"618 345 LINE",
"623 367 LINE",
"177 367 LINE",
"172 345 LINE"
);
},
{
closed = 1;
nodes = (
"422 801 OFFCURVE",
"462 831 OFFCURVE",
"497 866 CURVE",
"503 866 LINE",
"523 831 OFFCURVE",
"551 801 OFFCURVE",
"579 777 CURVE",
"595 795 LINE",
"565 821 OFFCURVE",
"537 852 OFFCURVE",
"513 898 CURVE",
"499 898 LINE",
"458 852 OFFCURVE",
"416 821 OFFCURVE",
"376 795 CURVE",
"385 777 LINE"
);
}
);
width = 726;
}
);
note = Hcircumflex;
unicode = 0124;
},
{
glyphname = Hdotbelow;
lastChange = "2015-10-26 01:20:27 +0000";
layers = (
{
layerId = "F5311820-4606-4FC3-8850-6A1C02DF84E8";
name = "Light Italic";
paths = (
{
closed = 1;
nodes = (
"639 0 LINE",
"640 5 LINE",
"619 13 OFFCURVE",
"591 18 OFFCURVE",
"565 22 CURVE",
"700 679 LINE",
"742 683 OFFCURVE",
"763 688 OFFCURVE",
"780 694 CURVE",
"781 700 LINE",
"601 700 LINE",
"600 695 LINE",
"621 687 OFFCURVE",
"646 682 OFFCURVE",
"673 678 CURVE",
"539 21 LINE",
"496 17 OFFCURVE",
"477 12 OFFCURVE",
"460 6 CURVE",
"459 0 LINE"
);
},
{
closed = 1;
nodes = (
"309 -124 OFFCURVE",
"323 -113 OFFCURVE",
"327 -94 CURVE",
"328 -91 OFFCURVE",
"328 -88 OFFCURVE",
"328 -86 CURVE SMOOTH",
"328 -72 OFFCURVE",
"319 -64 OFFCURVE",
"306 -64 CURVE SMOOTH",
"291 -64 OFFCURVE",
"277 -75 OFFCURVE",
"274 -94 CURVE",
"273 -98 OFFCURVE",
"273 -101 OFFCURVE",
"273 -104 CURVE SMOOTH",
"273 -117 OFFCURVE",
"281 -124 OFFCURVE",
"294 -124 CURVE SMOOTH"
);
},
{
closed = 1;
nodes = (
"190 0 LINE",
"191 5 LINE",
"170 13 OFFCURVE",
"144 18 OFFCURVE",
"118 22 CURVE",
"252 679 LINE",
"295 683 OFFCURVE",
"314 688 OFFCURVE",
"331 694 CURVE",
"332 700 LINE",
"152 700 LINE",
"151 695 LINE",
"172 687 OFFCURVE",
"199 682 OFFCURVE",
"226 678 CURVE",
"91 21 LINE",
"49 17 OFFCURVE",
"28 12 OFFCURVE",
"11 6 CURVE",
"10 0 LINE"
);
},
{
closed = 1;
nodes = (
"618 345 LINE",
"623 367 LINE",
"177 367 LINE",
"172 345 LINE"
);
}
);
width = 726;
}
);
note = Hdotbelow;
unicode = 1E24;
},
{
glyphname = I;
lastChange = "2015-10-25 23:53:09 +0000";
layers = (
{
layerId = "F5311820-4606-4FC3-8850-6A1C02DF84E8";
name = "Light Italic";
paths = (
{
closed = 1;
nodes = (
"199 0 LINE",
"200 5 LINE",
"178 13 OFFCURVE",
"151 18 OFFCURVE",
"124 22 CURVE",
"258 679 LINE",
"286 682 OFFCURVE",
"316 687 OFFCURVE",
"340 695 CURVE",
"341 700 LINE",
"156 700 LINE",
"156 695 LINE",
"178 687 OFFCURVE",
"204 682 OFFCURVE",
"231 678 CURVE",
"97 21 LINE",
"68 18 OFFCURVE",
"39 13 OFFCURVE",
"15 5 CURVE",
"14 0 LINE"
);
}
);
width = 290;
}
);
note = I;
unicode = 0049;
},
{
glyphname = IJ;
lastChange = "2015-10-25 23:53:10 +0000";
layers = (
{
layerId = "F5311820-4606-4FC3-8850-6A1C02DF84E8";
name = "Light Italic";
paths = (
{
closed = 1;
nodes = (
"487 -10 OFFCURVE",
"542 44 OFFCURVE",
"559 125 CURVE SMOOTH",
"672 679 LINE",
"714 683 OFFCURVE",
"735 688 OFFCURVE",
"753 694 CURVE",
"754 700 LINE",
"571 700 LINE",
"570 693 LINE",
"586 687 OFFCURVE",
"604 682 OFFCURVE",
"645 678 CURVE",
"533 131 LINE SMOOTH",
"516 46 OFFCURVE",
"461 16 OFFCURVE",
"391 16 CURVE SMOOTH",
"348 16 OFFCURVE",
"316 25 OFFCURVE",
"289 41 CURVE",
"280 31 LINE",
"306 6 OFFCURVE",
"338 -10 OFFCURVE",
"394 -10 CURVE SMOOTH"
);
},
{
closed = 1;
nodes = (
"199 0 LINE",
"200 5 LINE",
"178 13 OFFCURVE",
"151 18 OFFCURVE",
"124 22 CURVE",
"258 679 LINE",
"286 682 OFFCURVE",
"316 687 OFFCURVE",
"340 695 CURVE",
"341 700 LINE",
"156 700 LINE",
"156 695 LINE",
"178 687 OFFCURVE",
"204 682 OFFCURVE",
"231 678 CURVE",
"97 21 LINE",
"68 18 OFFCURVE",
"39 13 OFFCURVE",
"15 5 CURVE",
"14 0 LINE"
);
}
);
width = 698;
}
);
note = IJ;
rightKerningGroup = J;
unicode = 0132;
},
{
glyphname = Iacute;
lastChange = "2015-10-26 01:20:27 +0000";
layers = (
{
layerId = "F5311820-4606-4FC3-8850-6A1C02DF84E8";
name = "Light Italic";
paths = (
{
closed = 1;
nodes = (
"199 0 LINE",
"200 5 LINE",
"178 13 OFFCURVE",
"151 18 OFFCURVE",
"124 22 CURVE",
"258 679 LINE",
"286 682 OFFCURVE",
"316 687 OFFCURVE",
"340 695 CURVE",
"341 700 LINE",
"156 700 LINE",
"156 695 LINE",
"178 687 OFFCURVE",
"204 682 OFFCURVE",
"231 678 CURVE",
"97 21 LINE",
"68 18 OFFCURVE",
"39 13 OFFCURVE",
"15 5 CURVE",
"14 0 LINE"
);
},
{
closed = 1;
nodes = (
"336 859 LINE SMOOTH",
"350 866 OFFCURVE",
"356 877 OFFCURVE",
"356 885 CURVE SMOOTH",
"356 892 OFFCURVE",
"351 896 OFFCURVE",
"346 896 CURVE SMOOTH",
"336 896 OFFCURVE",
"326 891 OFFCURVE",
"318 884 CURVE",
"198 797 LINE",
"203 787 LINE"
);
}
);
width = 290;
}
);
note = Iacute;
unicode = 00CD;
},
{
glyphname = Ibreve;
lastChange = "2015-10-26 01:20:27 +0000";
layers = (
{
layerId = "F5311820-4606-4FC3-8850-6A1C02DF84E8";
name = "Light Italic";
paths = (
{
closed = 1;
nodes = (
"199 0 LINE",
"200 5 LINE",
"178 13 OFFCURVE",
"151 18 OFFCURVE",
"124 22 CURVE",
"258 679 LINE",
"286 682 OFFCURVE",
"316 687 OFFCURVE",
"340 695 CURVE",
"341 700 LINE",
"156 700 LINE",
"156 695 LINE",
"178 687 OFFCURVE",
"204 682 OFFCURVE",
"231 678 CURVE",
"97 21 LINE",
"68 18 OFFCURVE",
"39 13 OFFCURVE",
"15 5 CURVE",
"14 0 LINE"
);
},
{
closed = 1;
nodes = (
"331 773 OFFCURVE",
"389 808 OFFCURVE",
"411 886 CURVE",
"386 886 LINE",
"361 807 OFFCURVE",
"307 795 OFFCURVE",
"268 795 CURVE SMOOTH",
"231 795 OFFCURVE",
"185 805 OFFCURVE",
"185 871 CURVE SMOOTH",
"185 876 OFFCURVE",
"186 881 OFFCURVE",
"186 886 CURVE",
"161 886 LINE",
"160 879 OFFCURVE",
"160 872 OFFCURVE",
"160 865 CURVE SMOOTH",
"160 802 OFFCURVE",
"201 773 OFFCURVE",
"263 773 CURVE SMOOTH"
);
}
);
width = 290;
}
);
note = Ibreve;
unicode = 012C;
},
{
glyphname = Icaron;
lastChange = "2015-10-25 23:53:10 +0000";
layers = (
{
layerId = "F5311820-4606-4FC3-8850-6A1C02DF84E8";
name = "Light Italic";
paths = (
{
closed = 1;
nodes = (
"199 0 LINE",
"200 5 LINE",
"178 13 OFFCURVE",
"151 18 OFFCURVE",
"124 22 CURVE",
"258 679 LINE",
"286 682 OFFCURVE",
"316 687 OFFCURVE",
"340 695 CURVE",
"341 700 LINE",
"156 700 LINE",
"156 695 LINE",
"178 687 OFFCURVE",
"204 682 OFFCURVE",
"231 678 CURVE",
"97 21 LINE",
"68 18 OFFCURVE",
"39 13 OFFCURVE",
"15 5 CURVE",
"14 0 LINE"
);
},
{
closed = 1;
nodes = (
"273 787 LINE",
"315 833 OFFCURVE",
"356 864 OFFCURVE",
"396 890 CURVE",
"388 908 LINE",
"349 884 OFFCURVE",
"310 854 OFFCURVE",
"276 819 CURVE",
"270 819 LINE",
"249 854 OFFCURVE",
"221 884 OFFCURVE",
"194 908 CURVE",
"178 890 LINE",
"206 864 OFFCURVE",
"236 833 OFFCURVE",
"259 787 CURVE"
);
}
);
width = 290;
}
);
note = Icaron;
unicode = 01CF;
},
{
glyphname = Icircumflex;
lastChange = "2015-10-25 23:53:09 +0000";
layers = (
{
layerId = "F5311820-4606-4FC3-8850-6A1C02DF84E8";
name = "Light Italic";
paths = (
{
closed = 1;
nodes = (
"199 0 LINE",
"200 5 LINE",
"178 13 OFFCURVE",
"151 18 OFFCURVE",
"124 22 CURVE",
"258 679 LINE",
"286 682 OFFCURVE",
"316 687 OFFCURVE",
"340 695 CURVE",
"341 700 LINE",
"156 700 LINE",
"156 695 LINE",
"178 687 OFFCURVE",
"204 682 OFFCURVE",
"231 678 CURVE",
"97 21 LINE",
"68 18 OFFCURVE",
"39 13 OFFCURVE",
"15 5 CURVE",
"14 0 LINE"
);
},
{
closed = 1;
nodes = (
"204 801 OFFCURVE",
"244 831 OFFCURVE",
"279 866 CURVE",
"285 866 LINE",
"305 831 OFFCURVE",
"333 801 OFFCURVE",
"361 777 CURVE",
"377 795 LINE",
"348 821 OFFCURVE",
"319 852 OFFCURVE",
"295 898 CURVE",
"281 898 LINE",
"240 852 OFFCURVE",
"198 821 OFFCURVE",
"158 795 CURVE",
"167 777 LINE"
);
}
);
width = 290;
}
);
note = Icircumflex;
unicode = 00CE;
},
{
glyphname = Idieresis;
lastChange = "2015-10-26 01:20:27 +0000";
layers = (
{
layerId = "F5311820-4606-4FC3-8850-6A1C02DF84E8";
name = "Light Italic";
paths = (
{
closed = 1;
nodes = (
"199 0 LINE",
"200 5 LINE",
"178 13 OFFCURVE",
"151 18 OFFCURVE",
"124 22 CURVE",
"258 679 LINE",
"286 682 OFFCURVE",
"316 687 OFFCURVE",
"340 695 CURVE",
"341 700 LINE",
"156 700 LINE",
"156 695 LINE",
"178 687 OFFCURVE",
"204 682 OFFCURVE",
"231 678 CURVE",
"97 21 LINE",
"68 18 OFFCURVE",
"39 13 OFFCURVE",
"15 5 CURVE",
"14 0 LINE"
);
},
{
closed = 1;
nodes = (
"186 785 OFFCURVE",
"204 799 OFFCURVE",
"204 822 CURVE SMOOTH",
"204 837 OFFCURVE",
"195 845 OFFCURVE",
"181 845 CURVE SMOOTH",
"166 845 OFFCURVE",
"153 834 OFFCURVE",
"149 815 CURVE",
"146 796 OFFCURVE",
"154 785 OFFCURVE",
"169 785 CURVE SMOOTH"
);
},
{
closed = 1;
nodes = (
"378 785 OFFCURVE",
"396 799 OFFCURVE",
"396 822 CURVE SMOOTH",
"396 837 OFFCURVE",
"387 845 OFFCURVE",
"373 845 CURVE SMOOTH",
"356 845 OFFCURVE",
"340 831 OFFCURVE",
"340 806 CURVE SMOOTH",
"340 793 OFFCURVE",
"348 785 OFFCURVE",
"361 785 CURVE SMOOTH"
);
}
);
width = 290;
}
);
note = Idieresis;
unicode = 00CF;
},
{
glyphname = Idotaccent;
lastChange = "2015-10-26 01:20:27 +0000";
layers = (
{
layerId = "F5311820-4606-4FC3-8850-6A1C02DF84E8";
name = "Light Italic";
paths = (
{
closed = 1;
nodes = (
"199 0 LINE",
"200 5 LINE",
"178 13 OFFCURVE",
"151 18 OFFCURVE",
"124 22 CURVE",
"258 679 LINE",
"286 682 OFFCURVE",
"316 687 OFFCURVE",
"340 695 CURVE",
"341 700 LINE",
"156 700 LINE",
"156 695 LINE",
"178 687 OFFCURVE",
"204 682 OFFCURVE",
"231 678 CURVE",
"97 21 LINE",
"68 18 OFFCURVE",
"39 13 OFFCURVE",
"15 5 CURVE",
"14 0 LINE"
);
},
{
closed = 1;
nodes = (
"282 785 OFFCURVE",
"300 799 OFFCURVE",
"300 822 CURVE SMOOTH",
"300 837 OFFCURVE",
"291 845 OFFCURVE",
"277 845 CURVE SMOOTH",
"260 845 OFFCURVE",
"244 831 OFFCURVE",
"244 806 CURVE SMOOTH",
"244 793 OFFCURVE",
"252 785 OFFCURVE",
"265 785 CURVE SMOOTH"
);
}
);
width = 290;
}
);
note = Idotaccent;
unicode = 0130;
},
{
glyphname = Idotbelow;
lastChange = "2015-10-26 01:20:27 +0000";
layers = (
{
layerId = "F5311820-4606-4FC3-8850-6A1C02DF84E8";
name = "Light Italic";
paths = (
{
closed = 1;
nodes = (
"199 0 LINE",
"200 5 LINE",
"178 13 OFFCURVE",
"151 18 OFFCURVE",
"124 22 CURVE",
"258 679 LINE",
"286 682 OFFCURVE",
"316 687 OFFCURVE",
"340 695 CURVE",
"341 700 LINE",
"156 700 LINE",
"156 695 LINE",
"178 687 OFFCURVE",
"204 682 OFFCURVE",
"231 678 CURVE",
"97 21 LINE",
"68 18 OFFCURVE",
"39 13 OFFCURVE",
"15 5 CURVE",
"14 0 LINE"
);
},
{
closed = 1;
nodes = (
"97 -124 OFFCURVE",
"110 -113 OFFCURVE",
"115 -94 CURVE",
"116 -91 OFFCURVE",
"116 -88 OFFCURVE",
"116 -86 CURVE SMOOTH",
"116 -72 OFFCURVE",
"107 -64 OFFCURVE",
"94 -64 CURVE SMOOTH",
"79 -64 OFFCURVE",
"65 -75 OFFCURVE",
"61 -94 CURVE",
"60 -97 OFFCURVE",
"60 -100 OFFCURVE",
"60 -102 CURVE SMOOTH",
"60 -116 OFFCURVE",
"69 -124 OFFCURVE",
"82 -124 CURVE SMOOTH"
);
}
);
width = 290;
}
);
note = Idotbelow;
unicode = 1ECA;
},
{
glyphname = Igrave;
lastChange = "2015-10-26 01:20:27 +0000";
layers = (
{
layerId = "F5311820-4606-4FC3-8850-6A1C02DF84E8";
name = "Light Italic";
paths = (
{
closed = 1;
nodes = (
"199 0 LINE",
"200 5 LINE",
"178 13 OFFCURVE",
"151 18 OFFCURVE",
"124 22 CURVE",
"258 679 LINE",
"286 682 OFFCURVE",
"316 687 OFFCURVE",
"340 695 CURVE",
"341 700 LINE",
"156 700 LINE",
"156 695 LINE",
"178 687 OFFCURVE",
"204 682 OFFCURVE",
"231 678 CURVE",
"97 21 LINE",
"68 18 OFFCURVE",
"39 13 OFFCURVE",
"15 5 CURVE",
"14 0 LINE"
);
},
{
closed = 1;
nodes = (
"339 797 LINE",
"253 884 LINE",
"249 891 OFFCURVE",
"241 896 OFFCURVE",
"231 896 CURVE SMOOTH",
"224 896 OFFCURVE",
"214 889 OFFCURVE",
"214 877 CURVE SMOOTH",
"214 871 OFFCURVE",
"218 864 OFFCURVE",
"226 859 CURVE",
"330 787 LINE"
);
}
);
width = 290;
}
);
note = Igrave;
unicode = 00CC;
},
{
glyphname = Ihookabove;
lastChange = "2015-10-26 01:20:27 +0000";
layers = (
{
layerId = "F5311820-4606-4FC3-8850-6A1C02DF84E8";
name = "Light Italic";
paths = (
{
closed = 1;
nodes = (
"199 0 LINE",
"200 5 LINE",
"178 13 OFFCURVE",
"151 18 OFFCURVE",
"124 22 CURVE",
"258 679 LINE",
"286 682 OFFCURVE",
"316 687 OFFCURVE",
"340 695 CURVE",
"341 700 LINE",
"156 700 LINE",
"156 695 LINE",
"178 687 OFFCURVE",
"204 682 OFFCURVE",
"231 678 CURVE",
"97 21 LINE",
"68 18 OFFCURVE",
"39 13 OFFCURVE",
"15 5 CURVE",
"14 0 LINE"
);
},
{
closed = 1;
nodes = (
"275 777 LINE",
"297 836 LINE",
"346 841 OFFCURVE",
"372 868 OFFCURVE",
"380 903 CURVE SMOOTH",
"381 908 OFFCURVE",
"382 914 OFFCURVE",
"382 918 CURVE SMOOTH",
"382 952 OFFCURVE",
"355 969 OFFCURVE",
"322 969 CURVE SMOOTH",
"296 969 OFFCURVE",
"270 961 OFFCURVE",
"252 953 CURVE",
"255 932 LINE",
"276 943 OFFCURVE",
"296 948 OFFCURVE",
"311 948 CURVE SMOOTH",
"342 948 OFFCURVE",
"356 935 OFFCURVE",
"356 915 CURVE SMOOTH",
"356 888 OFFCURVE",
"337 853 OFFCURVE",
"280 853 CURVE SMOOTH",
"270 853 LINE",
"259 777 LINE"
);
}
);
width = 290;
}
);
note = Ihookabove;
unicode = 1EC8;
},
{
glyphname = Imacron;
lastChange = "2015-10-25 23:53:08 +0000";
layers = (
{
layerId = "F5311820-4606-4FC3-8850-6A1C02DF84E8";
name = "Light Italic";
paths = (
{
closed = 1;
nodes = (
"199 0 LINE",
"200 5 LINE",
"178 13 OFFCURVE",
"151 18 OFFCURVE",
"124 22 CURVE",
"258 679 LINE",
"286 682 OFFCURVE",
"316 687 OFFCURVE",
"340 695 CURVE",
"341 700 LINE",
"156 700 LINE",
"156 695 LINE",
"178 687 OFFCURVE",
"204 682 OFFCURVE",
"231 678 CURVE",
"97 21 LINE",
"68 18 OFFCURVE",
"39 13 OFFCURVE",
"15 5 CURVE",
"14 0 LINE"
);
},
{
closed = 1;
nodes = (
"400 785 LINE",
"405 807 LINE",
"141 807 LINE",
"136 785 LINE"
);
}
);
width = 290;
}
);
note = Imacron;
unicode = 012A;
},
{
glyphname = Iogonek;
lastChange = "2015-10-26 01:20:27 +0000";
layers = (
{
layerId = "F5311820-4606-4FC3-8850-6A1C02DF84E8";
name = "Light Italic";
paths = (
{
closed = 1;
nodes = (
"199 0 LINE",
"200 5 LINE",
"178 13 OFFCURVE",
"151 18 OFFCURVE",
"124 22 CURVE",
"258 679 LINE",
"286 682 OFFCURVE",
"316 687 OFFCURVE",
"340 695 CURVE",
"341 700 LINE",
"156 700 LINE",
"156 695 LINE",
"178 687 OFFCURVE",
"204 682 OFFCURVE",
"231 678 CURVE",
"97 21 LINE",
"68 18 OFFCURVE",
"39 13 OFFCURVE",
"15 5 CURVE",
"14 0 LINE"
);
},
{
closed = 1;
nodes = (
"131 -168 OFFCURVE",
"144 -165 OFFCURVE",
"166 -159 CURVE",
"170 -141 LINE",
"156 -145 OFFCURVE",
"142 -147 OFFCURVE",
"129 -147 CURVE SMOOTH",
"102 -147 OFFCURVE",
"79 -138 OFFCURVE",
"79 -110 CURVE SMOOTH",
"79 -66 OFFCURVE",
"121 -22 OFFCURVE",
"170 0 CURVE",
"145 0 LINE",
"99 -20 OFFCURVE",
"65 -54 OFFCURVE",
"57 -98 CURVE SMOOTH",
"56 -103 OFFCURVE",
"55 -108 OFFCURVE",
"55 -114 CURVE SMOOTH",
"55 -140 OFFCURVE",
"70 -168 OFFCURVE",
"112 -168 CURVE SMOOTH"
);
}
);
width = 290;
}
);
note = Iogonek;
unicode = 012E;
},
{
glyphname = Itilde;
lastChange = "2015-10-25 23:53:10 +0000";
layers = (
{
layerId = "F5311820-4606-4FC3-8850-6A1C02DF84E8";
name = "Light Italic";
paths = (
{
closed = 1;
nodes = (
"199 0 LINE",
"200 5 LINE",
"178 13 OFFCURVE",
"151 18 OFFCURVE",
"124 22 CURVE",
"258 679 LINE",
"286 682 OFFCURVE",
"316 687 OFFCURVE",
"340 695 CURVE",
"341 700 LINE",
"156 700 LINE",
"156 695 LINE",
"178 687 OFFCURVE",
"204 682 OFFCURVE",
"231 678 CURVE",
"97 21 LINE",
"68 18 OFFCURVE",
"39 13 OFFCURVE",
"15 5 CURVE",
"14 0 LINE"
);
},
{
closed = 1;
nodes = (
"144 786 LINE",
"161 824 OFFCURVE",
"185 848 OFFCURVE",
"215 848 CURVE SMOOTH",
"257 848 OFFCURVE",
"288 788 OFFCURVE",
"328 788 CURVE SMOOTH",
"367 788 OFFCURVE",
"398 822 OFFCURVE",
"419 878 CURVE",
"408 878 LINE",
"391 838 OFFCURVE",
"369 812 OFFCURVE",
"336 812 CURVE SMOOTH",
"297 812 OFFCURVE",
"263 871 OFFCURVE",
"222 871 CURVE SMOOTH",
"187 871 OFFCURVE",
"154 847 OFFCURVE",
"133 786 CURVE"
);
}
);
width = 290;
}
);
note = Itilde;
unicode = 0128;
},
{
glyphname = J;
lastChange = "2015-10-25 23:53:10 +0000";
layers = (
{
layerId = "F5311820-4606-4FC3-8850-6A1C02DF84E8";
name = "Light Italic";
paths = (
{
closed = 1;
nodes = (
"197 -10 OFFCURVE",
"252 44 OFFCURVE",
"269 125 CURVE SMOOTH",
"382 679 LINE",
"424 683 OFFCURVE",
"445 688 OFFCURVE",
"463 694 CURVE",
"464 700 LINE",
"281 700 LINE",
"280 693 LINE",
"296 687 OFFCURVE",
"314 682 OFFCURVE",
"355 678 CURVE",
"243 131 LINE SMOOTH",
"226 46 OFFCURVE",
"171 16 OFFCURVE",
"101 16 CURVE SMOOTH",
"59 16 OFFCURVE",
"26 25 OFFCURVE",
"-1 41 CURVE",
"-10 31 LINE",
"16 6 OFFCURVE",
"48 -10 OFFCURVE",
"104 -10 CURVE SMOOTH"
);
}
);
width = 408;
}
);
leftKerningGroup = J;
note = J;
rightKerningGroup = J;
unicode = 004A;
},
{
glyphname = Jcircumflex;
lastChange = "2015-10-25 23:53:10 +0000";
layers = (
{
layerId = "F5311820-4606-4FC3-8850-6A1C02DF84E8";
name = "Light Italic";
paths = (
{
closed = 1;
nodes = (
"197 -10 OFFCURVE",
"252 44 OFFCURVE",
"269 125 CURVE SMOOTH",
"382 679 LINE",
"424 683 OFFCURVE",
"445 688 OFFCURVE",
"463 694 CURVE",
"464 700 LINE",
"281 700 LINE",
"280 693 LINE",
"296 687 OFFCURVE",
"314 682 OFFCURVE",
"355 678 CURVE",
"243 131 LINE SMOOTH",
"226 46 OFFCURVE",
"171 16 OFFCURVE",
"101 16 CURVE SMOOTH",
"59 16 OFFCURVE",
"26 25 OFFCURVE",
"-1 41 CURVE",
"-10 31 LINE",
"16 6 OFFCURVE",
"48 -10 OFFCURVE",
"104 -10 CURVE SMOOTH"
);
},
{
closed = 1;
nodes = (
"328 801 OFFCURVE",
"368 831 OFFCURVE",
"403 866 CURVE",
"409 866 LINE",
"429 831 OFFCURVE",
"457 801 OFFCURVE",
"485 777 CURVE",
"501 795 LINE",
"471 821 OFFCURVE",
"443 852 OFFCURVE",
"419 898 CURVE",
"405 898 LINE",
"364 852 OFFCURVE",
"322 821 OFFCURVE",
"282 795 CURVE",
"291 777 LINE"
);
}
);
width = 408;
}
);
leftKerningGroup = J;
note = Jcircumflex;
rightKerningGroup = J;
unicode = 0134;
},
{
glyphname = K;
lastChange = "2015-10-26 01:20:27 +0000";
layers = (
{
layerId = "F5311820-4606-4FC3-8850-6A1C02DF84E8";
name = "Light Italic";
paths = (
{
closed = 1;
nodes = (
"194 0 LINE",
"195 5 LINE",
"173 13 OFFCURVE",
"146 18 OFFCURVE",
"119 22 CURVE",
"172 280 LINE",
"276 378 LINE",
"495 0 LINE",
"589 0 LINE",
"590 5 LINE",
"566 13 OFFCURVE",
"537 18 OFFCURVE",
"516 21 CURVE",
"297 398 LINE",
"584 668 LINE SMOOTH",
"608 690 OFFCURVE",
"635 688 OFFCURVE",
"654 693 CURVE",
"655 700 LINE",
"492 700 LINE",
"491 693 LINE",
"504 689 OFFCURVE",
"532 686 OFFCURVE",
"547 682 CURVE",
"552 681 OFFCURVE",
"554 678 OFFCURVE",
"554 673 CURVE SMOOTH",
"554 671 OFFCURVE",
"554 670 OFFCURVE",
"554 669 CURVE",
"179 315 LINE",
"253 679 LINE",
"281 682 OFFCURVE",
"311 687 OFFCURVE",
"335 695 CURVE",
"336 700 LINE",
"152 700 LINE",
"151 695 LINE",
"173 687 OFFCURVE",
"199 682 OFFCURVE",
"227 678 CURVE",
"92 21 LINE",
"63 18 OFFCURVE",
"35 13 OFFCURVE",
"11 5 CURVE",
"10 0 LINE"
);
}
);
width = 640;
}
);
note = K;
rightKerningGroup = K;
unicode = 004B;
},
{
glyphname = Kcommaaccent;
lastChange = "2015-10-26 01:20:27 +0000";
layers = (
{
layerId = "F5311820-4606-4FC3-8850-6A1C02DF84E8";
name = "Light Italic";
paths = (
{
closed = 1;
nodes = (
"194 0 LINE",
"195 5 LINE",
"173 13 OFFCURVE",
"146 18 OFFCURVE",
"119 22 CURVE",
"172 280 LINE",
"276 378 LINE",
"495 0 LINE",
"589 0 LINE",
"590 5 LINE",
"566 13 OFFCURVE",
"537 18 OFFCURVE",
"516 21 CURVE",
"297 398 LINE",
"584 668 LINE SMOOTH",
"608 690 OFFCURVE",
"635 688 OFFCURVE",
"654 693 CURVE",
"655 700 LINE",
"492 700 LINE",
"491 693 LINE",
"504 689 OFFCURVE",
"532 686 OFFCURVE",
"547 682 CURVE",
"552 681 OFFCURVE",
"554 678 OFFCURVE",
"554 673 CURVE SMOOTH",
"554 671 OFFCURVE",
"554 670 OFFCURVE",
"554 669 CURVE",
"179 315 LINE",
"253 679 LINE",
"281 682 OFFCURVE",
"311 687 OFFCURVE",
"335 695 CURVE",
"336 700 LINE",
"152 700 LINE",
"151 695 LINE",
"173 687 OFFCURVE",
"199 682 OFFCURVE",
"227 678 CURVE",
"92 21 LINE",
"63 18 OFFCURVE",
"35 13 OFFCURVE",
"11 5 CURVE",
"10 0 LINE"
);
},
{
closed = 1;
nodes = (
"291 -206 OFFCURVE",
"319 -145 OFFCURVE",
"325 -111 CURVE SMOOTH",
"327 -103 OFFCURVE",
"328 -95 OFFCURVE",
"328 -89 CURVE SMOOTH",
"328 -69 OFFCURVE",
"319 -56 OFFCURVE",
"297 -56 CURVE SMOOTH",
"280 -56 OFFCURVE",
"263 -65 OFFCURVE",
"258 -88 CURVE SMOOTH",
"257 -91 OFFCURVE",
"257 -94 OFFCURVE",
"257 -96 CURVE SMOOTH",
"257 -108 OFFCURVE",
"264 -118 OFFCURVE",
"276 -118 CURVE SMOOTH",
"282 -118 OFFCURVE",
"291 -118 OFFCURVE",
"298 -114 CURVE",
"296 -124 LINE SMOOTH",
"289 -158 OFFCURVE",
"270 -196 OFFCURVE",
"245 -222 CURVE",
"257 -235 LINE"
);
}
);
width = 640;
}
);
note = Kcommaaccent;
rightKerningGroup = K;
unicode = 0136;
},
{
glyphname = L;
lastChange = "2015-10-25 23:53:10 +0000";
layers = (
{
layerId = "F5311820-4606-4FC3-8850-6A1C02DF84E8";
name = "Light Italic";
paths = (
{
closed = 1;
nodes = (
"429 0 LINE",
"462 114 LINE",
"453 114 LINE",
"442 96 OFFCURVE",
"417 45 OFFCURVE",
"410 22 CURVE",
"119 22 LINE",
"253 679 LINE",
"281 682 OFFCURVE",
"311 687 OFFCURVE",
"335 695 CURVE",
"336 700 LINE",
"152 700 LINE",
"151 695 LINE",
"173 687 OFFCURVE",
"199 682 OFFCURVE",
"227 678 CURVE",
"92 21 LINE",
"50 17 OFFCURVE",
"29 12 OFFCURVE",
"12 6 CURVE",
"11 0 LINE"
);
}
);
width = 522;
}
);
note = L;
rightKerningGroup = L;
unicode = 004C;
},
{
glyphname = Lacute;
lastChange = "2015-10-26 01:20:27 +0000";
layers = (
{
layerId = "F5311820-4606-4FC3-8850-6A1C02DF84E8";
name = "Light Italic";
paths = (
{
closed = 1;
nodes = (
"429 0 LINE",
"462 114 LINE",
"453 114 LINE",
"442 96 OFFCURVE",
"417 45 OFFCURVE",
"410 22 CURVE",
"119 22 LINE",
"253 679 LINE",
"281 682 OFFCURVE",
"311 687 OFFCURVE",
"335 695 CURVE",
"336 700 LINE",
"152 700 LINE",
"151 695 LINE",
"173 687 OFFCURVE",
"199 682 OFFCURVE",
"227 678 CURVE",
"92 21 LINE",
"50 17 OFFCURVE",
"29 12 OFFCURVE",
"12 6 CURVE",
"11 0 LINE"
);
},
{
closed = 1;
nodes = (
"396 859 LINE SMOOTH",
"409 866 OFFCURVE",
"416 877 OFFCURVE",
"416 885 CURVE SMOOTH",
"416 892 OFFCURVE",
"411 896 OFFCURVE",
"405 896 CURVE SMOOTH",
"396 896 OFFCURVE",
"386 891 OFFCURVE",
"377 884 CURVE",
"257 797 LINE",
"262 787 LINE"
);
}
);
width = 522;
}
);
note = Lacute;
rightKerningGroup = L;
unicode = 0139;
},
{
glyphname = Lcaron;
lastChange = "2015-10-26 01:20:27 +0000";
layers = (
{
layerId = "F5311820-4606-4FC3-8850-6A1C02DF84E8";
name = "Light Italic";
paths = (
{
closed = 1;
nodes = (
"429 0 LINE",
"462 114 LINE",
"453 114 LINE",
"442 96 OFFCURVE",
"417 45 OFFCURVE",
"410 22 CURVE",
"119 22 LINE",
"253 679 LINE",
"281 682 OFFCURVE",
"311 687 OFFCURVE",
"335 695 CURVE",
"336 700 LINE",
"152 700 LINE",
"151 695 LINE",
"173 687 OFFCURVE",
"199 682 OFFCURVE",
"227 678 CURVE",
"92 21 LINE",
"50 17 OFFCURVE",
"29 12 OFFCURVE",
"12 6 CURVE",
"11 0 LINE"
);
},
{
closed = 1;
nodes = (
"475 560 OFFCURVE",
"503 621 OFFCURVE",
"510 655 CURVE SMOOTH",
"511 663 OFFCURVE",
"512 670 OFFCURVE",
"512 676 CURVE SMOOTH",
"512 697 OFFCURVE",
"504 710 OFFCURVE",
"481 710 CURVE SMOOTH",
"463 710 OFFCURVE",
"442 699 OFFCURVE",
"442 669 CURVE SMOOTH",
"442 657 OFFCURVE",
"449 648 OFFCURVE",
"461 648 CURVE SMOOTH",
"467 648 OFFCURVE",
"475 648 OFFCURVE",
"482 652 CURVE",
"480 642 LINE SMOOTH",
"473 608 OFFCURVE",
"454 570 OFFCURVE",
"429 544 CURVE",
"442 531 LINE"
);
}
);
width = 522;
}
);
note = Lcaron;
rightKerningGroup = L;
unicode = 013D;
},
{
glyphname = Lcommaaccent;
lastChange = "2015-10-26 01:20:27 +0000";
layers = (
{
layerId = "F5311820-4606-4FC3-8850-6A1C02DF84E8";
name = "Light Italic";
paths = (
{
closed = 1;
nodes = (
"429 0 LINE",
"462 114 LINE",
"453 114 LINE",
"442 96 OFFCURVE",
"417 45 OFFCURVE",
"410 22 CURVE",
"119 22 LINE",
"253 679 LINE",
"281 682 OFFCURVE",
"311 687 OFFCURVE",
"335 695 CURVE",
"336 700 LINE",
"152 700 LINE",
"151 695 LINE",
"173 687 OFFCURVE",
"199 682 OFFCURVE",
"227 678 CURVE",
"92 21 LINE",
"50 17 OFFCURVE",
"29 12 OFFCURVE",
"12 6 CURVE",
"11 0 LINE"
);
},
{
closed = 1;
nodes = (
"227 -206 OFFCURVE",
"254 -145 OFFCURVE",
"261 -111 CURVE SMOOTH",
"263 -103 OFFCURVE",
"264 -96 OFFCURVE",
"264 -89 CURVE SMOOTH",
"264 -69 OFFCURVE",
"255 -56 OFFCURVE",
"232 -56 CURVE SMOOTH",
"216 -56 OFFCURVE",
"199 -65 OFFCURVE",
"194 -88 CURVE SMOOTH",
"193 -91 OFFCURVE",
"193 -94 OFFCURVE",
"193 -96 CURVE SMOOTH",
"193 -108 OFFCURVE",
"200 -118 OFFCURVE",
"212 -118 CURVE SMOOTH",
"218 -118 OFFCURVE",
"227 -118 OFFCURVE",
"233 -114 CURVE",
"231 -124 LINE SMOOTH",
"225 -158 OFFCURVE",
"205 -196 OFFCURVE",
"180 -222 CURVE",
"193 -235 LINE"
);
}
);
width = 522;
}
);
note = Lcommaaccent;
rightKerningGroup = L;
unicode = 013B;
},
{
glyphname = Ldot;
lastChange = "2015-10-26 01:20:27 +0000";
layers = (
{
layerId = "F5311820-4606-4FC3-8850-6A1C02DF84E8";
name = "Light Italic";
paths = (
{
closed = 1;
nodes = (
"429 0 LINE",
"462 114 LINE",
"453 114 LINE",
"442 96 OFFCURVE",
"417 45 OFFCURVE",
"410 22 CURVE",
"119 22 LINE",
"253 679 LINE",
"281 682 OFFCURVE",
"311 687 OFFCURVE",
"335 695 CURVE",
"336 700 LINE",
"152 700 LINE",
"151 695 LINE",
"173 687 OFFCURVE",
"199 682 OFFCURVE",
"227 678 CURVE",
"92 21 LINE",
"50 17 OFFCURVE",
"29 12 OFFCURVE",
"12 6 CURVE",
"11 0 LINE"
);
},
{
closed = 1;
nodes = (
"365 335 OFFCURVE",
"382 349 OFFCURVE",
"382 373 CURVE SMOOTH",
"382 387 OFFCURVE",
"373 395 OFFCURVE",
"360 395 CURVE SMOOTH",
"343 395 OFFCURVE",
"326 381 OFFCURVE",
"326 358 CURVE SMOOTH",
"326 343 OFFCURVE",
"334 335 OFFCURVE",
"348 335 CURVE SMOOTH"
);
}
);
width = 522;
}
);
note = Ldot;
rightKerningGroup = L;
unicode = 013F;
},
{
glyphname = Ldotbelow;
lastChange = "2015-11-27 06:14:08 +0000";
layers = (
{
layerId = "F5311820-4606-4FC3-8850-6A1C02DF84E8";
name = "Light Italic";
paths = (
{
closed = 1;
nodes = (
"429 0 LINE",
"462 114 LINE",
"453 114 LINE",
"442 96 OFFCURVE",
"417 45 OFFCURVE",
"410 22 CURVE",
"119 22 LINE",
"253 679 LINE",
"281 682 OFFCURVE",
"311 687 OFFCURVE",
"335 695 CURVE",
"336 700 LINE",
"152 700 LINE",
"151 695 LINE",
"173 687 OFFCURVE",
"199 682 OFFCURVE",
"227 678 CURVE",
"92 21 LINE",
"50 17 OFFCURVE",
"29 12 OFFCURVE",
"12 6 CURVE",
"11 0 LINE"
);
},
{
closed = 1;
nodes = (
"256 -113 OFFCURVE",
"273 -99 OFFCURVE",
"273 -75 CURVE SMOOTH",
"273 -61 OFFCURVE",
"264 -53 OFFCURVE",
"251 -53 CURVE SMOOTH",
"233 -53 OFFCURVE",
"217 -67 OFFCURVE",
"217 -91 CURVE SMOOTH",
"217 -105 OFFCURVE",
"226 -113 OFFCURVE",
"239 -113 CURVE SMOOTH"
);
}
);
width = 522;
}
);
note = Ldotbelow;
rightKerningGroup = L;
unicode = 1E36;
},
{
glyphname = Ldotbelowmacron;
lastChange = "2015-10-26 01:20:27 +0000";
layers = (
{
layerId = "F5311820-4606-4FC3-8850-6A1C02DF84E8";
name = "Light Italic";
paths = (
{
closed = 1;
nodes = (
"429 0 LINE",
"462 114 LINE",
"453 114 LINE",
"442 96 OFFCURVE",
"417 45 OFFCURVE",
"410 22 CURVE",
"119 22 LINE",
"253 679 LINE",
"281 682 OFFCURVE",
"311 687 OFFCURVE",
"335 695 CURVE",
"336 700 LINE",
"152 700 LINE",
"151 695 LINE",
"173 687 OFFCURVE",
"199 682 OFFCURVE",
"227 678 CURVE",
"92 21 LINE",
"50 17 OFFCURVE",
"29 12 OFFCURVE",
"12 6 CURVE",
"11 0 LINE"
);
},
{
closed = 1;
nodes = (
"256 -113 OFFCURVE",
"273 -99 OFFCURVE",
"273 -75 CURVE SMOOTH",
"273 -61 OFFCURVE",
"264 -53 OFFCURVE",
"251 -53 CURVE SMOOTH",
"233 -53 OFFCURVE",
"217 -67 OFFCURVE",
"217 -91 CURVE SMOOTH",
"217 -105 OFFCURVE",
"226 -113 OFFCURVE",
"239 -113 CURVE SMOOTH"
);
},
{
closed = 1;
nodes = (
"395 785 LINE",
"399 807 LINE",
"135 807 LINE",
"131 785 LINE"
);
}
);
width = 522;
}
);
note = Ldotbelowmacron;
rightKerningGroup = L;
unicode = 1E38;
},
{
glyphname = Llinebelow;
lastChange = "2015-10-25 23:53:08 +0000";
layers = (
{
layerId = "F5311820-4606-4FC3-8850-6A1C02DF84E8";
name = "Light Italic";
paths = (
{
closed = 1;
nodes = (
"429 0 LINE",
"462 114 LINE",
"453 114 LINE",
"442 96 OFFCURVE",
"417 45 OFFCURVE",
"410 22 CURVE",
"119 22 LINE",
"253 679 LINE",
"281 682 OFFCURVE",
"311 687 OFFCURVE",
"335 695 CURVE",
"336 700 LINE",
"152 700 LINE",
"151 695 LINE",
"173 687 OFFCURVE",
"199 682 OFFCURVE",
"227 678 CURVE",
"92 21 LINE",
"50 17 OFFCURVE",
"29 12 OFFCURVE",
"12 6 CURVE",
"11 0 LINE"
);
},
{
closed = 1;
nodes = (
"352 -98 LINE",
"356 -76 LINE",
"92 -76 LINE",
"88 -98 LINE"
);
}
);
width = 522;
}
);
note = Llinebelow;
rightKerningGroup = L;
unicode = 1E3A;
},
{
glyphname = Lslash;
lastChange = "2015-10-25 23:53:08 +0000";
layers = (
{
layerId = "F5311820-4606-4FC3-8850-6A1C02DF84E8";
name = "Light Italic";
paths = (
{
closed = 1;
nodes = (
"429 0 LINE",
"462 114 LINE",
"453 114 LINE",
"442 96 OFFCURVE",
"417 45 OFFCURVE",
"410 22 CURVE",
"119 22 LINE",
"253 679 LINE",
"281 682 OFFCURVE",
"311 687 OFFCURVE",
"335 695 CURVE",
"336 700 LINE",
"152 700 LINE",
"151 695 LINE",
"173 687 OFFCURVE",
"199 682 OFFCURVE",
"227 678 CURVE",
"92 21 LINE",
"50 17 OFFCURVE",
"29 12 OFFCURVE",
"12 6 CURVE",
"11 0 LINE"
);
},
{
closed = 1;
nodes = (
"406 388 LINE",
"412 415 LINE",
"55 290 LINE",
"49 263 LINE"
);
}
);
width = 522;
}
);
note = Lslash;
rightKerningGroup = L;
unicode = 0141;
},
{
glyphname = M;
lastChange = "2015-10-25 23:53:10 +0000";
layers = (
{
layerId = "F5311820-4606-4FC3-8850-6A1C02DF84E8";
name = "Light Italic";
paths = (
{
closed = 1;
nodes = (
"194 0 LINE",
"195 5 LINE",
"173 13 OFFCURVE",
"146 18 OFFCURVE",
"119 22 CURVE",
"253 679 LINE",
"381 79 LINE",
"397 79 LINE",
"774 679 LINE",
"639 22 LINE",
"611 18 OFFCURVE",
"582 13 OFFCURVE",
"558 5 CURVE",
"557 0 LINE",
"741 0 LINE",
"742 5 LINE",
"720 13 OFFCURVE",
"693 18 OFFCURVE",
"666 21 CURVE",
"801 678 LINE",
"828 682 OFFCURVE",
"858 687 OFFCURVE",
"882 695 CURVE",
"883 700 LINE",
"761 700 LINE",
"398 119 LINE",
"277 700 LINE",
"152 700 LINE",
"151 695 LINE",
"173 687 OFFCURVE",
"199 682 OFFCURVE",
"227 678 CURVE",
"92 21 LINE",
"63 18 OFFCURVE",
"35 13 OFFCURVE",
"11 5 CURVE",
"10 0 LINE"
);
}
);
width = 828;
}
);
note = M;
unicode = 004D;
},
{
glyphname = Mdotbelow;
lastChange = "2015-10-26 01:20:27 +0000";
layers = (
{
layerId = "F5311820-4606-4FC3-8850-6A1C02DF84E8";
name = "Light Italic";
paths = (
{
closed = 1;
nodes = (
"194 0 LINE",
"195 5 LINE",
"173 13 OFFCURVE",
"146 18 OFFCURVE",
"119 22 CURVE",
"253 679 LINE",
"381 79 LINE",
"397 79 LINE",
"774 679 LINE",
"639 22 LINE",
"611 18 OFFCURVE",
"582 13 OFFCURVE",
"558 5 CURVE",
"557 0 LINE",
"741 0 LINE",
"742 5 LINE",
"720 13 OFFCURVE",
"693 18 OFFCURVE",
"666 21 CURVE",
"801 678 LINE",
"828 682 OFFCURVE",
"858 687 OFFCURVE",
"882 695 CURVE",
"883 700 LINE",
"761 700 LINE",
"398 119 LINE",
"277 700 LINE",
"152 700 LINE",
"151 695 LINE",
"173 687 OFFCURVE",
"199 682 OFFCURVE",
"227 678 CURVE",
"92 21 LINE",
"63 18 OFFCURVE",
"35 13 OFFCURVE",
"11 5 CURVE",
"10 0 LINE"
);
},
{
closed = 1;
nodes = (
"365 -124 OFFCURVE",
"378 -113 OFFCURVE",
"383 -94 CURVE",
"384 -91 OFFCURVE",
"384 -88 OFFCURVE",
"384 -86 CURVE SMOOTH",
"384 -72 OFFCURVE",
"375 -64 OFFCURVE",
"362 -64 CURVE SMOOTH",
"347 -64 OFFCURVE",
"333 -75 OFFCURVE",
"329 -94 CURVE",
"328 -97 OFFCURVE",
"328 -100 OFFCURVE",
"328 -103 CURVE SMOOTH",
"328 -117 OFFCURVE",
"337 -124 OFFCURVE",
"349 -124 CURVE SMOOTH"
);
}
);
width = 828;
}
);
note = Mdotbelow;
unicode = 1E42;
},
{
glyphname = N;
lastChange = "2015-10-25 23:53:10 +0000";
layers = (
{
layerId = "F5311820-4606-4FC3-8850-6A1C02DF84E8";
name = "Light Italic";
paths = (
{
closed = 1;
nodes = (
"194 0 LINE",
"195 5 LINE",
"173 13 OFFCURVE",
"146 18 OFFCURVE",
"119 22 CURVE",
"253 679 LINE",
"549 0 LINE",
"575 0 LINE",
"713 678 LINE",
"741 682 OFFCURVE",
"771 687 OFFCURVE",
"795 695 CURVE",
"796 700 LINE",
"612 700 LINE",
"611 695 LINE",
"633 687 OFFCURVE",
"659 682 OFFCURVE",
"686 679 CURVE",
"557 45 LINE",
"274 700 LINE",
"152 700 LINE",
"151 695 LINE",
"173 687 OFFCURVE",
"199 682 OFFCURVE",
"227 678 CURVE",
"92 21 LINE",
"63 18 OFFCURVE",
"35 13 OFFCURVE",
"11 5 CURVE",
"10 0 LINE"
);
}
);
width = 740;
}
);
note = N;
unicode = 004E;
},
{
glyphname = Nacute;
lastChange = "2015-10-26 01:20:27 +0000";
layers = (
{
layerId = "F5311820-4606-4FC3-8850-6A1C02DF84E8";
name = "Light Italic";
paths = (
{
closed = 1;
nodes = (
"194 0 LINE",
"195 5 LINE",
"173 13 OFFCURVE",
"146 18 OFFCURVE",
"119 22 CURVE",
"253 679 LINE",
"549 0 LINE",
"575 0 LINE",
"713 678 LINE",
"741 682 OFFCURVE",
"771 687 OFFCURVE",
"795 695 CURVE",
"796 700 LINE",
"612 700 LINE",
"611 695 LINE",
"633 687 OFFCURVE",
"659 682 OFFCURVE",
"686 679 CURVE",
"557 45 LINE",
"274 700 LINE",
"152 700 LINE",
"151 695 LINE",
"173 687 OFFCURVE",
"199 682 OFFCURVE",
"227 678 CURVE",
"92 21 LINE",
"63 18 OFFCURVE",
"35 13 OFFCURVE",
"11 5 CURVE",
"10 0 LINE"
);
},
{
closed = 1;
nodes = (
"588 859 LINE SMOOTH",
"602 866 OFFCURVE",
"609 877 OFFCURVE",
"609 885 CURVE SMOOTH",
"609 892 OFFCURVE",
"604 896 OFFCURVE",
"598 896 CURVE SMOOTH",
"588 896 OFFCURVE",
"579 891 OFFCURVE",
"570 884 CURVE",
"450 797 LINE",
"455 787 LINE"
);
}
);
width = 740;
}
);
note = Nacute;
unicode = 0143;
},
{
glyphname = Ncaron;
lastChange = "2015-10-25 23:53:09 +0000";
layers = (
{
layerId = "F5311820-4606-4FC3-8850-6A1C02DF84E8";
name = "Light Italic";
paths = (
{
closed = 1;
nodes = (
"194 0 LINE",
"195 5 LINE",
"173 13 OFFCURVE",
"146 18 OFFCURVE",
"119 22 CURVE",
"253 679 LINE",
"549 0 LINE",
"575 0 LINE",
"713 678 LINE",
"741 682 OFFCURVE",
"771 687 OFFCURVE",
"795 695 CURVE",
"796 700 LINE",
"612 700 LINE",
"611 695 LINE",
"633 687 OFFCURVE",
"659 682 OFFCURVE",
"686 679 CURVE",
"557 45 LINE",
"274 700 LINE",
"152 700 LINE",
"151 695 LINE",
"173 687 OFFCURVE",
"199 682 OFFCURVE",
"227 678 CURVE",
"92 21 LINE",
"63 18 OFFCURVE",
"35 13 OFFCURVE",
"11 5 CURVE",
"10 0 LINE"
);
},
{
closed = 1;
nodes = (
"497 787 LINE",
"540 833 OFFCURVE",
"581 864 OFFCURVE",
"621 890 CURVE",
"612 908 LINE",
"574 884 OFFCURVE",
"535 854 OFFCURVE",
"500 819 CURVE",
"494 819 LINE",
"473 854 OFFCURVE",
"445 884 OFFCURVE",
"419 908 CURVE",
"402 890 LINE",
"431 864 OFFCURVE",
"461 833 OFFCURVE",
"484 787 CURVE"
);
}
);
width = 740;
}
);
note = Ncaron;
unicode = 0147;
},
{
glyphname = Ncommaaccent;
lastChange = "2015-10-26 01:20:27 +0000";
layers = (
{
layerId = "F5311820-4606-4FC3-8850-6A1C02DF84E8";
name = "Light Italic";
paths = (
{
closed = 1;
nodes = (
"194 0 LINE",
"195 5 LINE",
"173 13 OFFCURVE",
"146 18 OFFCURVE",
"119 22 CURVE",
"253 679 LINE",
"549 0 LINE",
"575 0 LINE",
"713 678 LINE",
"741 682 OFFCURVE",
"771 687 OFFCURVE",
"795 695 CURVE",
"796 700 LINE",
"612 700 LINE",
"611 695 LINE",
"633 687 OFFCURVE",
"659 682 OFFCURVE",
"686 679 CURVE",
"557 45 LINE",
"274 700 LINE",
"152 700 LINE",
"151 695 LINE",
"173 687 OFFCURVE",
"199 682 OFFCURVE",
"227 678 CURVE",
"92 21 LINE",
"63 18 OFFCURVE",
"35 13 OFFCURVE",
"11 5 CURVE",
"10 0 LINE"
);
},
{
closed = 1;
nodes = (
"306 -206 OFFCURVE",
"334 -145 OFFCURVE",
"341 -111 CURVE SMOOTH",
"343 -103 OFFCURVE",
"344 -96 OFFCURVE",
"344 -89 CURVE SMOOTH",
"344 -69 OFFCURVE",
"335 -56 OFFCURVE",
"312 -56 CURVE SMOOTH",
"294 -56 OFFCURVE",
"273 -67 OFFCURVE",
"273 -97 CURVE SMOOTH",
"273 -109 OFFCURVE",
"280 -118 OFFCURVE",
"292 -118 CURVE SMOOTH",
"298 -118 OFFCURVE",
"306 -118 OFFCURVE",
"313 -114 CURVE",
"311 -124 LINE SMOOTH",
"304 -158 OFFCURVE",
"285 -196 OFFCURVE",
"260 -222 CURVE",
"273 -235 LINE"
);
}
);
width = 740;
}
);
note = Ncommaaccent;
unicode = 0145;
},
{
glyphname = Ndotaccent;
lastChange = "2015-10-26 01:20:27 +0000";
layers = (
{
layerId = "F5311820-4606-4FC3-8850-6A1C02DF84E8";
name = "Light Italic";
paths = (
{
closed = 1;
nodes = (
"194 0 LINE",
"195 5 LINE",
"173 13 OFFCURVE",
"146 18 OFFCURVE",
"119 22 CURVE",
"253 679 LINE",
"549 0 LINE",
"575 0 LINE",
"713 678 LINE",
"741 682 OFFCURVE",
"771 687 OFFCURVE",
"795 695 CURVE",
"796 700 LINE",
"612 700 LINE",
"611 695 LINE",
"633 687 OFFCURVE",
"659 682 OFFCURVE",
"686 679 CURVE",
"557 45 LINE",
"274 700 LINE",
"152 700 LINE",
"151 695 LINE",
"173 687 OFFCURVE",
"199 682 OFFCURVE",
"227 678 CURVE",
"92 21 LINE",
"63 18 OFFCURVE",
"35 13 OFFCURVE",
"11 5 CURVE",
"10 0 LINE"
);
},
{
closed = 1;
nodes = (
"513 785 OFFCURVE",
"530 799 OFFCURVE",
"530 823 CURVE SMOOTH",
"530 837 OFFCURVE",
"521 845 OFFCURVE",
"508 845 CURVE SMOOTH",
"490 845 OFFCURVE",
"474 831 OFFCURVE",
"474 806 CURVE SMOOTH",
"474 793 OFFCURVE",
"482 785 OFFCURVE",
"495 785 CURVE SMOOTH"
);
}
);
width = 740;
}
);
note = Ndotaccent;
unicode = 1E44;
},
{
glyphname = Ndotbelow;
lastChange = "2015-10-26 01:20:27 +0000";
layers = (
{
layerId = "F5311820-4606-4FC3-8850-6A1C02DF84E8";
name = "Light Italic";
paths = (
{
closed = 1;
nodes = (
"194 0 LINE",
"195 5 LINE",
"173 13 OFFCURVE",
"146 18 OFFCURVE",
"119 22 CURVE",
"253 679 LINE",
"549 0 LINE",
"575 0 LINE",
"713 678 LINE",
"741 682 OFFCURVE",
"771 687 OFFCURVE",
"795 695 CURVE",
"796 700 LINE",
"612 700 LINE",
"611 695 LINE",
"633 687 OFFCURVE",
"659 682 OFFCURVE",
"686 679 CURVE",
"557 45 LINE",
"274 700 LINE",
"152 700 LINE",
"151 695 LINE",
"173 687 OFFCURVE",
"199 682 OFFCURVE",
"227 678 CURVE",
"92 21 LINE",
"63 18 OFFCURVE",
"35 13 OFFCURVE",
"11 5 CURVE",
"10 0 LINE"
);
},
{
closed = 1;
nodes = (
"325 -124 OFFCURVE",
"339 -113 OFFCURVE",
"344 -94 CURVE",
"345 -91 OFFCURVE",
"345 -88 OFFCURVE",
"345 -86 CURVE SMOOTH",
"345 -72 OFFCURVE",
"336 -64 OFFCURVE",
"323 -64 CURVE SMOOTH",
"307 -64 OFFCURVE",
"294 -75 OFFCURVE",
"290 -94 CURVE",
"289 -97 OFFCURVE",
"289 -100 OFFCURVE",
"289 -103 CURVE SMOOTH",
"289 -117 OFFCURVE",
"298 -124 OFFCURVE",
"310 -124 CURVE SMOOTH"
);
}
);
width = 740;
}
);
note = Ndotbelow;
unicode = 1E46;
},
{
glyphname = Eng;
lastChange = "2015-10-25 23:53:11 +0000";
layers = (
{
layerId = "F5311820-4606-4FC3-8850-6A1C02DF84E8";
name = "Light Italic";
paths = (
{
closed = 1;
nodes = (
"480 -247 OFFCURVE",
"535 -193 OFFCURVE",
"552 -112 CURVE SMOOTH",
"713 678 LINE",
"741 682 OFFCURVE",
"771 687 OFFCURVE",
"795 695 CURVE",
"796 700 LINE",
"612 700 LINE",
"611 695 LINE",
"633 687 OFFCURVE",
"659 682 OFFCURVE",
"686 679 CURVE",
"557 45 LINE",
"274 700 LINE",
"152 700 LINE",
"151 695 LINE",
"173 687 OFFCURVE",
"199 682 OFFCURVE",
"227 678 CURVE",
"92 21 LINE",
"63 18 OFFCURVE",
"35 13 OFFCURVE",
"11 5 CURVE",
"10 0 LINE",
"194 0 LINE",
"195 5 LINE",
"173 13 OFFCURVE",
"146 18 OFFCURVE",
"119 22 CURVE",
"253 679 LINE",
"548 1 LINE",
"526 -106 LINE SMOOTH",
"509 -191 OFFCURVE",
"454 -221 OFFCURVE",
"384 -221 CURVE SMOOTH",
"342 -221 OFFCURVE",
"308 -212 OFFCURVE",
"282 -196 CURVE",
"274 -206 LINE",
"299 -231 OFFCURVE",
"331 -247 OFFCURVE",
"387 -247 CURVE SMOOTH"
);
}
);
width = 740;
}
);
note = Eng;
unicode = 014A;
},
{
glyphname = Nlinebelow;
lastChange = "2015-10-25 23:53:10 +0000";
layers = (
{
layerId = "F5311820-4606-4FC3-8850-6A1C02DF84E8";
name = "Light Italic";
paths = (
{
closed = 1;
nodes = (
"194 0 LINE",
"195 5 LINE",
"173 13 OFFCURVE",
"146 18 OFFCURVE",
"119 22 CURVE",
"253 679 LINE",
"549 0 LINE",
"575 0 LINE",
"713 678 LINE",
"741 682 OFFCURVE",
"771 687 OFFCURVE",
"795 695 CURVE",
"796 700 LINE",
"612 700 LINE",
"611 695 LINE",
"633 687 OFFCURVE",
"659 682 OFFCURVE",
"686 679 CURVE",
"557 45 LINE",
"274 700 LINE",
"152 700 LINE",
"151 695 LINE",
"173 687 OFFCURVE",
"199 682 OFFCURVE",
"227 678 CURVE",
"92 21 LINE",
"63 18 OFFCURVE",
"35 13 OFFCURVE",
"11 5 CURVE",
"10 0 LINE"
);
},
{
closed = 1;
nodes = (
"447 -98 LINE",
"451 -76 LINE",
"187 -76 LINE",
"183 -98 LINE"
);
}
);
width = 740;
}
);
note = Nlinebelow;
unicode = 1E48;
},
{
glyphname = Ntilde;
lastChange = "2015-10-25 23:53:10 +0000";
layers = (
{
layerId = "F5311820-4606-4FC3-8850-6A1C02DF84E8";
name = "Light Italic";
paths = (
{
closed = 1;
nodes = (
"194 0 LINE",
"195 5 LINE",
"173 13 OFFCURVE",
"146 18 OFFCURVE",
"119 22 CURVE",
"253 679 LINE",
"549 0 LINE",
"575 0 LINE",
"713 678 LINE",
"741 682 OFFCURVE",
"771 687 OFFCURVE",
"795 695 CURVE",
"796 700 LINE",
"612 700 LINE",
"611 695 LINE",
"633 687 OFFCURVE",
"659 682 OFFCURVE",
"686 679 CURVE",
"557 45 LINE",
"274 700 LINE",
"152 700 LINE",
"151 695 LINE",
"173 687 OFFCURVE",
"199 682 OFFCURVE",
"227 678 CURVE",
"92 21 LINE",
"63 18 OFFCURVE",
"35 13 OFFCURVE",
"11 5 CURVE",
"10 0 LINE"
);
},
{
closed = 1;
nodes = (
"369 786 LINE",
"386 824 OFFCURVE",
"410 848 OFFCURVE",
"440 848 CURVE SMOOTH",
"482 848 OFFCURVE",
"513 788 OFFCURVE",
"553 788 CURVE SMOOTH",
"591 788 OFFCURVE",
"623 822 OFFCURVE",
"643 878 CURVE",
"633 878 LINE",
"615 838 OFFCURVE",
"593 812 OFFCURVE",
"561 812 CURVE SMOOTH",
"521 812 OFFCURVE",
"488 871 OFFCURVE",
"446 871 CURVE SMOOTH",
"412 871 OFFCURVE",
"378 847 OFFCURVE",
"358 786 CURVE"
);
}
);
width = 740;
}
);
note = Ntilde;
unicode = 00D1;
},
{
glyphname = O;
lastChange = "2015-11-27 06:20:34 +0000";
layers = (
{
layerId = "F5311820-4606-4FC3-8850-6A1C02DF84E8";
name = "Light Italic";
paths = (
{
closed = 1;
nodes = (
"513 -10 OFFCURVE",
"645 223 OFFCURVE",
"645 470 CURVE SMOOTH",
"645 621 OFFCURVE",
"567 710 OFFCURVE",
"420 710 CURVE SMOOTH",
"192 710 OFFCURVE",
"58 477 OFFCURVE",
"58 228 CURVE SMOOTH",
"58 78 OFFCURVE",
"137 -10 OFFCURVE",
"282 -10 CURVE SMOOTH"
);
},
{
closed = 1;
nodes = (
"146 12 OFFCURVE",
"84 101 OFFCURVE",
"84 235 CURVE SMOOTH",
"84 460 OFFCURVE",
"210 688 OFFCURVE",
"420 688 CURVE SMOOTH",
"557 688 OFFCURVE",
"618 598 OFFCURVE",
"618 464 CURVE SMOOTH",
"618 239 OFFCURVE",
"492 12 OFFCURVE",
"282 12 CURVE SMOOTH"
);
}
);
width = 637;
}
);
leftKerningGroup = O;
note = O;
rightKerningGroup = O;
unicode = 004F;
},
{
glyphname = Oacute;
lastChange = "2015-11-27 06:24:38 +0000";
layers = (
{
layerId = "F5311820-4606-4FC3-8850-6A1C02DF84E8";
name = "Light Italic";
paths = (
{
closed = 1;
nodes = (
"513 -10 OFFCURVE",
"645 223 OFFCURVE",
"645 470 CURVE SMOOTH",
"645 621 OFFCURVE",
"567 710 OFFCURVE",
"420 710 CURVE SMOOTH",
"192 710 OFFCURVE",
"58 477 OFFCURVE",
"58 228 CURVE SMOOTH",
"58 78 OFFCURVE",
"137 -10 OFFCURVE",
"282 -10 CURVE SMOOTH"
);
},
{
closed = 1;
nodes = (
"146 12 OFFCURVE",
"84 101 OFFCURVE",
"84 235 CURVE SMOOTH",
"84 460 OFFCURVE",
"210 688 OFFCURVE",
"420 688 CURVE SMOOTH",
"557 688 OFFCURVE",
"618 598 OFFCURVE",
"618 464 CURVE SMOOTH",
"618 239 OFFCURVE",
"492 12 OFFCURVE",
"282 12 CURVE SMOOTH"
);
},
{
closed = 1;
nodes = (
"510 859 LINE SMOOTH",
"523 866 OFFCURVE",
"530 877 OFFCURVE",
"530 885 CURVE SMOOTH",
"530 892 OFFCURVE",
"525 896 OFFCURVE",
"519 896 CURVE SMOOTH",
"510 896 OFFCURVE",
"500 891 OFFCURVE",
"492 884 CURVE",
"372 797 LINE",
"376 787 LINE"
);
}
);
width = 637;
}
);
leftKerningGroup = O;
note = Oacute;
rightKerningGroup = O;
unicode = 00D3;
},
{
glyphname = Obreve;
lastChange = "2015-11-27 06:24:42 +0000";
layers = (
{
layerId = "F5311820-4606-4FC3-8850-6A1C02DF84E8";
name = "Light Italic";
paths = (
{
closed = 1;
nodes = (
"513 -10 OFFCURVE",
"645 223 OFFCURVE",
"645 470 CURVE SMOOTH",
"645 621 OFFCURVE",
"567 710 OFFCURVE",
"420 710 CURVE SMOOTH",
"192 710 OFFCURVE",
"58 477 OFFCURVE",
"58 228 CURVE SMOOTH",
"58 78 OFFCURVE",
"137 -10 OFFCURVE",
"282 -10 CURVE SMOOTH"
);
},
{
closed = 1;
nodes = (
"146 12 OFFCURVE",
"84 101 OFFCURVE",
"84 235 CURVE SMOOTH",
"84 460 OFFCURVE",
"210 688 OFFCURVE",
"420 688 CURVE SMOOTH",
"557 688 OFFCURVE",
"618 598 OFFCURVE",
"618 464 CURVE SMOOTH",
"618 239 OFFCURVE",
"492 12 OFFCURVE",
"282 12 CURVE SMOOTH"
);
},
{
closed = 1;
nodes = (
"505 771 OFFCURVE",
"563 806 OFFCURVE",
"585 884 CURVE",
"560 884 LINE",
"535 805 OFFCURVE",
"481 793 OFFCURVE",
"442 793 CURVE SMOOTH",
"405 793 OFFCURVE",
"359 803 OFFCURVE",
"359 868 CURVE SMOOTH",
"359 873 OFFCURVE",
"359 878 OFFCURVE",
"360 884 CURVE",
"335 884 LINE",
"334 876 OFFCURVE",
"333 869 OFFCURVE",
"333 862 CURVE SMOOTH",
"333 799 OFFCURVE",
"376 771 OFFCURVE",
"437 771 CURVE SMOOTH"
);
}
);
width = 637;
}
);
leftKerningGroup = O;
note = Obreve;
rightKerningGroup = O;
unicode = 014E;
},
{
glyphname = Ocaron;
lastChange = "2015-11-27 06:24:47 +0000";
layers = (
{
layerId = "F5311820-4606-4FC3-8850-6A1C02DF84E8";
name = "Light Italic";
paths = (
{
closed = 1;
nodes = (
"513 -10 OFFCURVE",
"645 223 OFFCURVE",
"645 470 CURVE SMOOTH",
"645 621 OFFCURVE",
"567 710 OFFCURVE",
"420 710 CURVE SMOOTH",
"192 710 OFFCURVE",
"58 477 OFFCURVE",
"58 228 CURVE SMOOTH",
"58 78 OFFCURVE",
"137 -10 OFFCURVE",
"282 -10 CURVE SMOOTH"
);
},
{
closed = 1;
nodes = (
"146 12 OFFCURVE",
"84 101 OFFCURVE",
"84 235 CURVE SMOOTH",
"84 460 OFFCURVE",
"210 688 OFFCURVE",
"420 688 CURVE SMOOTH",
"557 688 OFFCURVE",
"618 598 OFFCURVE",
"618 464 CURVE SMOOTH",
"618 239 OFFCURVE",
"492 12 OFFCURVE",
"282 12 CURVE SMOOTH"
);
},
{
closed = 1;
nodes = (
"447 787 LINE",
"490 833 OFFCURVE",
"531 864 OFFCURVE",
"571 890 CURVE",
"563 908 LINE",
"524 884 OFFCURVE",
"485 854 OFFCURVE",
"450 819 CURVE",
"444 819 LINE",
"423 854 OFFCURVE",
"396 884 OFFCURVE",
"369 908 CURVE",
"352 890 LINE",
"381 864 OFFCURVE",
"411 833 OFFCURVE",
"434 787 CURVE"
);
}
);
width = 637;
}
);
leftKerningGroup = O;
note = Ocaron;
rightKerningGroup = O;
unicode = 01D1;
},
{
glyphname = Ocircumflex;
lastChange = "2015-11-27 06:24:51 +0000";
layers = (
{
layerId = "F5311820-4606-4FC3-8850-6A1C02DF84E8";
name = "Light Italic";
paths = (
{
closed = 1;
nodes = (
"513 -10 OFFCURVE",
"645 223 OFFCURVE",
"645 470 CURVE SMOOTH",
"645 621 OFFCURVE",
"567 710 OFFCURVE",
"420 710 CURVE SMOOTH",
"192 710 OFFCURVE",
"58 477 OFFCURVE",
"58 228 CURVE SMOOTH",
"58 78 OFFCURVE",
"137 -10 OFFCURVE",
"282 -10 CURVE SMOOTH"
);
},
{
closed = 1;
nodes = (
"146 12 OFFCURVE",
"84 101 OFFCURVE",
"84 235 CURVE SMOOTH",
"84 460 OFFCURVE",
"210 688 OFFCURVE",
"420 688 CURVE SMOOTH",
"557 688 OFFCURVE",
"618 598 OFFCURVE",
"618 464 CURVE SMOOTH",
"618 239 OFFCURVE",
"492 12 OFFCURVE",
"282 12 CURVE SMOOTH"
);
},
{
closed = 1;
nodes = (
"378 801 OFFCURVE",
"418 831 OFFCURVE",
"453 866 CURVE",
"459 866 LINE",
"479 831 OFFCURVE",
"507 801 OFFCURVE",
"535 777 CURVE",
"551 795 LINE",
"521 821 OFFCURVE",
"492 852 OFFCURVE",
"468 898 CURVE",
"455 898 LINE",
"414 852 OFFCURVE",
"372 821 OFFCURVE",
"332 795 CURVE",
"341 777 LINE"
);
}
);
width = 637;
}
);
leftKerningGroup = O;
note = Ocircumflex;
rightKerningGroup = O;
unicode = 00D4;
},
{
glyphname = Ocircumflexacute;
lastChange = "2015-11-27 06:24:56 +0000";
layers = (
{
layerId = "F5311820-4606-4FC3-8850-6A1C02DF84E8";
name = "Light Italic";
paths = (
{
closed = 1;
nodes = (
"513 -10 OFFCURVE",
"645 223 OFFCURVE",
"645 470 CURVE SMOOTH",
"645 621 OFFCURVE",
"567 710 OFFCURVE",
"420 710 CURVE SMOOTH",
"192 710 OFFCURVE",
"58 477 OFFCURVE",
"58 228 CURVE SMOOTH",
"58 78 OFFCURVE",
"137 -10 OFFCURVE",
"282 -10 CURVE SMOOTH"
);
},
{
closed = 1;
nodes = (
"146 12 OFFCURVE",
"84 101 OFFCURVE",
"84 235 CURVE SMOOTH",
"84 460 OFFCURVE",
"210 688 OFFCURVE",
"420 688 CURVE SMOOTH",
"557 688 OFFCURVE",
"618 598 OFFCURVE",
"618 464 CURVE SMOOTH",
"618 239 OFFCURVE",
"492 12 OFFCURVE",
"282 12 CURVE SMOOTH"
);
},
{
closed = 1;
nodes = (
"379 801 OFFCURVE",
"419 831 OFFCURVE",
"454 866 CURVE",
"460 866 LINE",
"480 831 OFFCURVE",
"508 801 OFFCURVE",
"536 777 CURVE",
"552 795 LINE",
"522 821 OFFCURVE",
"493 852 OFFCURVE",
"469 898 CURVE",
"456 898 LINE",
"415 852 OFFCURVE",
"372 821 OFFCURVE",
"333 795 CURVE",
"342 777 LINE"
);
},
{
closed = 1;
nodes = (
"684 951 LINE SMOOTH",
"698 958 OFFCURVE",
"705 969 OFFCURVE",
"705 977 CURVE SMOOTH",
"705 984 OFFCURVE",
"700 988 OFFCURVE",
"694 988 CURVE SMOOTH",
"684 988 OFFCURVE",
"675 983 OFFCURVE",
"666 976 CURVE",
"547 889 LINE",
"551 879 LINE"
);
}
);
width = 637;
}
);
leftKerningGroup = O;
note = Ocircumflexacute;
rightKerningGroup = O;
unicode = 1ED0;
},
{
glyphname = Ocircumflexdotbelow;
lastChange = "2015-11-27 07:15:46 +0000";
layers = (
{
layerId = "F5311820-4606-4FC3-8850-6A1C02DF84E8";
name = "Light Italic";
paths = (
{
closed = 1;
nodes = (
"513 -10 OFFCURVE",
"645 223 OFFCURVE",
"645 470 CURVE SMOOTH",
"645 621 OFFCURVE",
"567 710 OFFCURVE",
"420 710 CURVE SMOOTH",
"192 710 OFFCURVE",
"58 477 OFFCURVE",
"58 228 CURVE SMOOTH",
"58 78 OFFCURVE",
"137 -10 OFFCURVE",
"282 -10 CURVE SMOOTH"
);
},
{
closed = 1;
nodes = (
"146 12 OFFCURVE",
"84 101 OFFCURVE",
"84 235 CURVE SMOOTH",
"84 460 OFFCURVE",
"210 688 OFFCURVE",
"420 688 CURVE SMOOTH",
"557 688 OFFCURVE",
"618 598 OFFCURVE",
"618 464 CURVE SMOOTH",
"618 239 OFFCURVE",
"492 12 OFFCURVE",
"282 12 CURVE SMOOTH"
);
},
{
closed = 1;
nodes = (
"379 801 OFFCURVE",
"419 831 OFFCURVE",
"454 866 CURVE",
"460 866 LINE",
"480 831 OFFCURVE",
"508 801 OFFCURVE",
"536 777 CURVE",
"552 795 LINE",
"522 821 OFFCURVE",
"493 852 OFFCURVE",
"469 898 CURVE",
"456 898 LINE",
"415 852 OFFCURVE",
"373 821 OFFCURVE",
"333 795 CURVE",
"342 777 LINE"
);
},
{
closed = 1;
nodes = (
"271 -124 OFFCURVE",
"284 -113 OFFCURVE",
"289 -94 CURVE",
"290 -91 OFFCURVE",
"290 -88 OFFCURVE",
"290 -86 CURVE SMOOTH",
"290 -72 OFFCURVE",
"281 -64 OFFCURVE",
"268 -64 CURVE SMOOTH",
"252 -64 OFFCURVE",
"239 -75 OFFCURVE",
"235 -94 CURVE",
"234 -97 OFFCURVE",
"234 -100 OFFCURVE",
"234 -103 CURVE SMOOTH",
"234 -117 OFFCURVE",
"243 -124 OFFCURVE",
"255 -124 CURVE SMOOTH"
);
}
);
width = 637;
}
);
leftKerningGroup = O;
note = Ocircumflexdotbelow;
rightKerningGroup = O;
unicode = 1ED8;
},
{
glyphname = Ocircumflexgrave;
lastChange = "2015-11-27 07:15:51 +0000";
layers = (
{
layerId = "F5311820-4606-4FC3-8850-6A1C02DF84E8";
name = "Light Italic";
paths = (
{
closed = 1;
nodes = (
"513 -10 OFFCURVE",
"645 223 OFFCURVE",
"645 470 CURVE SMOOTH",
"645 621 OFFCURVE",
"567 710 OFFCURVE",
"420 710 CURVE SMOOTH",
"192 710 OFFCURVE",
"58 477 OFFCURVE",
"58 228 CURVE SMOOTH",
"58 78 OFFCURVE",
"137 -10 OFFCURVE",
"282 -10 CURVE SMOOTH"
);
},
{
closed = 1;
nodes = (
"146 12 OFFCURVE",
"84 101 OFFCURVE",
"84 235 CURVE SMOOTH",
"84 460 OFFCURVE",
"210 688 OFFCURVE",
"420 688 CURVE SMOOTH",
"557 688 OFFCURVE",
"618 598 OFFCURVE",
"618 464 CURVE SMOOTH",
"618 239 OFFCURVE",
"492 12 OFFCURVE",
"282 12 CURVE SMOOTH"
);
},
{
closed = 1;
nodes = (
"388 889 LINE",
"302 976 LINE",
"298 983 OFFCURVE",
"290 988 OFFCURVE",
"280 988 CURVE SMOOTH",
"273 988 OFFCURVE",
"263 981 OFFCURVE",
"263 969 CURVE SMOOTH",
"263 963 OFFCURVE",
"267 956 OFFCURVE",
"275 951 CURVE",
"378 879 LINE"
);
},
{
closed = 1;
nodes = (
"379 801 OFFCURVE",
"419 831 OFFCURVE",
"454 866 CURVE",
"460 866 LINE",
"480 831 OFFCURVE",
"508 801 OFFCURVE",
"536 777 CURVE",
"552 795 LINE",
"522 821 OFFCURVE",
"493 852 OFFCURVE",
"469 898 CURVE",
"456 898 LINE",
"415 852 OFFCURVE",
"372 821 OFFCURVE",
"333 795 CURVE",
"342 777 LINE"
);
}
);
width = 637;
}
);
leftKerningGroup = O;
note = Ocircumflexgrave;
rightKerningGroup = O;
unicode = 1ED2;
},
{
glyphname = Ocircumflexhookabove;
lastChange = "2015-11-27 07:15:55 +0000";
layers = (
{
layerId = "F5311820-4606-4FC3-8850-6A1C02DF84E8";
name = "Light Italic";
paths = (
{
closed = 1;
nodes = (
"513 -10 OFFCURVE",
"645 223 OFFCURVE",
"645 470 CURVE SMOOTH",
"645 621 OFFCURVE",
"567 710 OFFCURVE",
"420 710 CURVE SMOOTH",
"192 710 OFFCURVE",
"58 477 OFFCURVE",
"58 228 CURVE SMOOTH",
"58 78 OFFCURVE",
"137 -10 OFFCURVE",
"282 -10 CURVE SMOOTH"
);
},
{
closed = 1;
nodes = (
"146 12 OFFCURVE",
"84 101 OFFCURVE",
"84 235 CURVE SMOOTH",
"84 460 OFFCURVE",
"210 688 OFFCURVE",
"420 688 CURVE SMOOTH",
"557 688 OFFCURVE",
"618 598 OFFCURVE",
"618 464 CURVE SMOOTH",
"618 239 OFFCURVE",
"492 12 OFFCURVE",
"282 12 CURVE SMOOTH"
);
},
{
closed = 1;
nodes = (
"379 801 OFFCURVE",
"418 831 OFFCURVE",
"454 866 CURVE",
"460 866 LINE",
"480 831 OFFCURVE",
"508 801 OFFCURVE",
"536 777 CURVE",
"552 795 LINE",
"522 821 OFFCURVE",
"493 852 OFFCURVE",
"469 898 CURVE",
"456 898 LINE",
"415 852 OFFCURVE",
"372 821 OFFCURVE",
"333 795 CURVE",
"342 777 LINE"
);
},
{
closed = 1;
nodes = (
"557 855 LINE",
"575 903 LINE",
"616 908 OFFCURVE",
"637 926 OFFCURVE",
"644 959 CURVE SMOOTH",
"645 964 OFFCURVE",
"646 969 OFFCURVE",
"646 973 CURVE SMOOTH",
"646 1002 OFFCURVE",
"622 1013 OFFCURVE",
"595 1013 CURVE SMOOTH",
"575 1013 OFFCURVE",
"555 1007 OFFCURVE",
"540 1000 CURVE",
"542 983 LINE",
"559 992 OFFCURVE",
"573 995 OFFCURVE",
"586 995 CURVE SMOOTH",
"615 995 OFFCURVE",
"626 981 OFFCURVE",
"622 960 CURVE",
"617 939 OFFCURVE",
"601 918 OFFCURVE",
"560 918 CURVE SMOOTH",
"551 918 LINE",
"542 855 LINE"
);
}
);
width = 637;
}
);
leftKerningGroup = O;
note = Ocircumflexhookabove;
rightKerningGroup = O;
unicode = 1ED4;
},
{
glyphname = Ocircumflextilde;
lastChange = "2015-11-27 07:15:58 +0000";
layers = (
{
layerId = "F5311820-4606-4FC3-8850-6A1C02DF84E8";
name = "Light Italic";
paths = (
{
closed = 1;
nodes = (
"513 -10 OFFCURVE",
"645 223 OFFCURVE",
"645 470 CURVE SMOOTH",
"645 621 OFFCURVE",
"567 710 OFFCURVE",
"420 710 CURVE SMOOTH",
"192 710 OFFCURVE",
"58 477 OFFCURVE",
"58 228 CURVE SMOOTH",
"58 78 OFFCURVE",
"137 -10 OFFCURVE",
"282 -10 CURVE SMOOTH"
);
},
{
closed = 1;
nodes = (
"146 12 OFFCURVE",
"84 101 OFFCURVE",
"84 235 CURVE SMOOTH",
"84 460 OFFCURVE",
"210 688 OFFCURVE",
"420 688 CURVE SMOOTH",
"557 688 OFFCURVE",
"618 598 OFFCURVE",
"618 464 CURVE SMOOTH",
"618 239 OFFCURVE",
"492 12 OFFCURVE",
"282 12 CURVE SMOOTH"
);
},
{
closed = 1;
nodes = (
"379 801 OFFCURVE",
"419 831 OFFCURVE",
"454 866 CURVE",
"460 866 LINE",
"480 831 OFFCURVE",
"508 801 OFFCURVE",
"536 777 CURVE",
"552 795 LINE",
"522 821 OFFCURVE",
"493 852 OFFCURVE",
"469 898 CURVE",
"456 898 LINE",
"415 852 OFFCURVE",
"372 821 OFFCURVE",
"333 795 CURVE",
"342 777 LINE"
);
},
{
closed = 1;
nodes = (
"351 932 LINE",
"369 970 OFFCURVE",
"393 994 OFFCURVE",
"422 994 CURVE SMOOTH",
"465 994 OFFCURVE",
"495 934 OFFCURVE",
"536 934 CURVE SMOOTH",
"573 934 OFFCURVE",
"605 968 OFFCURVE",
"625 1024 CURVE",
"614 1024 LINE",
"597 984 OFFCURVE",
"575 958 OFFCURVE",
"543 958 CURVE SMOOTH",
"504 958 OFFCURVE",
"470 1017 OFFCURVE",
"429 1017 CURVE SMOOTH",
"395 1017 OFFCURVE",
"361 993 OFFCURVE",
"341 932 CURVE"
);
}
);
width = 637;
}
);
leftKerningGroup = O;
note = Ocircumflextilde;
rightKerningGroup = O;
unicode = 1ED6;
},
{
glyphname = Odieresis;
lastChange = "2015-11-27 07:16:01 +0000";
layers = (
{
layerId = "F5311820-4606-4FC3-8850-6A1C02DF84E8";
name = "Light Italic";
paths = (
{
closed = 1;
nodes = (
"513 -10 OFFCURVE",
"645 223 OFFCURVE",
"645 470 CURVE SMOOTH",
"645 621 OFFCURVE",
"567 710 OFFCURVE",
"420 710 CURVE SMOOTH",
"192 710 OFFCURVE",
"58 477 OFFCURVE",
"58 228 CURVE SMOOTH",
"58 78 OFFCURVE",
"137 -10 OFFCURVE",
"282 -10 CURVE SMOOTH"
);
},
{
closed = 1;
nodes = (
"146 12 OFFCURVE",
"84 101 OFFCURVE",
"84 235 CURVE SMOOTH",
"84 460 OFFCURVE",
"210 688 OFFCURVE",
"420 688 CURVE SMOOTH",
"557 688 OFFCURVE",
"618 598 OFFCURVE",
"618 464 CURVE SMOOTH",
"618 239 OFFCURVE",
"492 12 OFFCURVE",
"282 12 CURVE SMOOTH"
);
},
{
closed = 1;
nodes = (
"360 785 OFFCURVE",
"377 799 OFFCURVE",
"377 823 CURVE SMOOTH",
"377 837 OFFCURVE",
"368 845 OFFCURVE",
"355 845 CURVE SMOOTH",
"340 845 OFFCURVE",
"326 834 OFFCURVE",
"323 815 CURVE",
"323 812 OFFCURVE",
"322 809 OFFCURVE",
"322 807 CURVE SMOOTH",
"322 793 OFFCURVE",
"329 785 OFFCURVE",
"343 785 CURVE SMOOTH"
);
},
{
closed = 1;
nodes = (
"552 785 OFFCURVE",
"569 799 OFFCURVE",
"569 823 CURVE SMOOTH",
"569 837 OFFCURVE",
"560 845 OFFCURVE",
"547 845 CURVE SMOOTH",
"530 845 OFFCURVE",
"514 830 OFFCURVE",
"514 806 CURVE SMOOTH",
"514 793 OFFCURVE",
"522 785 OFFCURVE",
"535 785 CURVE SMOOTH"
);
}
);
width = 637;
}
);
leftKerningGroup = O;
note = Odieresis;
rightKerningGroup = O;
unicode = 00D6;
},
{
glyphname = Odotbelow;
lastChange = "2015-11-27 07:16:05 +0000";
layers = (
{
layerId = "F5311820-4606-4FC3-8850-6A1C02DF84E8";
name = "Light Italic";
paths = (
{
closed = 1;
nodes = (
"513 -10 OFFCURVE",
"645 223 OFFCURVE",
"645 470 CURVE SMOOTH",
"645 621 OFFCURVE",
"567 710 OFFCURVE",
"420 710 CURVE SMOOTH",
"192 710 OFFCURVE",
"58 477 OFFCURVE",
"58 228 CURVE SMOOTH",
"58 78 OFFCURVE",
"137 -10 OFFCURVE",
"282 -10 CURVE SMOOTH"
);
},
{
closed = 1;
nodes = (
"146 12 OFFCURVE",
"84 101 OFFCURVE",
"84 235 CURVE SMOOTH",
"84 460 OFFCURVE",
"210 688 OFFCURVE",
"420 688 CURVE SMOOTH",
"557 688 OFFCURVE",
"618 598 OFFCURVE",
"618 464 CURVE SMOOTH",
"618 239 OFFCURVE",
"492 12 OFFCURVE",
"282 12 CURVE SMOOTH"
);
},
{
closed = 1;
nodes = (
"271 -124 OFFCURVE",
"284 -113 OFFCURVE",
"289 -94 CURVE",
"290 -91 OFFCURVE",
"290 -88 OFFCURVE",
"290 -86 CURVE SMOOTH",
"290 -72 OFFCURVE",
"281 -64 OFFCURVE",
"268 -64 CURVE SMOOTH",
"252 -64 OFFCURVE",
"239 -75 OFFCURVE",
"235 -94 CURVE",
"234 -97 OFFCURVE",
"234 -100 OFFCURVE",
"234 -103 CURVE SMOOTH",
"234 -117 OFFCURVE",
"243 -124 OFFCURVE",
"255 -124 CURVE SMOOTH"
);
}
);
width = 637;
}
);
leftKerningGroup = O;
note = Odotbelow;
rightKerningGroup = O;
unicode = 1ECC;
},
{
glyphname = Ograve;
lastChange = "2015-11-27 07:16:08 +0000";
layers = (
{
layerId = "F5311820-4606-4FC3-8850-6A1C02DF84E8";
name = "Light Italic";
paths = (
{
closed = 1;
nodes = (
"513 -10 OFFCURVE",
"645 223 OFFCURVE",
"645 470 CURVE SMOOTH",
"645 621 OFFCURVE",
"567 710 OFFCURVE",
"420 710 CURVE SMOOTH",
"192 710 OFFCURVE",
"58 477 OFFCURVE",
"58 228 CURVE SMOOTH",
"58 78 OFFCURVE",
"137 -10 OFFCURVE",
"282 -10 CURVE SMOOTH"
);
},
{
closed = 1;
nodes = (
"146 12 OFFCURVE",
"84 101 OFFCURVE",
"84 235 CURVE SMOOTH",
"84 460 OFFCURVE",
"210 688 OFFCURVE",
"420 688 CURVE SMOOTH",
"557 688 OFFCURVE",
"618 598 OFFCURVE",
"618 464 CURVE SMOOTH",
"618 239 OFFCURVE",
"492 12 OFFCURVE",
"282 12 CURVE SMOOTH"
);
},
{
closed = 1;
nodes = (
"513 797 LINE",
"427 884 LINE",
"422 891 OFFCURVE",
"415 896 OFFCURVE",
"405 896 CURVE SMOOTH",
"397 896 OFFCURVE",
"388 889 OFFCURVE",
"388 877 CURVE SMOOTH",
"388 871 OFFCURVE",
"392 864 OFFCURVE",
"399 859 CURVE",
"504 787 LINE"
);
}
);
width = 637;
}
);
leftKerningGroup = O;
note = Ograve;
rightKerningGroup = O;
unicode = 00D2;
},
{
glyphname = Ohookabove;
lastChange = "2015-11-27 07:16:10 +0000";
layers = (
{
layerId = "F5311820-4606-4FC3-8850-6A1C02DF84E8";
name = "Light Italic";
paths = (
{
closed = 1;
nodes = (
"513 -10 OFFCURVE",
"645 223 OFFCURVE",
"645 470 CURVE SMOOTH",
"645 621 OFFCURVE",
"567 710 OFFCURVE",
"420 710 CURVE SMOOTH",
"192 710 OFFCURVE",
"58 477 OFFCURVE",
"58 228 CURVE SMOOTH",
"58 78 OFFCURVE",
"137 -10 OFFCURVE",
"282 -10 CURVE SMOOTH"
);
},
{
closed = 1;
nodes = (
"146 12 OFFCURVE",
"84 101 OFFCURVE",
"84 235 CURVE SMOOTH",
"84 460 OFFCURVE",
"210 688 OFFCURVE",
"420 688 CURVE SMOOTH",
"557 688 OFFCURVE",
"618 598 OFFCURVE",
"618 464 CURVE SMOOTH",
"618 239 OFFCURVE",
"492 12 OFFCURVE",
"282 12 CURVE SMOOTH"
);
},
{
closed = 1;
nodes = (
"440 777 LINE",
"462 836 LINE",
"518 842 OFFCURVE",
"547 876 OFFCURVE",
"547 918 CURVE SMOOTH",
"547 952 OFFCURVE",
"520 969 OFFCURVE",
"487 969 CURVE SMOOTH",
"461 969 OFFCURVE",
"435 961 OFFCURVE",
"418 953 CURVE",
"420 932 LINE",
"441 943 OFFCURVE",
"461 948 OFFCURVE",
"476 948 CURVE SMOOTH",
"507 948 OFFCURVE",
"521 935 OFFCURVE",
"521 915 CURVE SMOOTH",
"521 888 OFFCURVE",
"502 853 OFFCURVE",
"445 853 CURVE SMOOTH",
"435 853 LINE",
"424 777 LINE"
);
}
);
width = 637;
}
);
leftKerningGroup = O;
note = Ohookabove;
rightKerningGroup = O;
unicode = 1ECE;
},
{
glyphname = Ohorn;
lastChange = "2015-11-27 07:16:13 +0000";
layers = (
{
layerId = "F5311820-4606-4FC3-8850-6A1C02DF84E8";
name = "Light Italic";
paths = (
{
closed = 1;
nodes = (
"513 -10 OFFCURVE",
"645 223 OFFCURVE",
"645 470 CURVE SMOOTH",
"645 621 OFFCURVE",
"567 710 OFFCURVE",
"420 710 CURVE SMOOTH",
"192 710 OFFCURVE",
"58 477 OFFCURVE",
"58 228 CURVE SMOOTH",
"58 78 OFFCURVE",
"137 -10 OFFCURVE",
"282 -10 CURVE SMOOTH"
);
},
{
closed = 1;
nodes = (
"146 12 OFFCURVE",
"84 101 OFFCURVE",
"84 235 CURVE SMOOTH",
"84 460 OFFCURVE",
"210 688 OFFCURVE",
"420 688 CURVE SMOOTH",
"557 688 OFFCURVE",
"618 598 OFFCURVE",
"618 464 CURVE SMOOTH",
"618 239 OFFCURVE",
"492 12 OFFCURVE",
"282 12 CURVE SMOOTH"
);
},
{
closed = 1;
nodes = (
"696 589 OFFCURVE",
"728 659 OFFCURVE",
"728 695 CURVE SMOOTH",
"728 717 OFFCURVE",
"719 731 OFFCURVE",
"695 731 CURVE SMOOTH",
"676 731 OFFCURVE",
"660 718 OFFCURVE",
"656 697 CURVE",
"655 694 OFFCURVE",
"655 690 OFFCURVE",
"655 687 CURVE SMOOTH",
"655 673 OFFCURVE",
"665 665 OFFCURVE",
"679 665 CURVE SMOOTH",
"685 665 OFFCURVE",
"694 667 OFFCURVE",
"701 672 CURVE",
"692 627 OFFCURVE",
"661 590 OFFCURVE",
"626 567 CURVE",
"634 550 LINE"
);
}
);
width = 637;
}
);
leftKerningGroup = O;
note = Ohorn;
rightKerningGroup = O;
unicode = 01A0;
},
{
glyphname = Ohornacute;
lastChange = "2015-11-27 07:16:18 +0000";
layers = (
{
layerId = "F5311820-4606-4FC3-8850-6A1C02DF84E8";
name = "Light Italic";
paths = (
{
closed = 1;
nodes = (
"513 -10 OFFCURVE",
"645 223 OFFCURVE",
"645 470 CURVE SMOOTH",
"645 621 OFFCURVE",
"567 710 OFFCURVE",
"420 710 CURVE SMOOTH",
"192 710 OFFCURVE",
"58 477 OFFCURVE",
"58 228 CURVE SMOOTH",
"58 78 OFFCURVE",
"137 -10 OFFCURVE",
"282 -10 CURVE SMOOTH"
);
},
{
closed = 1;
nodes = (
"146 12 OFFCURVE",
"84 101 OFFCURVE",
"84 235 CURVE SMOOTH",
"84 460 OFFCURVE",
"210 688 OFFCURVE",
"420 688 CURVE SMOOTH",
"557 688 OFFCURVE",
"618 598 OFFCURVE",
"618 464 CURVE SMOOTH",
"618 239 OFFCURVE",
"492 12 OFFCURVE",
"282 12 CURVE SMOOTH"
);
},
{
closed = 1;
nodes = (
"511 858 LINE SMOOTH",
"524 865 OFFCURVE",
"531 876 OFFCURVE",
"531 884 CURVE SMOOTH",
"531 891 OFFCURVE",
"526 895 OFFCURVE",
"520 895 CURVE SMOOTH",
"511 895 OFFCURVE",
"501 890 OFFCURVE",
"492 883 CURVE",
"372 796 LINE",
"377 786 LINE"
);
},
{
closed = 1;
nodes = (
"696 589 OFFCURVE",
"728 659 OFFCURVE",
"728 695 CURVE SMOOTH",
"728 717 OFFCURVE",
"719 731 OFFCURVE",
"695 731 CURVE SMOOTH",
"676 731 OFFCURVE",
"660 718 OFFCURVE",
"656 697 CURVE",
"655 694 OFFCURVE",
"655 690 OFFCURVE",
"655 687 CURVE SMOOTH",
"655 673 OFFCURVE",
"665 665 OFFCURVE",
"679 665 CURVE SMOOTH",
"685 665 OFFCURVE",
"694 667 OFFCURVE",
"701 672 CURVE",
"692 627 OFFCURVE",
"661 590 OFFCURVE",
"626 567 CURVE",
"634 550 LINE"
);
}
);
width = 637;
}
);
leftKerningGroup = O;
note = Ohornacute;
rightKerningGroup = O;
unicode = 1EDA;
},
{
glyphname = Ohorndotbelow;
lastChange = "2015-11-27 07:16:23 +0000";
layers = (
{
layerId = "F5311820-4606-4FC3-8850-6A1C02DF84E8";
name = "Light Italic";
paths = (
{
closed = 1;
nodes = (
"513 -10 OFFCURVE",
"645 223 OFFCURVE",
"645 470 CURVE SMOOTH",
"645 621 OFFCURVE",
"567 710 OFFCURVE",
"420 710 CURVE SMOOTH",
"192 710 OFFCURVE",
"58 477 OFFCURVE",
"58 228 CURVE SMOOTH",
"58 78 OFFCURVE",
"137 -10 OFFCURVE",
"282 -10 CURVE SMOOTH"
);
},
{
closed = 1;
nodes = (
"146 12 OFFCURVE",
"84 101 OFFCURVE",
"84 235 CURVE SMOOTH",
"84 460 OFFCURVE",
"210 688 OFFCURVE",
"420 688 CURVE SMOOTH",
"557 688 OFFCURVE",
"618 598 OFFCURVE",
"618 464 CURVE SMOOTH",
"618 239 OFFCURVE",
"492 12 OFFCURVE",
"282 12 CURVE SMOOTH"
);
},
{
closed = 1;
nodes = (
"696 589 OFFCURVE",
"728 659 OFFCURVE",
"728 695 CURVE SMOOTH",
"728 717 OFFCURVE",
"719 731 OFFCURVE",
"695 731 CURVE SMOOTH",
"676 731 OFFCURVE",
"660 718 OFFCURVE",
"656 697 CURVE",
"655 694 OFFCURVE",
"655 690 OFFCURVE",
"655 687 CURVE SMOOTH",
"655 673 OFFCURVE",
"665 665 OFFCURVE",
"679 665 CURVE SMOOTH",
"685 665 OFFCURVE",
"694 667 OFFCURVE",
"701 672 CURVE",
"692 627 OFFCURVE",
"661 590 OFFCURVE",
"626 567 CURVE",
"634 550 LINE"
);
},
{
closed = 1;
nodes = (
"271 -124 OFFCURVE",
"284 -113 OFFCURVE",
"289 -94 CURVE",
"290 -91 OFFCURVE",
"290 -88 OFFCURVE",
"290 -86 CURVE SMOOTH",
"290 -72 OFFCURVE",
"281 -64 OFFCURVE",
"268 -64 CURVE SMOOTH",
"252 -64 OFFCURVE",
"239 -75 OFFCURVE",
"235 -94 CURVE",
"234 -97 OFFCURVE",
"234 -100 OFFCURVE",
"234 -103 CURVE SMOOTH",
"234 -117 OFFCURVE",
"243 -124 OFFCURVE",
"255 -124 CURVE SMOOTH"
);
}
);
width = 637;
}
);
leftKerningGroup = O;
note = Ohorndotbelow;
rightKerningGroup = O;
unicode = 1EE2;
},
{
glyphname = Ohorngrave;
lastChange = "2015-11-27 07:16:27 +0000";
layers = (
{
layerId = "F5311820-4606-4FC3-8850-6A1C02DF84E8";
name = "Light Italic";
paths = (
{
closed = 1;
nodes = (
"513 -10 OFFCURVE",
"645 223 OFFCURVE",
"645 470 CURVE SMOOTH",
"645 621 OFFCURVE",
"567 710 OFFCURVE",
"420 710 CURVE SMOOTH",
"192 710 OFFCURVE",
"58 477 OFFCURVE",
"58 228 CURVE SMOOTH",
"58 78 OFFCURVE",
"137 -10 OFFCURVE",
"282 -10 CURVE SMOOTH"
);
},
{
closed = 1;
nodes = (
"146 12 OFFCURVE",
"84 101 OFFCURVE",
"84 235 CURVE SMOOTH",
"84 460 OFFCURVE",
"210 688 OFFCURVE",
"420 688 CURVE SMOOTH",
"557 688 OFFCURVE",
"618 598 OFFCURVE",
"618 464 CURVE SMOOTH",
"618 239 OFFCURVE",
"492 12 OFFCURVE",
"282 12 CURVE SMOOTH"
);
},
{
closed = 1;
nodes = (
"514 796 LINE",
"428 883 LINE",
"423 890 OFFCURVE",
"416 895 OFFCURVE",
"406 895 CURVE SMOOTH",
"398 895 OFFCURVE",
"389 888 OFFCURVE",
"389 876 CURVE SMOOTH",
"389 870 OFFCURVE",
"393 863 OFFCURVE",
"400 858 CURVE",
"505 786 LINE"
);
},
{
closed = 1;
nodes = (
"696 589 OFFCURVE",
"728 659 OFFCURVE",
"728 695 CURVE SMOOTH",
"728 717 OFFCURVE",
"719 731 OFFCURVE",
"695 731 CURVE SMOOTH",
"676 731 OFFCURVE",
"660 718 OFFCURVE",
"656 697 CURVE",
"655 694 OFFCURVE",
"655 690 OFFCURVE",
"655 687 CURVE SMOOTH",
"655 673 OFFCURVE",
"665 665 OFFCURVE",
"679 665 CURVE SMOOTH",
"685 665 OFFCURVE",
"694 667 OFFCURVE",
"701 672 CURVE",
"692 627 OFFCURVE",
"661 590 OFFCURVE",
"626 567 CURVE",
"634 550 LINE"
);
}
);
width = 637;
}
);
leftKerningGroup = O;
note = Ohorngrave;
rightKerningGroup = O;
unicode = 1EDC;
},
{
glyphname = Ohornhookabove;
lastChange = "2015-11-27 07:16:32 +0000";
layers = (
{
layerId = "F5311820-4606-4FC3-8850-6A1C02DF84E8";
name = "Light Italic";
paths = (
{
closed = 1;
nodes = (
"513 -10 OFFCURVE",
"645 223 OFFCURVE",
"645 470 CURVE SMOOTH",
"645 621 OFFCURVE",
"567 710 OFFCURVE",
"420 710 CURVE SMOOTH",
"192 710 OFFCURVE",
"58 477 OFFCURVE",
"58 228 CURVE SMOOTH",
"58 78 OFFCURVE",
"137 -10 OFFCURVE",
"282 -10 CURVE SMOOTH"
);
},
{
closed = 1;
nodes = (
"146 12 OFFCURVE",
"84 101 OFFCURVE",
"84 235 CURVE SMOOTH",
"84 460 OFFCURVE",
"210 688 OFFCURVE",
"420 688 CURVE SMOOTH",
"557 688 OFFCURVE",
"618 598 OFFCURVE",
"618 464 CURVE SMOOTH",
"618 239 OFFCURVE",
"492 12 OFFCURVE",
"282 12 CURVE SMOOTH"
);
},
{
closed = 1;
nodes = (
"696 589 OFFCURVE",
"728 659 OFFCURVE",
"728 695 CURVE SMOOTH",
"728 717 OFFCURVE",
"719 731 OFFCURVE",
"695 731 CURVE SMOOTH",
"676 731 OFFCURVE",
"660 718 OFFCURVE",
"656 697 CURVE",
"655 694 OFFCURVE",
"655 690 OFFCURVE",
"655 687 CURVE SMOOTH",
"655 673 OFFCURVE",
"665 665 OFFCURVE",
"679 665 CURVE SMOOTH",
"685 665 OFFCURVE",
"694 667 OFFCURVE",
"701 672 CURVE",
"692 627 OFFCURVE",
"661 590 OFFCURVE",
"626 567 CURVE",
"634 550 LINE"
);
},
{
closed = 1;
nodes = (
"443 777 LINE",
"465 836 LINE",
"514 841 OFFCURVE",
"540 868 OFFCURVE",
"548 903 CURVE SMOOTH",
"549 908 OFFCURVE",
"550 914 OFFCURVE",
"550 918 CURVE SMOOTH",
"550 952 OFFCURVE",
"523 969 OFFCURVE",
"490 969 CURVE SMOOTH",
"464 969 OFFCURVE",
"438 961 OFFCURVE",
"420 953 CURVE",
"423 932 LINE",
"444 943 OFFCURVE",
"464 948 OFFCURVE",
"479 948 CURVE SMOOTH",
"510 948 OFFCURVE",
"524 935 OFFCURVE",
"524 915 CURVE SMOOTH",
"524 888 OFFCURVE",
"505 853 OFFCURVE",
"448 853 CURVE SMOOTH",
"438 853 LINE",
"427 777 LINE"
);
}
);
width = 637;
}
);
leftKerningGroup = O;
note = Ohornhookabove;
rightKerningGroup = O;
unicode = 1EDE;
},
{
glyphname = Ohorntilde;
lastChange = "2015-11-27 07:16:36 +0000";
layers = (
{
layerId = "F5311820-4606-4FC3-8850-6A1C02DF84E8";
name = "Light Italic";
paths = (
{
closed = 1;
nodes = (
"513 -10 OFFCURVE",
"645 223 OFFCURVE",
"645 470 CURVE SMOOTH",
"645 621 OFFCURVE",
"567 710 OFFCURVE",
"420 710 CURVE SMOOTH",
"192 710 OFFCURVE",
"58 477 OFFCURVE",
"58 228 CURVE SMOOTH",
"58 78 OFFCURVE",
"137 -10 OFFCURVE",
"282 -10 CURVE SMOOTH"
);
},
{
closed = 1;
nodes = (
"146 12 OFFCURVE",
"84 101 OFFCURVE",
"84 235 CURVE SMOOTH",
"84 460 OFFCURVE",
"210 688 OFFCURVE",
"420 688 CURVE SMOOTH",
"557 688 OFFCURVE",
"618 598 OFFCURVE",
"618 464 CURVE SMOOTH",
"618 239 OFFCURVE",
"492 12 OFFCURVE",
"282 12 CURVE SMOOTH"
);
},
{
closed = 1;
nodes = (
"318 786 LINE",
"335 824 OFFCURVE",
"359 848 OFFCURVE",
"389 848 CURVE SMOOTH",
"431 848 OFFCURVE",
"462 788 OFFCURVE",
"502 788 CURVE SMOOTH",
"540 788 OFFCURVE",
"572 822 OFFCURVE",
"592 878 CURVE",
"582 878 LINE",
"564 838 OFFCURVE",
"542 812 OFFCURVE",
"510 812 CURVE SMOOTH",
"470 812 OFFCURVE",
"437 871 OFFCURVE",
"396 871 CURVE SMOOTH",
"361 871 OFFCURVE",
"327 847 OFFCURVE",
"307 786 CURVE"
);
},
{
closed = 1;
nodes = (
"696 589 OFFCURVE",
"728 659 OFFCURVE",
"728 695 CURVE SMOOTH",
"728 717 OFFCURVE",
"719 731 OFFCURVE",
"695 731 CURVE SMOOTH",
"676 731 OFFCURVE",
"660 718 OFFCURVE",
"656 697 CURVE",
"655 694 OFFCURVE",
"655 690 OFFCURVE",
"655 687 CURVE SMOOTH",
"655 673 OFFCURVE",
"665 665 OFFCURVE",
"679 665 CURVE SMOOTH",
"685 665 OFFCURVE",
"694 667 OFFCURVE",
"701 672 CURVE",
"692 627 OFFCURVE",
"661 590 OFFCURVE",
"626 567 CURVE",
"634 550 LINE"
);
}
);
width = 637;
}
);
leftKerningGroup = O;
note = Ohorntilde;
rightKerningGroup = O;
unicode = 1EE0;
},
{
glyphname = Ohungarumlaut;
lastChange = "2015-11-27 07:16:38 +0000";
layers = (
{
layerId = "F5311820-4606-4FC3-8850-6A1C02DF84E8";
name = "Light Italic";
paths = (
{
closed = 1;
nodes = (
"513 -10 OFFCURVE",
"645 223 OFFCURVE",
"645 470 CURVE SMOOTH",
"645 621 OFFCURVE",
"567 710 OFFCURVE",
"420 710 CURVE SMOOTH",
"192 710 OFFCURVE",
"58 477 OFFCURVE",
"58 228 CURVE SMOOTH",
"58 78 OFFCURVE",
"137 -10 OFFCURVE",
"282 -10 CURVE SMOOTH"
);
},
{
closed = 1;
nodes = (
"146 12 OFFCURVE",
"84 101 OFFCURVE",
"84 235 CURVE SMOOTH",
"84 460 OFFCURVE",
"210 688 OFFCURVE",
"420 688 CURVE SMOOTH",
"557 688 OFFCURVE",
"618 598 OFFCURVE",
"618 464 CURVE SMOOTH",
"618 239 OFFCURVE",
"492 12 OFFCURVE",
"282 12 CURVE SMOOTH"
);
},
{
closed = 1;
nodes = (
"471 859 LINE SMOOTH",
"484 866 OFFCURVE",
"492 876 OFFCURVE",
"492 884 CURVE SMOOTH",
"492 892 OFFCURVE",
"487 896 OFFCURVE",
"481 896 CURVE SMOOTH",
"471 896 OFFCURVE",
"462 891 OFFCURVE",
"453 884 CURVE",
"334 797 LINE",
"339 787 LINE"
);
},
{
closed = 1;
nodes = (
"640 859 LINE SMOOTH",
"654 866 OFFCURVE",
"660 877 OFFCURVE",
"660 886 CURVE SMOOTH",
"660 892 OFFCURVE",
"656 896 OFFCURVE",
"650 896 CURVE SMOOTH",
"640 896 OFFCURVE",
"631 891 OFFCURVE",
"622 884 CURVE",
"502 797 LINE",
"507 787 LINE"
);
}
);
width = 637;
}
);
leftKerningGroup = O;
note = Ohungarumlaut;
rightKerningGroup = O;
unicode = 0150;
},
{
glyphname = Omacron;
lastChange = "2015-11-27 07:16:41 +0000";
layers = (
{
layerId = "F5311820-4606-4FC3-8850-6A1C02DF84E8";
name = "Light Italic";
paths = (
{
closed = 1;
nodes = (
"513 -10 OFFCURVE",
"645 223 OFFCURVE",
"645 470 CURVE SMOOTH",
"645 621 OFFCURVE",
"567 710 OFFCURVE",
"420 710 CURVE SMOOTH",
"192 710 OFFCURVE",
"58 477 OFFCURVE",
"58 228 CURVE SMOOTH",
"58 78 OFFCURVE",
"137 -10 OFFCURVE",
"282 -10 CURVE SMOOTH"
);
},
{
closed = 1;
nodes = (
"146 12 OFFCURVE",
"84 101 OFFCURVE",
"84 235 CURVE SMOOTH",
"84 460 OFFCURVE",
"210 688 OFFCURVE",
"420 688 CURVE SMOOTH",
"557 688 OFFCURVE",
"618 598 OFFCURVE",
"618 464 CURVE SMOOTH",
"618 239 OFFCURVE",
"492 12 OFFCURVE",
"282 12 CURVE SMOOTH"
);
},
{
closed = 1;
nodes = (
"576 806 LINE",
"581 828 LINE",
"317 828 LINE",
"312 806 LINE"
);
}
);
width = 637;
}
);
leftKerningGroup = O;
note = Omacron;
rightKerningGroup = O;
unicode = 014C;
},
{
glyphname = Oslash;
lastChange = "2015-11-27 07:16:45 +0000";
layers = (
{
layerId = "F5311820-4606-4FC3-8850-6A1C02DF84E8";
name = "Light Italic";
paths = (
{
closed = 1;
nodes = (
"513 -10 OFFCURVE",
"645 223 OFFCURVE",
"645 470 CURVE SMOOTH",
"645 621 OFFCURVE",
"567 710 OFFCURVE",
"420 710 CURVE SMOOTH",
"192 710 OFFCURVE",
"58 477 OFFCURVE",
"58 228 CURVE SMOOTH",
"58 78 OFFCURVE",
"137 -10 OFFCURVE",
"282 -10 CURVE SMOOTH"
);
},
{
closed = 1;
nodes = (
"146 12 OFFCURVE",
"84 101 OFFCURVE",
"84 235 CURVE SMOOTH",
"84 460 OFFCURVE",
"210 688 OFFCURVE",
"420 688 CURVE SMOOTH",
"557 688 OFFCURVE",
"618 598 OFFCURVE",
"618 464 CURVE SMOOTH",
"618 239 OFFCURVE",
"492 12 OFFCURVE",
"282 12 CURVE SMOOTH"
);
},
{
closed = 1;
nodes = (
"632 705 LINE",
"614 717 LINE",
"56 -11 LINE",
"72 -24 LINE"
);
}
);
width = 637;
}
);
leftKerningGroup = O;
note = Oslash;
rightKerningGroup = O;
unicode = 00D8;
},
{
glyphname = Oslashacute;
lastChange = "2015-11-27 07:16:48 +0000";
layers = (
{
layerId = "F5311820-4606-4FC3-8850-6A1C02DF84E8";
name = "Light Italic";
paths = (
{
closed = 1;
nodes = (
"513 -10 OFFCURVE",
"645 223 OFFCURVE",
"645 470 CURVE SMOOTH",
"645 621 OFFCURVE",
"567 710 OFFCURVE",
"420 710 CURVE SMOOTH",
"192 710 OFFCURVE",
"58 477 OFFCURVE",
"58 228 CURVE SMOOTH",
"58 78 OFFCURVE",
"137 -10 OFFCURVE",
"282 -10 CURVE SMOOTH"
);
},
{
closed = 1;
nodes = (
"146 12 OFFCURVE",
"84 101 OFFCURVE",
"84 235 CURVE SMOOTH",
"84 460 OFFCURVE",
"210 688 OFFCURVE",
"420 688 CURVE SMOOTH",
"557 688 OFFCURVE",
"618 598 OFFCURVE",
"618 464 CURVE SMOOTH",
"618 239 OFFCURVE",
"492 12 OFFCURVE",
"282 12 CURVE SMOOTH"
);
},
{
closed = 1;
nodes = (
"632 705 LINE",
"614 717 LINE",
"56 -11 LINE",
"72 -24 LINE"
);
},
{
closed = 1;
nodes = (
"528 859 LINE SMOOTH",
"542 866 OFFCURVE",
"548 877 OFFCURVE",
"548 885 CURVE SMOOTH",
"548 892 OFFCURVE",
"543 896 OFFCURVE",
"538 896 CURVE SMOOTH",
"528 896 OFFCURVE",
"518 891 OFFCURVE",
"510 884 CURVE",
"390 797 LINE",
"395 787 LINE"
);
}
);
width = 637;
}
);
leftKerningGroup = O;
note = Oslashacute;
rightKerningGroup = O;
unicode = 01FE;
},
{
glyphname = Otilde;
lastChange = "2015-11-27 07:16:51 +0000";
layers = (
{
layerId = "F5311820-4606-4FC3-8850-6A1C02DF84E8";
name = "Light Italic";
paths = (
{
closed = 1;
nodes = (
"513 -10 OFFCURVE",
"645 223 OFFCURVE",
"645 470 CURVE SMOOTH",
"645 621 OFFCURVE",
"567 710 OFFCURVE",
"420 710 CURVE SMOOTH",
"192 710 OFFCURVE",
"58 477 OFFCURVE",
"58 228 CURVE SMOOTH",
"58 78 OFFCURVE",
"137 -10 OFFCURVE",
"282 -10 CURVE SMOOTH"
);
},
{
closed = 1;
nodes = (
"146 12 OFFCURVE",
"84 101 OFFCURVE",
"84 235 CURVE SMOOTH",
"84 460 OFFCURVE",
"210 688 OFFCURVE",
"420 688 CURVE SMOOTH",
"557 688 OFFCURVE",
"618 598 OFFCURVE",
"618 464 CURVE SMOOTH",
"618 239 OFFCURVE",
"492 12 OFFCURVE",
"282 12 CURVE SMOOTH"
);
},
{
closed = 1;
nodes = (
"318 786 LINE",
"335 824 OFFCURVE",
"359 848 OFFCURVE",
"389 848 CURVE SMOOTH",
"431 848 OFFCURVE",
"462 788 OFFCURVE",
"502 788 CURVE SMOOTH",
"540 788 OFFCURVE",
"572 822 OFFCURVE",
"592 878 CURVE",
"582 878 LINE",
"564 838 OFFCURVE",
"542 812 OFFCURVE",
"510 812 CURVE SMOOTH",
"470 812 OFFCURVE",
"437 871 OFFCURVE",
"396 871 CURVE SMOOTH",
"361 871 OFFCURVE",
"327 847 OFFCURVE",
"307 786 CURVE"
);
}
);
width = 637;
}
);
leftKerningGroup = O;
note = Otilde;
rightKerningGroup = O;
unicode = 00D5;
},
{
glyphname = OE;
lastChange = "2015-11-27 06:23:30 +0000";
layers = (
{
layerId = "F5311820-4606-4FC3-8850-6A1C02DF84E8";
name = "Light Italic";
paths = (
{
closed = 1;
nodes = (
"341 -10 OFFCURVE",
"397 6 OFFCURVE",
"445 36 CURVE",
"439 0 LINE",
"793 0 LINE",
"826 114 LINE",
"817 114 LINE",
"805 96 OFFCURVE",
"780 45 OFFCURVE",
"774 22 CURVE",
"469 22 LINE",
"537 349 LINE",
"771 349 LINE",
"770 337 OFFCURVE",
"768 317 OFFCURVE",
"768 297 CURVE SMOOTH",
"768 287 OFFCURVE",
"769 277 OFFCURVE",
"770 269 CURVE",
"778 269 LINE",
"814 451 LINE",
"806 451 LINE",
"795 430 OFFCURVE",
"780 389 OFFCURVE",
"775 371 CURVE",
"540 371 LINE",
"604 678 LINE",
"908 678 LINE",
"906 660 OFFCURVE",
"902 625 OFFCURVE",
"902 602 CURVE SMOOTH",
"902 595 OFFCURVE",
"902 590 OFFCURVE",
"903 586 CURVE",
"912 586 LINE",
"935 700 LINE",
"581 700 LINE",
"573 663 LINE",
"538 694 OFFCURVE",
"486 710 OFFCURVE",
"422 710 CURVE SMOOTH",
"192 710 OFFCURVE",
"57 475 OFFCURVE",
"57 228 CURVE SMOOTH",
"57 78 OFFCURVE",
"131 -10 OFFCURVE",
"277 -10 CURVE SMOOTH"
);
},
{
closed = 1;
nodes = (
"147 12 OFFCURVE",
"85 101 OFFCURVE",
"85 235 CURVE SMOOTH",
"85 459 OFFCURVE",
"211 688 OFFCURVE",
"420 688 CURVE SMOOTH",
"486 688 OFFCURVE",
"534 666 OFFCURVE",
"566 629 CURVE",
"452 70 LINE",
"405 33 OFFCURVE",
"348 12 OFFCURVE",
"282 12 CURVE SMOOTH"
);
}
);
width = 895;
}
);
note = OE;
unicode = 0152;
},
{
glyphname = P;
lastChange = "2015-10-25 23:53:10 +0000";
layers = (
{
layerId = "F5311820-4606-4FC3-8850-6A1C02DF84E8";
name = "Light Italic";
paths = (
{
closed = 1;
nodes = (
"194 0 LINE",
"195 5 LINE",
"173 13 OFFCURVE",
"146 18 OFFCURVE",
"119 22 CURVE",
"173 283 LINE",
"336 283 LINE SMOOTH",
"474 283 OFFCURVE",
"548 369 OFFCURVE",
"573 491 CURVE SMOOTH",
"578 514 OFFCURVE",
"580 535 OFFCURVE",
"580 555 CURVE SMOOTH",
"580 643 OFFCURVE",
"533 700 OFFCURVE",
"420 700 CURVE SMOOTH",
"154 700 LINE",
"153 695 LINE",
"175 687 OFFCURVE",
"199 682 OFFCURVE",
"227 678 CURVE",
"92 21 LINE",
"63 18 OFFCURVE",
"35 13 OFFCURVE",
"11 5 CURVE",
"10 0 LINE"
);
},
{
closed = 1;
nodes = (
"253 678 LINE",
"418 678 LINE SMOOTH",
"513 678 OFFCURVE",
"553 626 OFFCURVE",
"553 549 CURVE SMOOTH",
"553 531 OFFCURVE",
"550 512 OFFCURVE",
"546 491 CURVE SMOOTH",
"524 384 OFFCURVE",
"459 305 OFFCURVE",
"341 305 CURVE SMOOTH",
"177 305 LINE"
);
}
);
width = 550;
}
);
note = P;
unicode = 0050;
},
{
glyphname = Thorn;
lastChange = "2015-11-27 06:14:45 +0000";
layers = (
{
layerId = "F5311820-4606-4FC3-8850-6A1C02DF84E8";
name = "Light Italic";
paths = (
{
closed = 1;
nodes = (
"195 0 LINE",
"196 5 LINE",
"174 13 OFFCURVE",
"147 18 OFFCURVE",
"120 22 CURVE",
"143 132 LINE",
"306 132 LINE SMOOTH",
"444 132 OFFCURVE",
"518 218 OFFCURVE",
"543 340 CURVE SMOOTH",
"548 363 OFFCURVE",
"550 384 OFFCURVE",
"550 404 CURVE SMOOTH",
"550 492 OFFCURVE",
"503 549 OFFCURVE",
"391 549 CURVE SMOOTH",
"228 549 LINE",
"258 700 LINE",
"155 700 LINE",
"154 695 LINE",
"176 687 OFFCURVE",
"200 682 OFFCURVE",
"228 678 CURVE",
"93 21 LINE",
"64 18 OFFCURVE",
"36 13 OFFCURVE",
"12 5 CURVE",
"11 0 LINE"
);
},
{
closed = 1;
nodes = (
"224 527 LINE",
"388 527 LINE SMOOTH",
"483 527 OFFCURVE",
"523 476 OFFCURVE",
"523 400 CURVE SMOOTH",
"523 381 OFFCURVE",
"520 361 OFFCURVE",
"516 340 CURVE SMOOTH",
"494 233 OFFCURVE",
"429 154 OFFCURVE",
"311 154 CURVE SMOOTH",
"147 154 LINE"
);
}
);
width = 550;
}
);
note = Thorn;
unicode = 00DE;
},
{
glyphname = Q;
lastChange = "2015-11-27 07:17:10 +0000";
layers = (
{
layerId = "F5311820-4606-4FC3-8850-6A1C02DF84E8";
name = "Light Italic";
paths = (
{
closed = 1;
nodes = (
"513 -10 OFFCURVE",
"645 223 OFFCURVE",
"645 470 CURVE SMOOTH",
"645 621 OFFCURVE",
"567 710 OFFCURVE",
"420 710 CURVE SMOOTH",
"192 710 OFFCURVE",
"58 477 OFFCURVE",
"58 228 CURVE SMOOTH",
"58 78 OFFCURVE",
"137 -10 OFFCURVE",
"282 -10 CURVE SMOOTH"
);
},
{
closed = 1;
nodes = (
"146 12 OFFCURVE",
"84 101 OFFCURVE",
"84 235 CURVE SMOOTH",
"84 460 OFFCURVE",
"210 688 OFFCURVE",
"420 688 CURVE SMOOTH",
"557 688 OFFCURVE",
"618 598 OFFCURVE",
"618 464 CURVE SMOOTH",
"618 239 OFFCURVE",
"492 12 OFFCURVE",
"282 12 CURVE SMOOTH"
);
},
{
closed = 1;
nodes = (
"454 -141 LINE",
"363 -133 OFFCURVE",
"313 -87 OFFCURVE",
"313 -20 CURVE SMOOTH",
"313 -15 OFFCURVE",
"313 -10 OFFCURVE",
"314 -4 CURVE",
"288 -4 LINE",
"288 -9 OFFCURVE",
"287 -14 OFFCURVE",
"287 -19 CURVE SMOOTH",
"287 -98 OFFCURVE",
"340 -150 OFFCURVE",
"450 -159 CURVE"
);
}
);
width = 637;
}
);
leftKerningGroup = O;
note = Q;
rightKerningGroup = O;
unicode = 0051;
},
{
glyphname = R;
lastChange = "2015-11-27 06:14:54 +0000";
layers = (
{
layerId = "F5311820-4606-4FC3-8850-6A1C02DF84E8";
name = "Light Italic";
paths = (
{
closed = 1;
nodes = (
"194 0 LINE",
"195 5 LINE",
"173 13 OFFCURVE",
"146 18 OFFCURVE",
"119 22 CURVE",
"177 303 LINE",
"340 303 LINE SMOOTH",
"478 303 OFFCURVE",
"550 379 OFFCURVE",
"575 501 CURVE SMOOTH",
"580 523 OFFCURVE",
"582 544 OFFCURVE",
"582 563 CURVE SMOOTH",
"582 649 OFFCURVE",
"534 700 OFFCURVE",
"420 700 CURVE SMOOTH",
"154 700 LINE",
"153 695 LINE",
"175 687 OFFCURVE",
"199 682 OFFCURVE",
"227 678 CURVE",
"92 21 LINE",
"63 18 OFFCURVE",
"35 13 OFFCURVE",
"11 5 CURVE",
"10 0 LINE"
);
},
{
closed = 1;
nodes = (
"253 678 LINE",
"418 678 LINE SMOOTH",
"514 678 OFFCURVE",
"555 632 OFFCURVE",
"555 557 CURVE SMOOTH",
"555 540 OFFCURVE",
"552 521 OFFCURVE",
"548 501 CURVE SMOOTH",
"526 394 OFFCURVE",
"464 325 OFFCURVE",
"346 325 CURVE SMOOTH",
"181 325 LINE"
);
},
{
closed = 1;
nodes = (
"521 0 LINE",
"522 7 LINE",
"510 13 OFFCURVE",
"478 18 OFFCURVE",
"459 21 CURVE",
"357 306 LINE",
"327 306 LINE",
"436 0 LINE"
);
}
);
width = 591;
}
);
note = R;
rightKerningGroup = R;
unicode = 0052;
},
{
glyphname = Racute;
lastChange = "2015-11-27 06:15:00 +0000";
layers = (
{
layerId = "F5311820-4606-4FC3-8850-6A1C02DF84E8";
name = "Light Italic";
paths = (
{
closed = 1;
nodes = (
"194 0 LINE",
"195 5 LINE",
"173 13 OFFCURVE",
"146 18 OFFCURVE",
"119 22 CURVE",
"177 303 LINE",
"340 303 LINE SMOOTH",
"478 303 OFFCURVE",
"550 379 OFFCURVE",
"575 501 CURVE SMOOTH",
"580 523 OFFCURVE",
"582 544 OFFCURVE",
"582 563 CURVE SMOOTH",
"582 649 OFFCURVE",
"534 700 OFFCURVE",
"420 700 CURVE SMOOTH",
"154 700 LINE",
"153 695 LINE",
"175 687 OFFCURVE",
"199 682 OFFCURVE",
"227 678 CURVE",
"92 21 LINE",
"63 18 OFFCURVE",
"35 13 OFFCURVE",
"11 5 CURVE",
"10 0 LINE"
);
},
{
closed = 1;
nodes = (
"253 678 LINE",
"418 678 LINE SMOOTH",
"514 678 OFFCURVE",
"555 632 OFFCURVE",
"555 557 CURVE SMOOTH",
"555 540 OFFCURVE",
"552 521 OFFCURVE",
"548 501 CURVE SMOOTH",
"526 394 OFFCURVE",
"464 325 OFFCURVE",
"346 325 CURVE SMOOTH",
"181 325 LINE"
);
},
{
closed = 1;
nodes = (
"521 0 LINE",
"522 7 LINE",
"510 13 OFFCURVE",
"478 18 OFFCURVE",
"459 21 CURVE",
"357 306 LINE",
"327 306 LINE",
"436 0 LINE"
);
},
{
closed = 1;
nodes = (
"487 859 LINE SMOOTH",
"500 866 OFFCURVE",
"507 877 OFFCURVE",
"507 885 CURVE SMOOTH",
"507 892 OFFCURVE",
"502 896 OFFCURVE",
"496 896 CURVE SMOOTH",
"487 896 OFFCURVE",
"477 891 OFFCURVE",
"468 884 CURVE",
"348 797 LINE",
"353 787 LINE"
);
}
);
width = 591;
}
);
note = Racute;
rightKerningGroup = R;
unicode = 0154;
},
{
glyphname = Rcaron;
lastChange = "2015-11-27 06:15:06 +0000";
layers = (
{
layerId = "F5311820-4606-4FC3-8850-6A1C02DF84E8";
name = "Light Italic";
paths = (
{
closed = 1;
nodes = (
"194 0 LINE",
"195 5 LINE",
"173 13 OFFCURVE",
"146 18 OFFCURVE",
"119 22 CURVE",
"177 303 LINE",
"340 303 LINE SMOOTH",
"478 303 OFFCURVE",
"550 379 OFFCURVE",
"575 501 CURVE SMOOTH",
"580 523 OFFCURVE",
"582 544 OFFCURVE",
"582 563 CURVE SMOOTH",
"582 649 OFFCURVE",
"534 700 OFFCURVE",
"420 700 CURVE SMOOTH",
"154 700 LINE",
"153 695 LINE",
"175 687 OFFCURVE",
"199 682 OFFCURVE",
"227 678 CURVE",
"92 21 LINE",
"63 18 OFFCURVE",
"35 13 OFFCURVE",
"11 5 CURVE",
"10 0 LINE"
);
},
{
closed = 1;
nodes = (
"253 678 LINE",
"418 678 LINE SMOOTH",
"514 678 OFFCURVE",
"555 632 OFFCURVE",
"555 557 CURVE SMOOTH",
"555 540 OFFCURVE",
"552 521 OFFCURVE",
"548 501 CURVE SMOOTH",
"526 394 OFFCURVE",
"464 325 OFFCURVE",
"346 325 CURVE SMOOTH",
"181 325 LINE"
);
},
{
closed = 1;
nodes = (
"521 0 LINE",
"522 7 LINE",
"510 13 OFFCURVE",
"478 18 OFFCURVE",
"459 21 CURVE",
"357 306 LINE",
"327 306 LINE",
"436 0 LINE"
);
},
{
closed = 1;
nodes = (
"423 787 LINE",
"466 833 OFFCURVE",
"507 864 OFFCURVE",
"547 890 CURVE",
"539 908 LINE",
"500 884 OFFCURVE",
"461 854 OFFCURVE",
"426 819 CURVE",
"420 819 LINE",
"399 854 OFFCURVE",
"372 884 OFFCURVE",
"345 908 CURVE",
"328 890 LINE",
"357 864 OFFCURVE",
"387 833 OFFCURVE",
"410 787 CURVE"
);
}
);
width = 591;
}
);
note = Rcaron;
rightKerningGroup = R;
unicode = 0158;
},
{
glyphname = Rcommaaccent;
lastChange = "2015-11-27 06:15:12 +0000";
layers = (
{
layerId = "F5311820-4606-4FC3-8850-6A1C02DF84E8";
name = "Light Italic";
paths = (
{
closed = 1;
nodes = (
"194 0 LINE",
"195 5 LINE",
"173 13 OFFCURVE",
"146 18 OFFCURVE",
"119 22 CURVE",
"177 303 LINE",
"340 303 LINE SMOOTH",
"478 303 OFFCURVE",
"550 379 OFFCURVE",
"575 501 CURVE SMOOTH",
"580 523 OFFCURVE",
"582 544 OFFCURVE",
"582 563 CURVE SMOOTH",
"582 649 OFFCURVE",
"534 700 OFFCURVE",
"420 700 CURVE SMOOTH",
"154 700 LINE",
"153 695 LINE",
"175 687 OFFCURVE",
"199 682 OFFCURVE",
"227 678 CURVE",
"92 21 LINE",
"63 18 OFFCURVE",
"35 13 OFFCURVE",
"11 5 CURVE",
"10 0 LINE"
);
},
{
closed = 1;
nodes = (
"253 678 LINE",
"418 678 LINE SMOOTH",
"514 678 OFFCURVE",
"555 632 OFFCURVE",
"555 557 CURVE SMOOTH",
"555 540 OFFCURVE",
"552 521 OFFCURVE",
"548 501 CURVE SMOOTH",
"526 394 OFFCURVE",
"464 325 OFFCURVE",
"346 325 CURVE SMOOTH",
"181 325 LINE"
);
},
{
closed = 1;
nodes = (
"521 0 LINE",
"522 7 LINE",
"510 13 OFFCURVE",
"478 18 OFFCURVE",
"459 21 CURVE",
"357 306 LINE",
"327 306 LINE",
"436 0 LINE"
);
},
{
closed = 1;
nodes = (
"254 -206 OFFCURVE",
"282 -145 OFFCURVE",
"289 -111 CURVE SMOOTH",
"291 -103 OFFCURVE",
"292 -96 OFFCURVE",
"292 -89 CURVE SMOOTH",
"292 -69 OFFCURVE",
"283 -56 OFFCURVE",
"260 -56 CURVE SMOOTH",
"244 -56 OFFCURVE",
"227 -65 OFFCURVE",
"222 -88 CURVE SMOOTH",
"221 -91 OFFCURVE",
"221 -94 OFFCURVE",
"221 -96 CURVE SMOOTH",
"221 -108 OFFCURVE",
"228 -118 OFFCURVE",
"240 -118 CURVE SMOOTH",
"246 -118 OFFCURVE",
"254 -118 OFFCURVE",
"261 -114 CURVE",
"259 -124 LINE SMOOTH",
"252 -158 OFFCURVE",
"233 -196 OFFCURVE",
"208 -222 CURVE",
"221 -235 LINE"
);
}
);
width = 591;
}
);
note = Rcommaaccent;
rightKerningGroup = R;
unicode = 0156;
},
{
glyphname = Rdotbelow;
lastChange = "2015-11-27 06:15:23 +0000";
layers = (
{
layerId = "F5311820-4606-4FC3-8850-6A1C02DF84E8";
name = "Light Italic";
paths = (
{
closed = 1;
nodes = (
"194 0 LINE",
"195 5 LINE",
"173 13 OFFCURVE",
"146 18 OFFCURVE",
"119 22 CURVE",
"177 303 LINE",
"340 303 LINE SMOOTH",
"478 303 OFFCURVE",
"550 379 OFFCURVE",
"575 501 CURVE SMOOTH",
"580 523 OFFCURVE",
"582 544 OFFCURVE",
"582 563 CURVE SMOOTH",
"582 649 OFFCURVE",
"534 700 OFFCURVE",
"420 700 CURVE SMOOTH",
"154 700 LINE",
"153 695 LINE",
"175 687 OFFCURVE",
"199 682 OFFCURVE",
"227 678 CURVE",
"92 21 LINE",
"63 18 OFFCURVE",
"35 13 OFFCURVE",
"11 5 CURVE",
"10 0 LINE"
);
},
{
closed = 1;
nodes = (
"253 678 LINE",
"418 678 LINE SMOOTH",
"514 678 OFFCURVE",
"555 632 OFFCURVE",
"555 557 CURVE SMOOTH",
"555 540 OFFCURVE",
"552 521 OFFCURVE",
"548 501 CURVE SMOOTH",
"526 394 OFFCURVE",
"464 325 OFFCURVE",
"346 325 CURVE SMOOTH",
"181 325 LINE"
);
},
{
closed = 1;
nodes = (
"521 0 LINE",
"522 7 LINE",
"510 13 OFFCURVE",
"478 18 OFFCURVE",
"459 21 CURVE",
"357 306 LINE",
"327 306 LINE",
"436 0 LINE"
);
},
{
closed = 1;
nodes = (
"266 -124 OFFCURVE",
"279 -113 OFFCURVE",
"284 -94 CURVE",
"285 -91 OFFCURVE",
"285 -88 OFFCURVE",
"285 -86 CURVE SMOOTH",
"285 -72 OFFCURVE",
"276 -64 OFFCURVE",
"263 -64 CURVE SMOOTH",
"248 -64 OFFCURVE",
"234 -75 OFFCURVE",
"230 -94 CURVE",
"229 -97 OFFCURVE",
"229 -100 OFFCURVE",
"229 -102 CURVE SMOOTH",
"229 -116 OFFCURVE",
"238 -124 OFFCURVE",
"251 -124 CURVE SMOOTH"
);
}
);
width = 591;
}
);
note = Rdotbelow;
rightKerningGroup = R;
unicode = 1E5A;
},
{
glyphname = Rdotbelowmacron;
lastChange = "2015-11-27 06:15:46 +0000";
layers = (
{
layerId = "F5311820-4606-4FC3-8850-6A1C02DF84E8";
name = "Light Italic";
paths = (
{
closed = 1;
nodes = (
"194 0 LINE",
"195 5 LINE",
"173 13 OFFCURVE",
"146 18 OFFCURVE",
"119 22 CURVE",
"177 303 LINE",
"340 303 LINE SMOOTH",
"478 303 OFFCURVE",
"550 379 OFFCURVE",
"575 501 CURVE SMOOTH",
"580 523 OFFCURVE",
"582 544 OFFCURVE",
"582 563 CURVE SMOOTH",
"582 649 OFFCURVE",
"534 700 OFFCURVE",
"420 700 CURVE SMOOTH",
"154 700 LINE",
"153 695 LINE",
"175 687 OFFCURVE",
"199 682 OFFCURVE",
"227 678 CURVE",
"92 21 LINE",
"63 18 OFFCURVE",
"35 13 OFFCURVE",
"11 5 CURVE",
"10 0 LINE"
);
},
{
closed = 1;
nodes = (
"253 678 LINE",
"418 678 LINE SMOOTH",
"514 678 OFFCURVE",
"555 632 OFFCURVE",
"555 557 CURVE SMOOTH",
"555 540 OFFCURVE",
"552 521 OFFCURVE",
"548 501 CURVE SMOOTH",
"526 394 OFFCURVE",
"464 325 OFFCURVE",
"346 325 CURVE SMOOTH",
"181 325 LINE"
);
},
{
closed = 1;
nodes = (
"521 0 LINE",
"522 7 LINE",
"510 13 OFFCURVE",
"478 18 OFFCURVE",
"459 21 CURVE",
"357 306 LINE",
"327 306 LINE",
"436 0 LINE"
);
},
{
closed = 1;
nodes = (
"266 -124 OFFCURVE",
"279 -113 OFFCURVE",
"284 -94 CURVE",
"285 -91 OFFCURVE",
"285 -88 OFFCURVE",
"285 -86 CURVE SMOOTH",
"285 -72 OFFCURVE",
"276 -64 OFFCURVE",
"263 -64 CURVE SMOOTH",
"248 -64 OFFCURVE",
"234 -75 OFFCURVE",
"230 -94 CURVE",
"229 -97 OFFCURVE",
"229 -100 OFFCURVE",
"229 -102 CURVE SMOOTH",
"229 -116 OFFCURVE",
"238 -124 OFFCURVE",
"251 -124 CURVE SMOOTH"
);
},
{
closed = 1;
nodes = (
"521 785 LINE",
"526 807 LINE",
"262 807 LINE",
"257 785 LINE"
);
}
);
width = 591;
}
);
note = Rdotbelowmacron;
rightKerningGroup = R;
unicode = 1E5C;
},
{
glyphname = Rlinebelow;
lastChange = "2015-11-27 06:15:59 +0000";
layers = (
{
layerId = "F5311820-4606-4FC3-8850-6A1C02DF84E8";
name = "Light Italic";
paths = (
{
closed = 1;
nodes = (
"194 0 LINE",
"195 5 LINE",
"173 13 OFFCURVE",
"146 18 OFFCURVE",
"119 22 CURVE",
"177 303 LINE",
"340 303 LINE SMOOTH",
"478 303 OFFCURVE",
"550 379 OFFCURVE",
"575 501 CURVE SMOOTH",
"580 523 OFFCURVE",
"582 544 OFFCURVE",
"582 563 CURVE SMOOTH",
"582 649 OFFCURVE",
"534 700 OFFCURVE",
"420 700 CURVE SMOOTH",
"154 700 LINE",
"153 695 LINE",
"175 687 OFFCURVE",
"199 682 OFFCURVE",
"227 678 CURVE",
"92 21 LINE",
"63 18 OFFCURVE",
"35 13 OFFCURVE",
"11 5 CURVE",
"10 0 LINE"
);
},
{
closed = 1;
nodes = (
"253 678 LINE",
"418 678 LINE SMOOTH",
"514 678 OFFCURVE",
"555 632 OFFCURVE",
"555 557 CURVE SMOOTH",
"555 540 OFFCURVE",
"552 521 OFFCURVE",
"548 501 CURVE SMOOTH",
"526 394 OFFCURVE",
"464 325 OFFCURVE",
"346 325 CURVE SMOOTH",
"181 325 LINE"
);
},
{
closed = 1;
nodes = (
"521 0 LINE",
"522 7 LINE",
"510 13 OFFCURVE",
"478 18 OFFCURVE",
"459 21 CURVE",
"357 306 LINE",
"327 306 LINE",
"436 0 LINE"
);
},
{
closed = 1;
nodes = (
"385 -98 LINE",
"389 -76 LINE",
"125 -76 LINE",
"121 -98 LINE"
);
}
);
width = 591;
}
);
note = Rlinebelow;
rightKerningGroup = R;
unicode = 1E5E;
},
{
glyphname = S;
lastChange = "2015-11-27 06:17:30 +0000";
layers = (
{
layerId = "F5311820-4606-4FC3-8850-6A1C02DF84E8";
name = "Light Italic";
paths = (
{
closed = 1;
nodes = (
"326 -10 OFFCURVE",
"437 86 OFFCURVE",
"437 211 CURVE SMOOTH",
"437 390 OFFCURVE",
"146 392 OFFCURVE",
"146 534 CURVE SMOOTH",
"146 632 OFFCURVE",
"234 688 OFFCURVE",
"354 688 CURVE SMOOTH",
"413 688 OFFCURVE",
"452 670 OFFCURVE",
"475 638 CURVE",
"473 620 OFFCURVE",
"469 583 OFFCURVE",
"469 560 CURVE SMOOTH",
"469 553 OFFCURVE",
"469 547 OFFCURVE",
"470 543 CURVE",
"479 543 LINE",
"505 641 LINE",
"476 686 OFFCURVE",
"424 710 OFFCURVE",
"348 710 CURVE SMOOTH",
"220 710 OFFCURVE",
"119 645 OFFCURVE",
"119 528 CURVE SMOOTH",
"119 369 OFFCURVE",
"409 372 OFFCURVE",
"409 202 CURVE SMOOTH",
"409 93 OFFCURVE",
"308 12 OFFCURVE",
"196 12 CURVE SMOOTH",
"112 12 OFFCURVE",
"64 47 OFFCURVE",
"41 92 CURVE",
"44 111 OFFCURVE",
"51 164 OFFCURVE",
"51 192 CURVE SMOOTH",
"51 198 OFFCURVE",
"51 203 OFFCURVE",
"50 206 CURVE",
"41 206 LINE",
"10 79 LINE",
"39 33 OFFCURVE",
"97 -10 OFFCURVE",
"196 -10 CURVE SMOOTH"
);
}
);
width = 470;
}
);
leftKerningGroup = S;
note = S;
rightKerningGroup = S;
unicode = 0053;
},
{
glyphname = Sacute;
lastChange = "2015-11-27 06:19:02 +0000";
layers = (
{
layerId = "F5311820-4606-4FC3-8850-6A1C02DF84E8";
name = "Light Italic";
paths = (
{
closed = 1;
nodes = (
"326 -10 OFFCURVE",
"437 86 OFFCURVE",
"437 211 CURVE SMOOTH",
"437 390 OFFCURVE",
"146 392 OFFCURVE",
"146 534 CURVE SMOOTH",
"146 632 OFFCURVE",
"234 688 OFFCURVE",
"354 688 CURVE SMOOTH",
"413 688 OFFCURVE",
"452 670 OFFCURVE",
"475 638 CURVE",
"473 620 OFFCURVE",
"469 583 OFFCURVE",
"469 560 CURVE SMOOTH",
"469 553 OFFCURVE",
"469 547 OFFCURVE",
"470 543 CURVE",
"479 543 LINE",
"505 641 LINE",
"476 686 OFFCURVE",
"424 710 OFFCURVE",
"348 710 CURVE SMOOTH",
"220 710 OFFCURVE",
"119 645 OFFCURVE",
"119 528 CURVE SMOOTH",
"119 369 OFFCURVE",
"409 372 OFFCURVE",
"409 202 CURVE SMOOTH",
"409 93 OFFCURVE",
"308 12 OFFCURVE",
"196 12 CURVE SMOOTH",
"112 12 OFFCURVE",
"64 47 OFFCURVE",
"41 92 CURVE",
"44 111 OFFCURVE",
"51 164 OFFCURVE",
"51 192 CURVE SMOOTH",
"51 198 OFFCURVE",
"51 203 OFFCURVE",
"50 206 CURVE",
"41 206 LINE",
"10 79 LINE",
"39 33 OFFCURVE",
"97 -10 OFFCURVE",
"196 -10 CURVE SMOOTH"
);
},
{
closed = 1;
nodes = (
"459 859 LINE SMOOTH",
"472 866 OFFCURVE",
"479 877 OFFCURVE",
"479 885 CURVE SMOOTH",
"479 892 OFFCURVE",
"474 896 OFFCURVE",
"468 896 CURVE SMOOTH",
"459 896 OFFCURVE",
"449 891 OFFCURVE",
"441 884 CURVE",
"321 797 LINE",
"325 787 LINE"
);
}
);
width = 470;
}
);
leftKerningGroup = S;
note = Sacute;
rightKerningGroup = S;
unicode = 015A;
},
{
glyphname = Scaron;
lastChange = "2015-11-27 06:18:59 +0000";
layers = (
{
layerId = "F5311820-4606-4FC3-8850-6A1C02DF84E8";
name = "Light Italic";
paths = (
{
closed = 1;
nodes = (
"326 -10 OFFCURVE",
"437 86 OFFCURVE",
"437 211 CURVE SMOOTH",
"437 390 OFFCURVE",
"146 392 OFFCURVE",
"146 534 CURVE SMOOTH",
"146 632 OFFCURVE",
"234 688 OFFCURVE",
"354 688 CURVE SMOOTH",
"413 688 OFFCURVE",
"452 670 OFFCURVE",
"475 638 CURVE",
"473 620 OFFCURVE",
"469 583 OFFCURVE",
"469 560 CURVE SMOOTH",
"469 553 OFFCURVE",
"469 547 OFFCURVE",
"470 543 CURVE",
"479 543 LINE",
"505 641 LINE",
"476 686 OFFCURVE",
"424 710 OFFCURVE",
"348 710 CURVE SMOOTH",
"220 710 OFFCURVE",
"119 645 OFFCURVE",
"119 528 CURVE SMOOTH",
"119 369 OFFCURVE",
"409 372 OFFCURVE",
"409 202 CURVE SMOOTH",
"409 93 OFFCURVE",
"308 12 OFFCURVE",
"196 12 CURVE SMOOTH",
"112 12 OFFCURVE",
"64 47 OFFCURVE",
"41 92 CURVE",
"44 111 OFFCURVE",
"51 164 OFFCURVE",
"51 192 CURVE SMOOTH",
"51 198 OFFCURVE",
"51 203 OFFCURVE",
"50 206 CURVE",
"41 206 LINE",
"10 79 LINE",
"39 33 OFFCURVE",
"97 -10 OFFCURVE",
"196 -10 CURVE SMOOTH"
);
},
{
closed = 1;
nodes = (
"363 787 LINE",
"405 833 OFFCURVE",
"446 864 OFFCURVE",
"487 890 CURVE",
"478 908 LINE",
"440 884 OFFCURVE",
"400 854 OFFCURVE",
"366 819 CURVE",
"360 819 LINE",
"339 854 OFFCURVE",
"311 884 OFFCURVE",
"284 908 CURVE",
"268 890 LINE",
"297 864 OFFCURVE",
"326 833 OFFCURVE",
"349 787 CURVE"
);
}
);
width = 470;
}
);
leftKerningGroup = S;
note = Scaron;
rightKerningGroup = S;
unicode = 0160;
},
{
glyphname = Scedilla;
lastChange = "2015-11-27 06:18:54 +0000";
layers = (
{
layerId = "F5311820-4606-4FC3-8850-6A1C02DF84E8";
name = "Light Italic";
paths = (
{
closed = 1;
nodes = (
"326 -10 OFFCURVE",
"437 86 OFFCURVE",
"437 211 CURVE SMOOTH",
"437 390 OFFCURVE",
"146 392 OFFCURVE",
"146 534 CURVE SMOOTH",
"146 632 OFFCURVE",
"234 688 OFFCURVE",
"354 688 CURVE SMOOTH",
"413 688 OFFCURVE",
"452 670 OFFCURVE",
"475 638 CURVE",
"473 620 OFFCURVE",
"469 583 OFFCURVE",
"469 560 CURVE SMOOTH",
"469 553 OFFCURVE",
"469 547 OFFCURVE",
"470 543 CURVE",
"479 543 LINE",
"505 641 LINE",
"476 686 OFFCURVE",
"424 710 OFFCURVE",
"348 710 CURVE SMOOTH",
"220 710 OFFCURVE",
"119 645 OFFCURVE",
"119 528 CURVE SMOOTH",
"119 369 OFFCURVE",
"409 372 OFFCURVE",
"409 202 CURVE SMOOTH",
"409 93 OFFCURVE",
"308 12 OFFCURVE",
"196 12 CURVE SMOOTH",
"112 12 OFFCURVE",
"64 47 OFFCURVE",
"41 92 CURVE",
"44 111 OFFCURVE",
"51 164 OFFCURVE",
"51 192 CURVE SMOOTH",
"51 198 OFFCURVE",
"51 203 OFFCURVE",
"50 206 CURVE",
"41 206 LINE",
"10 79 LINE",
"39 33 OFFCURVE",
"97 -10 OFFCURVE",
"196 -10 CURVE SMOOTH"
);
},
{
closed = 1;
nodes = (
"191 -186 OFFCURVE",
"235 -164 OFFCURVE",
"244 -118 CURVE SMOOTH",
"245 -114 OFFCURVE",
"245 -110 OFFCURVE",
"245 -107 CURVE SMOOTH",
"245 -79 OFFCURVE",
"219 -67 OFFCURVE",
"189 -67 CURVE SMOOTH",
"180 -67 OFFCURVE",
"173 -67 OFFCURVE",
"165 -69 CURVE",
"208 0 LINE",
"185 0 LINE",
"140 -66 LINE",
"155 -89 LINE",
"161 -88 OFFCURVE",
"170 -87 OFFCURVE",
"179 -87 CURVE SMOOTH",
"201 -87 OFFCURVE",
"225 -95 OFFCURVE",
"221 -117 CURVE",
"213 -151 OFFCURVE",
"185 -166 OFFCURVE",
"146 -166 CURVE SMOOTH",
"132 -166 OFFCURVE",
"116 -165 OFFCURVE",
"101 -162 CURVE",
"88 -180 LINE",
"105 -184 OFFCURVE",
"123 -186 OFFCURVE",
"139 -186 CURVE SMOOTH"
);
}
);
width = 470;
}
);
leftKerningGroup = S;
note = Scedilla;
rightKerningGroup = S;
unicode = 015E;
},
{
glyphname = Scircumflex;
lastChange = "2015-11-27 06:18:50 +0000";
layers = (
{
layerId = "F5311820-4606-4FC3-8850-6A1C02DF84E8";
name = "Light Italic";
paths = (
{
closed = 1;
nodes = (
"326 -10 OFFCURVE",
"437 86 OFFCURVE",
"437 211 CURVE SMOOTH",
"437 390 OFFCURVE",
"146 392 OFFCURVE",
"146 534 CURVE SMOOTH",
"146 632 OFFCURVE",
"234 688 OFFCURVE",
"354 688 CURVE SMOOTH",
"413 688 OFFCURVE",
"452 670 OFFCURVE",
"475 638 CURVE",
"473 620 OFFCURVE",
"469 583 OFFCURVE",
"469 560 CURVE SMOOTH",
"469 553 OFFCURVE",
"469 547 OFFCURVE",
"470 543 CURVE",
"479 543 LINE",
"505 641 LINE",
"476 686 OFFCURVE",
"424 710 OFFCURVE",
"348 710 CURVE SMOOTH",
"220 710 OFFCURVE",
"119 645 OFFCURVE",
"119 528 CURVE SMOOTH",
"119 369 OFFCURVE",
"409 372 OFFCURVE",
"409 202 CURVE SMOOTH",
"409 93 OFFCURVE",
"308 12 OFFCURVE",
"196 12 CURVE SMOOTH",
"112 12 OFFCURVE",
"64 47 OFFCURVE",
"41 92 CURVE",
"44 111 OFFCURVE",
"51 164 OFFCURVE",
"51 192 CURVE SMOOTH",
"51 198 OFFCURVE",
"51 203 OFFCURVE",
"50 206 CURVE",
"41 206 LINE",
"10 79 LINE",
"39 33 OFFCURVE",
"97 -10 OFFCURVE",
"196 -10 CURVE SMOOTH"
);
},
{
closed = 1;
nodes = (
"295 801 OFFCURVE",
"334 831 OFFCURVE",
"370 866 CURVE",
"375 866 LINE",
"396 831 OFFCURVE",
"423 801 OFFCURVE",
"451 777 CURVE",
"468 795 LINE",
"438 821 OFFCURVE",
"409 852 OFFCURVE",
"385 898 CURVE",
"372 898 LINE",
"330 852 OFFCURVE",
"288 821 OFFCURVE",
"249 795 CURVE",
"257 777 LINE"
);
}
);
width = 470;
}
);
leftKerningGroup = S;
note = Scircumflex;
rightKerningGroup = S;
unicode = 015C;
},
{
glyphname = Scommaaccent;
lastChange = "2015-11-27 06:18:45 +0000";
layers = (
{
layerId = "F5311820-4606-4FC3-8850-6A1C02DF84E8";
name = "Light Italic";
paths = (
{
closed = 1;
nodes = (
"326 -10 OFFCURVE",
"437 86 OFFCURVE",
"437 211 CURVE SMOOTH",
"437 390 OFFCURVE",
"146 392 OFFCURVE",
"146 534 CURVE SMOOTH",
"146 632 OFFCURVE",
"234 688 OFFCURVE",
"354 688 CURVE SMOOTH",
"413 688 OFFCURVE",
"452 670 OFFCURVE",
"475 638 CURVE",
"473 620 OFFCURVE",
"469 583 OFFCURVE",
"469 560 CURVE SMOOTH",
"469 553 OFFCURVE",
"469 547 OFFCURVE",
"470 543 CURVE",
"479 543 LINE",
"505 641 LINE",
"476 686 OFFCURVE",
"424 710 OFFCURVE",
"348 710 CURVE SMOOTH",
"220 710 OFFCURVE",
"119 645 OFFCURVE",
"119 528 CURVE SMOOTH",
"119 369 OFFCURVE",
"409 372 OFFCURVE",
"409 202 CURVE SMOOTH",
"409 93 OFFCURVE",
"308 12 OFFCURVE",
"196 12 CURVE SMOOTH",
"112 12 OFFCURVE",
"64 47 OFFCURVE",
"41 92 CURVE",
"44 111 OFFCURVE",
"51 164 OFFCURVE",
"51 192 CURVE SMOOTH",
"51 198 OFFCURVE",
"51 203 OFFCURVE",
"50 206 CURVE",
"41 206 LINE",
"10 79 LINE",
"39 33 OFFCURVE",
"97 -10 OFFCURVE",
"196 -10 CURVE SMOOTH"
);
},
{
closed = 1;
nodes = (
"174 -209 OFFCURVE",
"205 -148 OFFCURVE",
"212 -114 CURVE SMOOTH",
"213 -107 OFFCURVE",
"214 -100 OFFCURVE",
"214 -94 CURVE SMOOTH",
"214 -72 OFFCURVE",
"204 -56 OFFCURVE",
"180 -56 CURVE SMOOTH",
"159 -56 OFFCURVE",
"137 -75 OFFCURVE",
"137 -100 CURVE SMOOTH",
"137 -114 OFFCURVE",
"147 -124 OFFCURVE",
"159 -124 CURVE SMOOTH",
"165 -124 OFFCURVE",
"173 -124 OFFCURVE",
"180 -120 CURVE",
"178 -130 LINE SMOOTH",
"171 -164 OFFCURVE",
"151 -199 OFFCURVE",
"127 -225 CURVE",
"140 -238 LINE"
);
}
);
width = 470;
}
);
leftKerningGroup = S;
note = Scommaaccent;
rightKerningGroup = S;
unicode = 0218;
},
{
glyphname = Sdotaccent;
lastChange = "2015-11-27 06:18:39 +0000";
layers = (
{
layerId = "F5311820-4606-4FC3-8850-6A1C02DF84E8";
name = "Light Italic";
paths = (
{
closed = 1;
nodes = (
"326 -10 OFFCURVE",
"437 86 OFFCURVE",
"437 211 CURVE SMOOTH",
"437 390 OFFCURVE",
"146 392 OFFCURVE",
"146 534 CURVE SMOOTH",
"146 632 OFFCURVE",
"234 688 OFFCURVE",
"354 688 CURVE SMOOTH",
"413 688 OFFCURVE",
"452 670 OFFCURVE",
"475 638 CURVE",
"473 620 OFFCURVE",
"469 583 OFFCURVE",
"469 560 CURVE SMOOTH",
"469 553 OFFCURVE",
"469 547 OFFCURVE",
"470 543 CURVE",
"479 543 LINE",
"505 641 LINE",
"476 686 OFFCURVE",
"424 710 OFFCURVE",
"348 710 CURVE SMOOTH",
"220 710 OFFCURVE",
"119 645 OFFCURVE",
"119 528 CURVE SMOOTH",
"119 369 OFFCURVE",
"409 372 OFFCURVE",
"409 202 CURVE SMOOTH",
"409 93 OFFCURVE",
"308 12 OFFCURVE",
"196 12 CURVE SMOOTH",
"112 12 OFFCURVE",
"64 47 OFFCURVE",
"41 92 CURVE",
"44 111 OFFCURVE",
"51 164 OFFCURVE",
"51 192 CURVE SMOOTH",
"51 198 OFFCURVE",
"51 203 OFFCURVE",
"50 206 CURVE",
"41 206 LINE",
"10 79 LINE",
"39 33 OFFCURVE",
"97 -10 OFFCURVE",
"196 -10 CURVE SMOOTH"
);
},
{
closed = 1;
nodes = (
"376 785 OFFCURVE",
"394 799 OFFCURVE",
"394 822 CURVE SMOOTH",
"394 837 OFFCURVE",
"385 845 OFFCURVE",
"372 845 CURVE SMOOTH",
"354 845 OFFCURVE",
"338 831 OFFCURVE",
"338 806 CURVE SMOOTH",
"338 793 OFFCURVE",
"346 785 OFFCURVE",
"359 785 CURVE SMOOTH"
);
}
);
width = 470;
}
);
leftKerningGroup = S;
note = Sdotaccent;
rightKerningGroup = S;
unicode = 1E60;
},
{
glyphname = Sdotbelow;
lastChange = "2015-11-27 06:18:34 +0000";
layers = (
{
layerId = "F5311820-4606-4FC3-8850-6A1C02DF84E8";
name = "Light Italic";
paths = (
{
closed = 1;
nodes = (
"326 -10 OFFCURVE",
"437 86 OFFCURVE",
"437 211 CURVE SMOOTH",
"437 390 OFFCURVE",
"146 392 OFFCURVE",
"146 534 CURVE SMOOTH",
"146 632 OFFCURVE",
"234 688 OFFCURVE",
"354 688 CURVE SMOOTH",
"413 688 OFFCURVE",
"452 670 OFFCURVE",
"475 638 CURVE",
"473 620 OFFCURVE",
"469 583 OFFCURVE",
"469 560 CURVE SMOOTH",
"469 553 OFFCURVE",
"469 547 OFFCURVE",
"470 543 CURVE",
"479 543 LINE",
"505 641 LINE",
"476 686 OFFCURVE",
"424 710 OFFCURVE",
"348 710 CURVE SMOOTH",
"220 710 OFFCURVE",
"119 645 OFFCURVE",
"119 528 CURVE SMOOTH",
"119 369 OFFCURVE",
"409 372 OFFCURVE",
"409 202 CURVE SMOOTH",
"409 93 OFFCURVE",
"308 12 OFFCURVE",
"196 12 CURVE SMOOTH",
"112 12 OFFCURVE",
"64 47 OFFCURVE",
"41 92 CURVE",
"44 111 OFFCURVE",
"51 164 OFFCURVE",
"51 192 CURVE SMOOTH",
"51 198 OFFCURVE",
"51 203 OFFCURVE",
"50 206 CURVE",
"41 206 LINE",
"10 79 LINE",
"39 33 OFFCURVE",
"97 -10 OFFCURVE",
"196 -10 CURVE SMOOTH"
);
},
{
closed = 1;
nodes = (
"179 -124 OFFCURVE",
"195 -105 OFFCURVE",
"195 -86 CURVE SMOOTH",
"195 -72 OFFCURVE",
"186 -64 OFFCURVE",
"173 -64 CURVE SMOOTH",
"153 -64 OFFCURVE",
"139 -82 OFFCURVE",
"139 -103 CURVE SMOOTH",
"139 -117 OFFCURVE",
"148 -124 OFFCURVE",
"160 -124 CURVE SMOOTH"
);
}
);
width = 470;
}
);
leftKerningGroup = S;
note = Sdotbelow;
rightKerningGroup = S;
unicode = 1E62;
},
{
glyphname = Germandbls;
lastChange = "2015-11-27 06:18:23 +0000";
layers = (
{
layerId = "F5311820-4606-4FC3-8850-6A1C02DF84E8";
name = "Light Italic";
paths = (
{
closed = 1;
nodes = (
"490 -10 OFFCURVE",
"595 101 OFFCURVE",
"595 243 CURVE SMOOTH",
"595 334 OFFCURVE",
"526 391 OFFCURVE",
"401 394 CURVE",
"583 556 LINE",
"576 629 OFFCURVE",
"525 710 OFFCURVE",
"414 710 CURVE SMOOTH",
"248 710 OFFCURVE",
"166 609 OFFCURVE",
"135 458 CURVE SMOOTH",
"46 21 LINE",
"17 18 OFFCURVE",
"-12 13 OFFCURVE",
"-36 5 CURVE",
"-36 0 LINE",
"148 0 LINE",
"149 5 LINE",
"127 13 OFFCURVE",
"100 18 OFFCURVE",
"73 22 CURVE",
"164 468 LINE SMOOTH",
"191 600 OFFCURVE",
"279 688 OFFCURVE",
"405 688 CURVE SMOOTH",
"497 688 OFFCURVE",
"542 632 OFFCURVE",
"557 564 CURVE",
"372 402 LINE",
"367 371 LINE",
"395 371 LINE SMOOTH",
"512 371 OFFCURVE",
"568 319 OFFCURVE",
"568 239 CURVE SMOOTH",
"568 115 OFFCURVE",
"468 12 OFFCURVE",
"334 12 CURVE SMOOTH",
"281 12 OFFCURVE",
"225 23 OFFCURVE",
"179 48 CURVE",
"173 23 LINE",
"213 1 OFFCURVE",
"276 -10 OFFCURVE",
"342 -10 CURVE SMOOTH"
);
}
);
width = 617;
}
);
note = uni1E9E;
unicode = 1E9E;
},
{
glyphname = Schwa;
lastChange = "2015-10-26 01:20:27 +0000";
layers = (
{
layerId = "F5311820-4606-4FC3-8850-6A1C02DF84E8";
name = "Light Italic";
paths = (
{
closed = 1;
nodes = (
"439 -10 OFFCURVE",
"582 111 OFFCURVE",
"630 344 CURVE SMOOTH",
"637 377 OFFCURVE",
"640 408 OFFCURVE",
"640 437 CURVE SMOOTH",
"640 601 OFFCURVE",
"541 710 OFFCURVE",
"380 710 CURVE SMOOTH",
"285 710 OFFCURVE",
"208 679 OFFCURVE",
"160 644 CURVE",
"161 638 OFFCURVE",
"160 636 OFFCURVE",
"160 629 CURVE",
"214 662 OFFCURVE",
"287 685 OFFCURVE",
"361 685 CURVE SMOOTH",
"532 685 OFFCURVE",
"611 575 OFFCURVE",
"611 428 CURVE SMOOTH",
"611 399 OFFCURVE",
"607 367 OFFCURVE",
"601 335 CURVE SMOOTH",
"566 165 OFFCURVE",
"456 12 OFFCURVE",
"256 12 CURVE SMOOTH",
"122 12 OFFCURVE",
"76 108 OFFCURVE",
"76 216 CURVE SMOOTH",
"76 246 OFFCURVE",
"80 277 OFFCURVE",
"86 307 CURVE",
"601 307 LINE",
"606 331 LINE",
"67 331 LINE",
"63 311 LINE SMOOTH",
"56 277 OFFCURVE",
"52 243 OFFCURVE",
"52 212 CURVE SMOOTH",
"52 85 OFFCURVE",
"112 -10 OFFCURVE",
"256 -10 CURVE SMOOTH"
);
}
);
width = 636;
}
);
note = uni018F;
unicode = 018F;
},
{
glyphname = T;
lastChange = "2015-10-26 01:20:27 +0000";
layers = (
{
layerId = "F5311820-4606-4FC3-8850-6A1C02DF84E8";
name = "Light Italic";
paths = (
{
closed = 1;
nodes = (
"342 0 LINE",
"343 5 LINE",
"321 13 OFFCURVE",
"294 18 OFFCURVE",
"267 22 CURVE",
"401 678 LINE",
"605 678 LINE",
"603 660 OFFCURVE",
"599 627 OFFCURVE",
"599 603 CURVE SMOOTH",
"599 596 OFFCURVE",
"599 590 OFFCURVE",
"600 586 CURVE",
"609 586 LINE",
"632 700 LINE",
"152 700 LINE",
"129 586 LINE",
"137 586 LINE",
"149 604 OFFCURVE",
"164 655 OFFCURVE",
"171 678 CURVE",
"374 678 LINE",
"240 21 LINE",
"211 18 OFFCURVE",
"182 13 OFFCURVE",
"158 5 CURVE",
"157 0 LINE"
);
}
);
width = 576;
}
);
leftKerningGroup = T;
note = T;
rightKerningGroup = T;
unicode = 0054;
},
{
glyphname = Tbar;
lastChange = "2015-10-26 01:20:27 +0000";
layers = (
{
layerId = "F5311820-4606-4FC3-8850-6A1C02DF84E8";
name = "Light Italic";
paths = (
{
closed = 1;
nodes = (
"342 0 LINE",
"343 5 LINE",
"321 13 OFFCURVE",
"294 18 OFFCURVE",
"267 22 CURVE",
"401 678 LINE",
"605 678 LINE",
"603 660 OFFCURVE",
"599 627 OFFCURVE",
"599 603 CURVE SMOOTH",
"599 596 OFFCURVE",
"599 590 OFFCURVE",
"600 586 CURVE",
"609 586 LINE",
"632 700 LINE",
"152 700 LINE",
"129 586 LINE",
"137 586 LINE",
"149 604 OFFCURVE",
"164 655 OFFCURVE",
"171 678 CURVE",
"374 678 LINE",
"240 21 LINE",
"211 18 OFFCURVE",
"182 13 OFFCURVE",
"158 5 CURVE",
"157 0 LINE"
);
},
{
closed = 1;
nodes = (
"482 350 LINE",
"487 372 LINE",
"164 372 LINE",
"159 350 LINE"
);
}
);
width = 576;
}
);
leftKerningGroup = T;
note = Tbar;
rightKerningGroup = T;
unicode = 0166;
},
{
glyphname = Tcaron;
lastChange = "2015-10-26 01:20:27 +0000";
layers = (
{
layerId = "F5311820-4606-4FC3-8850-6A1C02DF84E8";
name = "Light Italic";
paths = (
{
closed = 1;
nodes = (
"342 0 LINE",
"343 5 LINE",
"321 13 OFFCURVE",
"294 18 OFFCURVE",
"267 22 CURVE",
"401 678 LINE",
"605 678 LINE",
"603 660 OFFCURVE",
"599 627 OFFCURVE",
"599 603 CURVE SMOOTH",
"599 596 OFFCURVE",
"599 590 OFFCURVE",
"600 586 CURVE",
"609 586 LINE",
"632 700 LINE",
"152 700 LINE",
"129 586 LINE",
"137 586 LINE",
"149 604 OFFCURVE",
"164 655 OFFCURVE",
"171 678 CURVE",
"374 678 LINE",
"240 21 LINE",
"211 18 OFFCURVE",
"182 13 OFFCURVE",
"158 5 CURVE",
"157 0 LINE"
);
},
{
closed = 1;
nodes = (
"416 787 LINE",
"458 833 OFFCURVE",
"499 864 OFFCURVE",
"540 890 CURVE",
"531 908 LINE",
"492 884 OFFCURVE",
"453 854 OFFCURVE",
"419 819 CURVE",
"413 819 LINE",
"392 854 OFFCURVE",
"364 884 OFFCURVE",
"337 908 CURVE",
"321 890 LINE",
"349 864 OFFCURVE",
"379 833 OFFCURVE",
"402 787 CURVE"
);
}
);
width = 576;
}
);
leftKerningGroup = T;
note = Tcaron;
rightKerningGroup = T;
unicode = 0164;
},
{
glyphname = Tcedilla;
lastChange = "2015-10-26 01:20:27 +0000";
layers = (
{
layerId = "F5311820-4606-4FC3-8850-6A1C02DF84E8";
name = "Light Italic";
paths = (
{
closed = 1;
nodes = (
"342 0 LINE",
"343 5 LINE",
"321 13 OFFCURVE",
"294 18 OFFCURVE",
"267 22 CURVE",
"401 678 LINE",
"605 678 LINE",
"603 660 OFFCURVE",
"599 627 OFFCURVE",
"599 603 CURVE SMOOTH",
"599 596 OFFCURVE",
"599 590 OFFCURVE",
"600 586 CURVE",
"609 586 LINE",
"632 700 LINE",
"152 700 LINE",
"129 586 LINE",
"137 586 LINE",
"149 604 OFFCURVE",
"164 655 OFFCURVE",
"171 678 CURVE",
"374 678 LINE",
"240 21 LINE",
"211 18 OFFCURVE",
"182 13 OFFCURVE",
"158 5 CURVE",
"157 0 LINE"
);
},
{
closed = 1;
nodes = (
"245 -186 OFFCURVE",
"289 -164 OFFCURVE",
"298 -118 CURVE SMOOTH",
"299 -114 OFFCURVE",
"299 -111 OFFCURVE",
"299 -108 CURVE SMOOTH",
"299 -79 OFFCURVE",
"273 -67 OFFCURVE",
"242 -67 CURVE SMOOTH",
"233 -67 OFFCURVE",
"226 -67 OFFCURVE",
"218 -69 CURVE",
"262 0 LINE",
"239 0 LINE",
"193 -66 LINE",
"207 -89 LINE",
"214 -88 OFFCURVE",
"223 -87 OFFCURVE",
"231 -87 CURVE SMOOTH",
"254 -87 OFFCURVE",
"278 -95 OFFCURVE",
"275 -117 CURVE",
"267 -151 OFFCURVE",
"238 -166 OFFCURVE",
"199 -166 CURVE SMOOTH",
"185 -166 OFFCURVE",
"169 -165 OFFCURVE",
"154 -162 CURVE",
"141 -180 LINE",
"157 -184 OFFCURVE",
"176 -186 OFFCURVE",
"192 -186 CURVE SMOOTH"
);
}
);
width = 576;
}
);
leftKerningGroup = T;
note = Tcedilla;
rightKerningGroup = T;
unicode = 0162;
},
